<?xml version="1.0" encoding="UTF-8"?><svg id="Layer_2" xmlns="http://www.w3.org/2000/svg" viewBox="0 0 346 321.5"><defs><style>.cls-1{fill:none;fill-rule:evenodd;stroke:#dce2ea;stroke-miterlimit:10;}</style></defs><g id="Layer_1-2"><g><path class="cls-1" d="M25.99,223.25h-6.5"/><path class="cls-1" d="M22.75,220v6.5"/><path class="cls-1" d="M18.25,215c.69,0,1.25,.56,1.25,1.25s-.56,1.25-1.25,1.25-1.25-.56-1.25-1.25,.56-1.25,1.25-1.25Z"/><path class="cls-1" d="M22.75,218.5c2.62,0,4.75,2.13,4.75,4.75s-2.13,4.75-4.75,4.75-4.75-2.13-4.75-4.75,2.13-4.75,4.75-4.75Z"/><path class="cls-1" d="M220.46,215.66c1.59,0,2.88,1.29,2.88,2.88s-1.29,2.88-2.88,2.88-2.88-1.29-2.88-2.88,1.29-2.88,2.88-2.88Z"/><path class="cls-1" d="M200,210c1.38,0,2.5,1.12,2.5,2.5s-1.12,2.5-2.5,2.5-2.5-1.12-2.5-2.5,1.12-2.5,2.5-2.5Z"/><path class="cls-1" d="M333,227h12.5v17.5"/><path class="cls-1" d="M153.5,218.5l6.5-6h38"/><path class="cls-1" d="M125.5,224.5l7.5-6h85"/><path class="cls-1" d="M4.25,58c1.24,0,2.25,1.01,2.25,2.25s-1.01,2.25-2.25,2.25-2.25-1.01-2.25-2.25,1.01-2.25,2.25-2.25Z"/><path class="cls-1" d="M4,62v78"/><path class="cls-1" d="M3.75,140.5c1.79,0,3.25,1.46,3.25,3.25s-1.46,3.25-3.25,3.25-3.25-1.45-3.25-3.25,1.46-3.25,3.25-3.25Z"/><path class="cls-1" d="M10.5,0V112l6.5,7v43l-5.5,3.5v55.5l6,9H87.5l9-5.5H255.5l8.5,7h77v90"/></g></g></svg>