<?xml version="1.0" encoding="UTF-8"?><svg id="Layer_2" xmlns="http://www.w3.org/2000/svg" viewBox="0 0 152.36 161"><defs><style>.cls-1{fill:none;stroke:#dce2ea;stroke-miterlimit:10;}.cls-1,.cls-2{fill-rule:evenodd;}.cls-2{fill:#dce2ea;}</style></defs><g id="Layer_1-2"><g><path class="cls-1" d="M149.36,4.31l-.44,86-55.74,.19-5-7.5-87.68-.31v78.31"/><path class="cls-2" d="M149.36,0c1.66,0,3,1.34,3,3s-1.34,3-3,3-3-1.34-3-3,1.34-3,3-3Z"/><path class="cls-1" d="M139.43,87.34c1.51,0,2.73-1.16,2.74-2.6,0-1.44-1.22-2.6-2.73-2.6-1.51,0-2.73,1.16-2.74,2.6,0,1.44,1.22,2.6,2.73,2.6Z"/><path class="cls-1" d="M15.32,78.56c1.18,0,2.14-.93,2.14-2.08,0-1.15-.95-2.09-2.13-2.09-1.18,0-2.14,.93-2.14,2.08,0,1.15,.95,2.09,2.13,2.09Z"/><path class="cls-1" d="M26.98,72.99c.77,0,1.4-.61,1.4-1.37,0-.76-.63-1.37-1.4-1.37-.77,0-1.4,.61-1.4,1.37s.63,1.37,1.4,1.37Z"/><path class="cls-1" d="M48.06,77.13l-3.73-5.49-15.9-.02"/><path class="cls-1" d="M63.02,82.63l-3.27-5.94-42.09-.05"/></g></g></svg>