<?xml version="1.0" encoding="UTF-8"?><svg id="Layer_2" xmlns="http://www.w3.org/2000/svg" viewBox="0 0 343.98 201.5"><defs><style>.cls-1{fill:none;stroke:#dce2ea;stroke-miterlimit:10;}.cls-1,.cls-2{fill-rule:evenodd;}.cls-2{fill:#dce2ea;}</style></defs><g id="Layer_1-2"><g><path class="cls-2" d="M340.98,0c1.66,0,3,1.34,3,3s-1.34,3-3,3-3-1.34-3-3,1.34-3,3-3Z"/><path class="cls-1" d="M340.98,4V49l-6.98,10.5h-89.5l-8.5,11.5h-102l-9.5-12H6V201.5"/><path class="cls-1" d="M182.97,82.97l-3.5,8.5h-42"/><path class="cls-1" d="M.5,89.5v41"/><path class="cls-1" d="M135.22,89.54c1.07,0,1.93,.86,1.93,1.93s-.86,1.93-1.93,1.93-1.93-.86-1.93-1.93,.86-1.93,1.93-1.93Z"/><path class="cls-1" d="M12.01,63.5c1.66,0,3.01,1.35,3.01,3.01s-1.35,3.01-3.01,3.01-3.01-1.35-3.01-3.01,1.35-3.01,3.01-3.01Z"/><path class="cls-1" d="M18.47,62.5c.81,0,1.47,.66,1.47,1.47s-.66,1.47-1.47,1.47-1.47-.66-1.47-1.47,.66-1.47,1.47-1.47Z"/><path class="cls-1" d="M109.5,78.97c2.21,0,4,1.79,4,4s-1.79,4-4,4-4-1.79-4-4,1.79-4,4-4Z"/><path class="cls-1" d="M209.5,70.94l-7,12H113.5"/></g></g></svg>