<?xml version="1.0" encoding="UTF-8"?><svg id="Layer_2" xmlns="http://www.w3.org/2000/svg" viewBox="0 0 497.11 407"><defs><style>.cls-1{fill:none;fill-rule:evenodd;stroke:#dce2ea;stroke-miterlimit:10;}</style></defs><g id="Layer_1-2"><g><path class="cls-1" d="M496.61,371.7c0,.99-.81,1.8-1.8,1.8s-1.8-.8-1.8-1.8,.81-1.8,1.8-1.8,1.8,.8,1.8,1.8Z"/><path class="cls-1" d="M496.61,303.18c0,.99-.81,1.8-1.8,1.8s-1.8-.8-1.8-1.8,.81-1.8,1.8-1.8,1.8,.8,1.8,1.8Z"/><path class="cls-1" d="M494.8,304.98v64.93"/><path class="cls-1" d="M480.52,285.46c-1.26,0-2.29-1.01-2.29-2.26s1.02-2.26,2.29-2.26,2.29,1.01,2.29,2.26-1.02,2.26-2.29,2.26Z"/><path class="cls-1" d="M381.51,279.21c-1.27,0-2.29,1.02-2.29,2.28s1.03,2.28,2.29,2.28,2.29-1.02,2.29-2.28-1.03-2.28-2.29-2.28Z"/><path class="cls-1" d="M368.46,285.5c-.83,0-1.51,.67-1.51,1.5s.67,1.5,1.51,1.5,1.51-.67,1.51-1.5-.67-1.5-1.51-1.5Z"/><path class="cls-1" d="M346.62,281.37l3.76,5.62h17.07"/><path class="cls-1" d="M330.31,275l3.51,6.5h45.18"/><path class="cls-1" d="M201.3,238.5h12l16.5,12v11"/><path class="cls-1" d="M35.8,233.75h-7.5"/><path class="cls-1" d="M32.05,230v7.5"/><path class="cls-1" d="M39.05,221.5c1.52,0,2.75,1.23,2.75,2.75s-1.23,2.75-2.75,2.75-2.75-1.23-2.75-2.75,1.23-2.75,2.75-2.75Z"/><path class="cls-1" d="M29.3,219c.83,0,1.5,.67,1.5,1.5s-.67,1.5-1.5,1.5-1.5-.67-1.5-1.5,.67-1.5,1.5-1.5Z"/><path class="cls-1" d="M32.05,228.5c2.9,0,5.25,2.35,5.25,5.25s-2.35,5.25-5.25,5.25-5.25-2.35-5.25-5.25,2.35-5.25,5.25-5.25Z"/><path class="cls-1" d="M4.11,163.7c0,.99-.81,1.8-1.8,1.8s-1.8-.8-1.8-1.8,.81-1.8,1.8-1.8,1.8,.8,1.8,1.8Z"/><path class="cls-1" d="M4.11,95.3c0,.99-.81,1.8-1.8,1.8s-1.8-.8-1.8-1.8,.81-1.8,1.8-1.8,1.8,.8,1.8,1.8Z"/><path class="cls-1" d="M2.3,96.98v64.93"/><path class="cls-1" d="M9.8,0V183.5l13,8.5-.5,50.5H210.8l13,9v23.5H486.8v132"/></g></g></svg>