<?xml version="1.0" encoding="UTF-8"?><svg id="Layer_2" xmlns="http://www.w3.org/2000/svg" viewBox="0 0 341.49 330"><defs><style>.cls-1{fill:none;fill-rule:evenodd;stroke:#dce2ea;stroke-miterlimit:10;}</style></defs><g id="Layer_1-2"><g><path class="cls-1" d="M304.2,186.28c-1.27,0-2.29-1.02-2.29-2.28s1.03-2.28,2.29-2.28,2.29,1.02,2.29,2.28-1.03,2.28-2.29,2.28Z"/><path class="cls-1" d="M291.65,179.5c-.83,0-1.51-.67-1.51-1.5s.67-1.5,1.51-1.5,1.51,.67,1.51,1.5-.67,1.5-1.51,1.5Z"/><path class="cls-1" d="M269.06,184l4.02-6h17.07"/><path class="cls-1" d="M252.99,190.5l3.51-6.5h45.18"/><path class="cls-1" d="M4.11,113.7c0,.99-.81,1.8-1.8,1.8s-1.8-.8-1.8-1.8,.81-1.8,1.8-1.8,1.8,.8,1.8,1.8Z"/><path class="cls-1" d="M4.11,45.3c0,.99-.81,1.8-1.8,1.8s-1.8-.8-1.8-1.8,.81-1.8,1.8-1.8,1.8,.8,1.8,1.8Z"/><path class="cls-1" d="M2.49,46.97V111.91"/><path class="cls-1" d="M35.99,172.75h-7.5"/><path class="cls-1" d="M32.24,169v7.5"/><path class="cls-1" d="M39.24,160.5c1.52,0,2.75,1.23,2.75,2.75s-1.23,2.75-2.75,2.75-2.75-1.23-2.75-2.75,1.23-2.75,2.75-2.75Z"/><path class="cls-1" d="M29.49,158c.83,0,1.5,.67,1.5,1.5s-.67,1.5-1.5,1.5-1.5-.67-1.5-1.5,.67-1.5,1.5-1.5Z"/><path class="cls-1" d="M32.24,167.5c2.9,0,5.25,2.35,5.25,5.25s-2.35,5.25-5.25,5.25-5.25-2.35-5.25-5.25,2.35-5.25,5.25-5.25Z"/><path class="cls-1" d="M9.99,0V132.5l12.5,8.5-.5,40.5H210.49l13,9h117.5v139.5"/></g></g></svg>