<?xml version="1.0" encoding="UTF-8"?><svg id="Layer_2" xmlns="http://www.w3.org/2000/svg" viewBox="0 0 42 357"><defs><style>.cls-1{fill:none;fill-rule:evenodd;stroke:#dce2ea;stroke-miterlimit:10;}</style></defs><g id="Layer_1-2"><g><path class="cls-1" d="M.5,131l7.5,7.5v54.5"/><path class="cls-1" d="M.5,0V248l9.5,13.5h25l6,7.5,.5,88"/><path class="cls-1" d="M20.21,250.21l-5,5"/><path class="cls-1" d="M15.21,250.21l5,5"/><path class="cls-1" d="M27.5,254.5c1.1,0,2,.9,2,2s-.9,2-2,2-2-.9-2-2,.9-2,2-2Z"/><path class="cls-1" d="M8,192.65c1.64,0,2.97,1.33,2.97,2.97s-1.33,2.97-2.97,2.97-2.97-1.33-2.97-2.97,1.33-2.97,2.97-2.97Z"/><path class="cls-1" d="M17.71,246.97c3.17,0,5.74,2.57,5.74,5.74s-2.57,5.74-5.74,5.74-5.74-2.57-5.74-5.74,2.57-5.74,5.74-5.74Z"/></g></g></svg>