<?xml version="1.0" encoding="UTF-8"?><svg id="Layer_2" xmlns="http://www.w3.org/2000/svg" viewBox="0 0 344.76 217.75"><defs><style>.cls-1{fill:none;stroke:#dce2ea;stroke-miterlimit:10;}.cls-1,.cls-2{fill-rule:evenodd;}.cls-2{fill:#dce2ea;}</style></defs><g id="Layer_1-2"><g><path class="cls-1" d="M184.26,132.75h87"/><path class="cls-1" d="M273.67,130.59c1.33,0,2.41,1.08,2.41,2.41s-1.08,2.41-2.41,2.41-2.41-1.08-2.41-2.41,1.08-2.41,2.41-2.41Z"/><path class="cls-1" d="M182.01,130.59c1.33,0,2.41,1.08,2.41,2.41s-1.08,2.41-2.41,2.41-2.41-1.08-2.41-2.41,1.08-2.41,2.41-2.41Z"/><path class="cls-1" d="M61.76,142.09c1.26,0,2.28,1.02,2.28,2.28s-1.02,2.28-2.28,2.28-2.28-1.02-2.28-2.28,1.02-2.28,2.28-2.28Z"/><path class="cls-1" d="M74.26,148.75c.83,0,1.5,.67,1.5,1.5s-.67,1.5-1.5,1.5-1.5-.67-1.5-1.5,.67-1.5,1.5-1.5Z"/><path class="cls-1" d="M96.76,144.37l-4,6h-17"/><path class="cls-1" d="M112.76,137.87l-3.5,6.5h-45"/><path class="cls-1" d="M9.51,143.75c2.9,0,5.25,2.35,5.25,5.25s-2.35,5.25-5.25,5.25-5.25-2.35-5.25-5.25,2.35-5.25,5.25-5.25Z"/><path class="cls-1" d="M21.26,146.25c.83,0,1.5,.67,1.5,1.5s-.67,1.5-1.5,1.5-1.5-.67-1.5-1.5,.67-1.5,1.5-1.5Z"/><path class="cls-1" d="M331.26,32.5v58.5"/><path class="cls-2" d="M331.23,87.44c1.67,0,3.03,1.36,3.03,3.03s-1.36,3.03-3.03,3.03-3.03-1.36-3.03-3.03,1.36-3.03,3.03-3.03Z"/><path class="cls-1" d="M331.26,24c2.35,0,4.25,1.9,4.25,4.25s-1.9,4.25-4.25,4.25-4.25-1.9-4.25-4.25,1.9-4.25,4.25-4.25Z"/><path class="cls-1" d="M9.88,217.75v-38.5l-9.38-7.5v-34l332.26,.25,8-10.5-.17-123.5"/><path class="cls-2" d="M340.51,0c2.35,0,4.25,1.9,4.25,4.25s-1.9,4.25-4.25,4.25-4.25-1.9-4.25-4.25,1.9-4.25,4.25-4.25Z"/></g></g></svg>