<?xml version="1.0" encoding="UTF-8"?><svg id="Layer_2" xmlns="http://www.w3.org/2000/svg" viewBox="0 0 256 176.01"><defs><style>.cls-1{fill:none;stroke:#dce2ea;stroke-miterlimit:10;}.cls-1,.cls-2{fill-rule:evenodd;}.cls-2{fill:#dce2ea;}</style></defs><g id="Layer_1-2"><g><path class="cls-1" d="M105.25,41.39c2.07,0,3.75,1.68,3.75,3.75s-1.68,3.75-3.75,3.75-3.75-1.68-3.75-3.75,1.68-3.75,3.75-3.75Z"/><path class="cls-1" d="M19.5,61.01H.5v20"/><path class="cls-2" d="M253.5,0c1.38,0,2.5,1.12,2.5,2.5s-1.12,2.5-2.5,2.5-2.5-1.12-2.5-2.5,1.12-2.5,2.5-2.5Z"/><path class="cls-1" d="M169,55.39l-9-10.5h-51"/><path class="cls-1" d="M4.5,176.01V65.51H79l9.5-10h105.5l6,7h53.5V4.51"/></g></g></svg>