<?xml version="1.0" encoding="UTF-8"?><svg id="Layer_2" xmlns="http://www.w3.org/2000/svg" viewBox="0 0 343.26 178.5"><defs><style>.cls-1{fill:none;stroke:#dce2ea;stroke-miterlimit:10;}.cls-1,.cls-2{fill-rule:evenodd;}.cls-2{fill:#dce2ea;}</style></defs><g id="Layer_1-2"><g><path class="cls-2" d="M340.26,0c1.66,0,3,1.34,3,3s-1.34,3-3,3-3-1.34-3-3,1.34-3,3-3Z"/><path class="cls-1" d="M340.74,115l-13.98-11h-31.5"/><path class="cls-1" d="M273.67,91.34c1.33,0,2.41,1.08,2.41,2.41s-1.08,2.41-2.41,2.41-2.41-1.08-2.41-2.41,1.08-2.41,2.41-2.41Z"/><path class="cls-1" d="M182.01,91.34c1.33,0,2.41,1.08,2.41,2.41s-1.08,2.41-2.41,2.41-2.41-1.08-2.41-2.41,1.08-2.41,2.41-2.41Z"/><path class="cls-1" d="M184.26,93.5h87"/><path class="cls-1" d="M340.26,2l.26,105-10.86-8.5H.5v34l9.38,7.5v38.5"/><path class="cls-1" d="M61.76,103.22c1.26,0,2.28,1.02,2.28,2.28s-1.02,2.28-2.28,2.28-2.28-1.02-2.28-2.28,1.02-2.28,2.28-2.28Z"/><path class="cls-1" d="M74.26,109.5c.83,0,1.5,.67,1.5,1.5s-.67,1.5-1.5,1.5-1.5-.67-1.5-1.5,.67-1.5,1.5-1.5Z"/><path class="cls-1" d="M96.76,105.5l-4,6h-17"/><path class="cls-1" d="M112.76,99.5l-3.5,6.5h-45"/><path class="cls-1" d="M9.51,104.5c2.9,0,5.25,2.35,5.25,5.25s-2.35,5.25-5.25,5.25-5.25-2.35-5.25-5.25,2.35-5.25,5.25-5.25Z"/><path class="cls-1" d="M21.26,107c.83,0,1.5,.67,1.5,1.5s-.67,1.5-1.5,1.5-1.5-.67-1.5-1.5,.67-1.5,1.5-1.5Z"/></g></g></svg>