<?xml version="1.0" encoding="UTF-8"?><svg id="Layer_2" xmlns="http://www.w3.org/2000/svg" viewBox="0 0 187.18 161"><defs><style>.cls-1{fill:none;stroke:#dce2ea;stroke-miterlimit:10;}.cls-1,.cls-2{fill-rule:evenodd;}.cls-2{fill:#dce2ea;}</style></defs><g id="Layer_1-2"><g><path class="cls-1" d="M2.82,4.31l.44,86,55.74,.19,5-7.5,122.68-.31v78.31"/><path class="cls-2" d="M3,0C1.34,0,0,1.34,0,3s1.34,3,3,3,3-1.34,3-3S4.66,0,3,0Z"/><path class="cls-1" d="M12.76,87.34c-1.51,0-2.73-1.16-2.74-2.6,0-1.44,1.22-2.6,2.73-2.6,1.51,0,2.73,1.16,2.74,2.6,0,1.44-1.22,2.6-2.73,2.6Z"/><path class="cls-1" d="M136.86,78.56c-1.18,0-2.14-.93-2.14-2.08,0-1.15,.95-2.09,2.13-2.09,1.18,0,2.14,.93,2.14,2.08,0,1.15-.95,2.09-2.13,2.09Z"/><path class="cls-1" d="M125.2,72.99c-.77,0-1.4-.61-1.4-1.37,0-.76,.63-1.37,1.4-1.37s1.4,.61,1.4,1.37c0,.76-.63,1.37-1.4,1.37Z"/><path class="cls-1" d="M104.12,77.13l3.73-5.49,15.9-.02"/><path class="cls-1" d="M89.16,82.63l3.27-5.94,42.09-.05"/></g></g></svg>