<?xml version="1.0" encoding="utf-8"?>
<!-- Generator: Adobe Illustrator 22.1.0, SVG Export Plug-In . SVG Version: 6.00 Build 0)  -->
<svg version="1.1" id="Layer_1" xmlns="http://www.w3.org/2000/svg" xmlns:xlink="http://www.w3.org/1999/xlink" x="0px" y="0px"
	 viewBox="0 0 65.5 65.5" style="enable-background:new 0 0 65.5 65.5;" xml:space="preserve">
<style type="text/css">
	.st0{clip-path:url(#SVGID_2_);}
	.st1{clip-path:url(#SVGID_4_);fill:#FFFFFF;}
	.st2{opacity:0.5;clip-path:url(#SVGID_4_);}
	.st3{clip-path:url(#SVGID_6_);fill:#3254FE;}
	.st4{clip-path:url(#SVGID_4_);fill:#012760;}
	.st5{clip-path:url(#SVGID_8_);fill:#3254FE;}
	.st6{clip-path:url(#SVGID_10_);fill:#3254FE;}
	.st7{clip-path:url(#SVGID_12_);fill:#3254FE;}
	.st8{clip-path:url(#SVGID_14_);fill:#3254FE;}
</style>
<g>
	<defs>
		<rect id="SVGID_1_" width="65.5" height="65.5"/>
	</defs>
	<clipPath id="SVGID_2_">
		<use xlink:href="#SVGID_1_"  style="overflow:visible;"/>
	</clipPath>
	<g class="st0">
		<defs>
			<rect id="SVGID_3_" y="0" width="65.5" height="65.5"/>
		</defs>
		<clipPath id="SVGID_4_">
			<use xlink:href="#SVGID_3_"  style="overflow:visible;"/>
		</clipPath>
		<path class="st1" d="M58.8,32.7c0,14.4-11.6,26-26,26s-26-11.6-26-26s11.6-26,26-26S58.8,18.4,58.8,32.7"/>
		<g class="st2">
			<g>
				<defs>
					<rect id="SVGID_5_" x="6.8" y="6.7" width="52" height="39.9"/>
				</defs>
				<clipPath id="SVGID_6_">
					<use xlink:href="#SVGID_5_"  style="overflow:visible;"/>
				</clipPath>
				<path class="st3" d="M28.7,19.8c14.4,0,26,11.6,26,26c0,0.3,0,0.6,0,0.9c2.5-4,4-8.8,4-13.9c0-14.4-11.6-26-26-26
					c-14.1,0-25.5,11.2-26,25.1C11.4,24.6,19.5,19.8,28.7,19.8"/>
			</g>
		</g>
		<path class="st4" d="M32.8,59.5C18,59.5,6,47.5,6,32.7S18,6,32.8,6s26.8,12,26.8,26.8S47.5,59.5,32.8,59.5 M32.8,7.5
			C18.8,7.5,7.5,18.8,7.5,32.7S18.8,58,32.8,58S58,46.7,58,32.7S46.7,7.5,32.8,7.5"/>
		<path class="st4" d="M46.5,65.5H7.8C3.5,65.5,0,62,0,57.8S3.5,50,7.8,50h17c2.9,0,5.3-2.4,5.3-5.3c0-2.9-2.4-5.3-5.3-5.3l-6,0
			c-3.2,0-5.8-2.6-5.8-5.8c0-3.2,2.6-5.8,5.8-5.8h9c0.4,0,0.8,0.3,0.8,0.8s-0.3,0.8-0.8,0.8h-9c-2.3,0-4.3,1.9-4.3,4.3
			c0,2.3,1.9,4.3,4.3,4.3l6,0c3.7,0,6.8,3,6.8,6.8s-3,6.8-6.8,6.8h-17c-3.4,0-6.3,2.8-6.3,6.3S4.3,64,7.8,64h38.7
			c0.4,0,0.8,0.3,0.8,0.8S46.9,65.5,46.5,65.5"/>
		<path class="st1" d="M41,4.1L41,4.1c-4.5-4.5-11.9-4.5-16.4,0C20,8.7,20,16,24.5,20.5l8.2,8.2l8.2-8.2C45.5,16,45.5,8.7,41,4.1"/>
		<g class="st2">
			<g>
				<defs>
					<rect id="SVGID_7_" x="23.5" y="0.7" width="20.8" height="28"/>
				</defs>
				<clipPath id="SVGID_8_">
					<use xlink:href="#SVGID_7_"  style="overflow:visible;"/>
				</clipPath>
				<path class="st5" d="M41,4.1c-4.5-4.5-11.9-4.5-16.4,0c-0.4,0.4-0.7,0.8-1,1.2c4.5-3.5,11.1-3.1,15.2,1c4.5,4.5,4.5,11.9,0,16.4
					l-6,6l8.2-8.2C45.5,16,45.5,8.7,41,4.1"/>
			</g>
		</g>
		<path class="st4" d="M32.8,29.5c-0.2,0-0.4-0.1-0.5-0.2L24,21.1c-2.3-2.3-3.6-5.4-3.6-8.7c0-3.3,1.3-6.4,3.6-8.7
			C26.4,1.3,29.5,0,32.8,0s6.4,1.3,8.7,3.6c2.3,2.3,3.6,5.4,3.6,8.7c0,3.3-1.3,6.4-3.6,8.7l-8.2,8.2C33.1,29.4,32.9,29.5,32.8,29.5
			 M32.8,1.5c-2.9,0-5.6,1.1-7.7,3.2c-4.2,4.2-4.2,11.1,0,15.3l7.7,7.7l7.7-7.7c4.2-4.2,4.2-11.1,0-15.3C38.4,2.6,35.6,1.5,32.8,1.5
			"/>
		<path class="st1" d="M37.8,12.3c0,2.8-2.2,5-5,5c-2.8,0-5-2.2-5-5c0-2.8,2.2-5,5-5C35.5,7.3,37.8,9.6,37.8,12.3"/>
		<g class="st2">
			<g>
				<defs>
					<rect id="SVGID_9_" x="28.2" y="7.3" width="9.5" height="9.5"/>
				</defs>
				<clipPath id="SVGID_10_">
					<use xlink:href="#SVGID_9_"  style="overflow:visible;"/>
				</clipPath>
				<path class="st6" d="M37.8,12.3c0-2.8-2.2-5-5-5c-2,0-3.7,1.2-4.5,2.8c0.7-0.3,1.4-0.5,2.2-0.5c2.8,0,5,2.2,5,5
					c0,0.8-0.2,1.5-0.5,2.2C36.6,16,37.8,14.3,37.8,12.3"/>
			</g>
		</g>
		<path class="st4" d="M32.8,18.1c-3.2,0-5.8-2.6-5.8-5.8c0-3.2,2.6-5.8,5.8-5.8c3.2,0,5.8,2.6,5.8,5.8
			C38.5,15.5,35.9,18.1,32.8,18.1 M32.8,8.1c-2.3,0-4.3,1.9-4.3,4.3c0,2.3,1.9,4.3,4.3,4.3c2.3,0,4.3-1.9,4.3-4.3
			C37,10,35.1,8.1,32.8,8.1"/>
		<path class="st1" d="M60.9,36.6L60.9,36.6c-5.2-5.2-13.6-5.2-18.7,0c-5.2,5.2-5.2,13.6,0,18.7l9.4,9.4l9.4-9.4
			C66,50.2,66,41.8,60.9,36.6"/>
		<g class="st2">
			<g>
				<defs>
					<rect id="SVGID_11_" x="41" y="32.8" width="23.8" height="32"/>
				</defs>
				<clipPath id="SVGID_12_">
					<use xlink:href="#SVGID_11_"  style="overflow:visible;"/>
				</clipPath>
				<path class="st7" d="M60.9,36.6c-5.2-5.2-13.6-5.2-18.7,0c-0.4,0.4-0.8,0.9-1.2,1.4c5.2-4,12.6-3.6,17.4,1.2
					c5.2,5.2,5.2,13.6,0,18.7l-6.8,6.8l9.4-9.4C66,50.2,66,41.8,60.9,36.6"/>
			</g>
		</g>
		<path class="st4" d="M51.5,65.5L51.5,65.5c-0.2,0-0.4-0.1-0.5-0.2l-9.4-9.4c-2.6-2.6-4.1-6.2-4.1-9.9c0-3.7,1.5-7.3,4.1-9.9
			c5.5-5.5,14.3-5.5,19.8,0c2.6,2.6,4.1,6.2,4.1,9.9c0,3.7-1.5,7.3-4.1,9.9L52,65.3C51.9,65.4,51.7,65.5,51.5,65.5 M51.5,33.5
			c-3.2,0-6.4,1.2-8.8,3.7C40.3,39.5,39,42.7,39,46c0,3.3,1.3,6.5,3.7,8.8l8.8,8.8l8.8-8.8c2.4-2.4,3.7-5.5,3.7-8.8
			c0-3.3-1.3-6.5-3.7-8.8C57.9,34.7,54.7,33.5,51.5,33.5"/>
		<path class="st1" d="M57.5,46c0,3.3-2.7,6-6,6c-3.3,0-6-2.7-6-6c0-3.3,2.7-6,6-6C54.8,40,57.5,42.7,57.5,46"/>
		<g class="st2">
			<g>
				<defs>
					<rect id="SVGID_13_" x="46.1" y="40" width="11.4" height="11.4"/>
				</defs>
				<clipPath id="SVGID_14_">
					<use xlink:href="#SVGID_13_"  style="overflow:visible;"/>
				</clipPath>
				<path class="st8" d="M57.5,46c0-3.3-2.7-6-6-6c-2.4,0-4.4,1.4-5.4,3.4c0.8-0.4,1.7-0.6,2.6-0.6c3.3,0,6,2.7,6,6
					c0,0.9-0.2,1.8-0.6,2.6C56.1,50.5,57.5,48.4,57.5,46"/>
			</g>
		</g>
		<path class="st4" d="M51.5,52.8c-3.7,0-6.8-3-6.8-6.8c0-3.7,3-6.8,6.8-6.8c3.7,0,6.8,3,6.8,6.8C58.2,49.7,55.2,52.8,51.5,52.8
			 M51.5,40.8c-2.9,0-5.3,2.4-5.3,5.3c0,2.9,2.4,5.3,5.3,5.3c2.9,0,5.3-2.4,5.3-5.3C56.7,43.1,54.4,40.8,51.5,40.8"/>
		<path class="st4" d="M2.1,15.5H0.7c-0.4,0-0.8-0.3-0.8-0.8C0,14.3,0.3,14,0.7,14h1.4c0.4,0,0.8,0.3,0.8,0.8
			C2.9,15.2,2.5,15.5,2.1,15.5"/>
		<path class="st4" d="M6.8,15.5H5.4c-0.4,0-0.8-0.3-0.8-0.8C4.6,14.3,5,14,5.4,14h1.4c0.4,0,0.8,0.3,0.8,0.8
			C7.5,15.2,7.2,15.5,6.8,15.5"/>
		<path class="st4" d="M3.8,18.5c-0.4,0-0.8-0.3-0.8-0.8v-1.4c0-0.4,0.3-0.8,0.8-0.8c0.4,0,0.8,0.3,0.8,0.8v1.4
			C4.5,18.2,4.2,18.5,3.8,18.5"/>
		<path class="st4" d="M3.8,13.9c-0.4,0-0.8-0.3-0.8-0.8v-1.4C3,11.3,3.3,11,3.8,11c0.4,0,0.8,0.3,0.8,0.8v1.4
			C4.5,13.5,4.2,13.9,3.8,13.9"/>
		<path class="st4" d="M10.1,58.5H8.8c-0.4,0-0.8-0.3-0.8-0.8S8.3,57,8.8,57h1.4c0.4,0,0.8,0.3,0.8,0.8S10.5,58.5,10.1,58.5"/>
		<path class="st4" d="M14.8,58.5h-1.4c-0.4,0-0.8-0.3-0.8-0.8S13,57,13.4,57h1.4c0.4,0,0.8,0.3,0.8,0.8S15.2,58.5,14.8,58.5"/>
		<path class="st4" d="M11.8,61.5c-0.4,0-0.8-0.3-0.8-0.8v-1.4c0-0.4,0.3-0.8,0.8-0.8c0.4,0,0.8,0.3,0.8,0.8v1.4
			C12.5,61.2,12.2,61.5,11.8,61.5"/>
		<path class="st4" d="M11.8,56.9c-0.4,0-0.8-0.3-0.8-0.8v-1.4c0-0.4,0.3-0.8,0.8-0.8c0.4,0,0.8,0.3,0.8,0.8v1.4
			C12.5,56.6,12.2,56.9,11.8,56.9"/>
		<path class="st4" d="M44.1,26.5h-1.4c-0.4,0-0.8-0.3-0.8-0.8c0-0.4,0.3-0.8,0.8-0.8h1.4c0.4,0,0.8,0.3,0.8,0.8
			C44.9,26.2,44.6,26.5,44.1,26.5"/>
		<path class="st4" d="M48.8,26.5h-1.4c-0.4,0-0.8-0.3-0.8-0.8c0-0.4,0.3-0.8,0.8-0.8h1.4c0.4,0,0.8,0.3,0.8,0.8
			C49.5,26.2,49.2,26.5,48.8,26.5"/>
		<path class="st4" d="M45.8,29.5c-0.4,0-0.8-0.3-0.8-0.8v-1.4c0-0.4,0.3-0.8,0.8-0.8c0.4,0,0.8,0.3,0.8,0.8v1.4
			C46.5,29.2,46.2,29.5,45.8,29.5"/>
		<path class="st4" d="M45.8,24.9c-0.4,0-0.8-0.3-0.8-0.8v-1.4c0-0.4,0.3-0.8,0.8-0.8c0.4,0,0.8,0.3,0.8,0.8v1.4
			C46.5,24.5,46.2,24.9,45.8,24.9"/>
		<path class="st4" d="M23.1,45.5h-1.4c-0.4,0-0.8-0.3-0.8-0.8s0.3-0.8,0.8-0.8h1.4c0.4,0,0.8,0.3,0.8,0.8S23.6,45.5,23.1,45.5"/>
		<path class="st4" d="M27.8,45.5h-1.4c-0.4,0-0.8-0.3-0.8-0.8S26,44,26.4,44h1.4c0.4,0,0.8,0.3,0.8,0.8S28.2,45.5,27.8,45.5"/>
		<path class="st4" d="M24.8,48.5c-0.4,0-0.8-0.3-0.8-0.8v-1.4c0-0.4,0.3-0.8,0.8-0.8c0.4,0,0.8,0.3,0.8,0.8v1.4
			C25.5,48.2,25.2,48.5,24.8,48.5"/>
		<path class="st4" d="M24.8,43.9c-0.4,0-0.8-0.3-0.8-0.8v-1.4c0-0.4,0.3-0.8,0.8-0.8c0.4,0,0.8,0.3,0.8,0.8v1.4
			C25.5,43.6,25.2,43.9,24.8,43.9"/>
		<path class="st4" d="M54.1,8.5h-1.4c-0.4,0-0.8-0.3-0.8-0.8C52,7.3,52.3,7,52.7,7h1.4c0.4,0,0.8,0.3,0.8,0.8
			C54.9,8.2,54.5,8.5,54.1,8.5"/>
		<path class="st4" d="M58.7,8.5h-1.4c-0.4,0-0.8-0.3-0.8-0.8C56.6,7.3,57,7,57.4,7h1.4c0.4,0,0.8,0.3,0.8,0.8
			C59.5,8.2,59.2,8.5,58.7,8.5"/>
		<path class="st4" d="M55.7,11.5c-0.4,0-0.8-0.3-0.8-0.8V9.4c0-0.4,0.3-0.8,0.8-0.8c0.4,0,0.8,0.3,0.8,0.8v1.4
			C56.5,11.2,56.2,11.5,55.7,11.5"/>
		<path class="st4" d="M55.7,6.9c-0.4,0-0.8-0.3-0.8-0.8V4.7C55,4.3,55.3,4,55.7,4c0.4,0,0.8,0.3,0.8,0.8v1.4
			C56.5,6.5,56.2,6.9,55.7,6.9"/>
	</g>
</g>
</svg>
