<?xml version="1.0" encoding="utf-8"?>
<!-- Generator: Adobe Illustrator 22.1.0, SVG Export Plug-In . SVG Version: 6.00 Build 0)  -->
<svg version="1.1" id="Layer_1" xmlns="http://www.w3.org/2000/svg" xmlns:xlink="http://www.w3.org/1999/xlink" x="0px" y="0px"
	 viewBox="0 0 65.5 65.5" style="enable-background:new 0 0 65.5 65.5;" xml:space="preserve">
<style type="text/css">
	.st0{clip-path:url(#SVGID_2_);}
	.st1{clip-path:url(#SVGID_4_);fill:#012760;}
	.st2{opacity:0.5;clip-path:url(#SVGID_4_);}
	.st3{clip-path:url(#SVGID_6_);fill:#3254FE;}
	.st4{clip-path:url(#SVGID_4_);fill:#FFFFFF;}
	.st5{clip-path:url(#SVGID_8_);fill:#3254FE;}
	.st6{clip-path:url(#SVGID_10_);fill:#3254FE;}
</style>
<g>
	<defs>
		<rect id="SVGID_1_" width="65.5" height="65.5"/>
	</defs>
	<clipPath id="SVGID_2_">
		<use xlink:href="#SVGID_1_"  style="overflow:visible;"/>
	</clipPath>
	<g class="st0">
		<defs>
			<rect id="SVGID_3_" y="0" width="65.5" height="65.5"/>
		</defs>
		<clipPath id="SVGID_4_">
			<use xlink:href="#SVGID_3_"  style="overflow:visible;"/>
		</clipPath>
		<path class="st1" d="M64.8,65.5h-64c-0.4,0-0.8-0.3-0.8-0.8C0,64.3,0.3,64,0.8,64h64c0.4,0,0.8,0.3,0.8,0.8
			C65.5,65.2,65.2,65.5,64.8,65.5"/>
		<g class="st2">
			<g>
				<defs>
					<rect id="SVGID_5_" x="3.2" y="13.8" width="29" height="51"/>
				</defs>
				<clipPath id="SVGID_6_">
					<use xlink:href="#SVGID_5_"  style="overflow:visible;"/>
				</clipPath>
				<rect x="3.3" y="13.8" class="st3" width="29" height="51"/>
			</g>
		</g>
		<rect x="3.2" y="18.8" class="st4" width="22" height="46"/>
		<path class="st1" d="M32.3,65.5h-29c-0.4,0-0.8-0.3-0.8-0.8v-51c0-0.4,0.3-0.8,0.8-0.8h29c0.4,0,0.8,0.3,0.8,0.8v51
			C33,65.2,32.7,65.5,32.3,65.5 M4,64h27.5V14.5H4V64z"/>
		<path class="st1" d="M18.5,29.5H7.2c-0.4,0-0.8-0.3-0.8-0.8c0-0.4,0.3-0.8,0.8-0.8h11.2c0.4,0,0.8,0.3,0.8,0.8
			C19.2,29.2,18.9,29.5,18.5,29.5"/>
		<path class="st1" d="M26.3,24.5h-19c-0.4,0-0.8-0.3-0.8-0.8c0-0.4,0.3-0.8,0.8-0.8h19c0.4,0,0.8,0.3,0.8,0.8
			C27,24.2,26.7,24.5,26.3,24.5"/>
		<path class="st1" d="M28.3,19.5h-21c-0.4,0-0.8-0.3-0.8-0.8c0-0.4,0.3-0.8,0.8-0.8h21c0.4,0,0.8,0.3,0.8,0.8
			C29,19.2,28.7,19.5,28.3,19.5"/>
		<path class="st1" d="M14.6,34.5H7.2c-0.4,0-0.8-0.3-0.8-0.8S6.8,33,7.2,33h7.4c0.4,0,0.8,0.3,0.8,0.8S15,34.5,14.6,34.5"/>
		<path class="st1" d="M13.6,39.5H7.2c-0.4,0-0.8-0.3-0.8-0.8S6.8,38,7.2,38h6.4c0.4,0,0.8,0.3,0.8,0.8S14,39.5,13.6,39.5"/>
		<path class="st1" d="M13.3,44.5H7.2c-0.4,0-0.8-0.3-0.8-0.8S6.8,43,7.2,43h6.1c0.4,0,0.8,0.3,0.8,0.8S13.7,44.5,13.3,44.5"/>
		<path class="st1" d="M13.7,49.5H7.2c-0.4,0-0.8-0.3-0.8-0.8S6.8,48,7.2,48h6.4c0.4,0,0.8,0.3,0.8,0.8S14.1,49.5,13.7,49.5"/>
		<path class="st1" d="M16.3,54.5h-9c-0.4,0-0.8-0.3-0.8-0.8S6.8,53,7.2,53h9c0.4,0,0.8,0.3,0.8,0.8S16.7,54.5,16.3,54.5"/>
		<path class="st1" d="M21.3,59.5h-14c-0.4,0-0.8-0.3-0.8-0.8S6.8,58,7.2,58h14c0.4,0,0.8,0.3,0.8,0.8S21.7,59.5,21.3,59.5"/>
		<path class="st1" d="M32.3,14.5h-31c-0.4,0-0.8-0.3-0.8-0.8c0-0.4,0.3-0.8,0.8-0.8h31c0.4,0,0.8,0.3,0.8,0.8
			C33,14.2,32.7,14.5,32.3,14.5"/>
		<g class="st2">
			<g>
				<defs>
					<rect id="SVGID_7_" x="32.3" y="0.8" width="30" height="64"/>
				</defs>
				<clipPath id="SVGID_8_">
					<use xlink:href="#SVGID_7_"  style="overflow:visible;"/>
				</clipPath>
				<rect x="32.3" y="0.8" class="st5" width="30" height="64"/>
			</g>
		</g>
		<rect x="32.3" y="7.8" class="st4" width="25" height="57"/>
		<path class="st1" d="M62.3,65.5h-30c-0.4,0-0.8-0.3-0.8-0.8v-64c0-0.4,0.3-0.8,0.8-0.8h30C62.7,0,63,0.3,63,0.8v64
			C63,65.2,62.7,65.5,62.3,65.5 M33,64h28.5V1.5H33V64z"/>
		<path class="st1" d="M64.3,1.5h-34c-0.4,0-0.8-0.3-0.8-0.8c0-0.4,0.3-0.8,0.8-0.8h34C64.7,0,65,0.3,65,0.8
			C65,1.2,64.7,1.5,64.3,1.5"/>
		<path class="st1" d="M52.3,61.5c-0.4,0-0.8-0.3-0.8-0.8v-56c0-0.4,0.3-0.8,0.8-0.8C52.7,4,53,4.3,53,4.8v56
			C53,61.2,52.7,61.5,52.3,61.5"/>
		<path class="st1" d="M57.3,61.5c-0.4,0-0.8-0.3-0.8-0.8v-56c0-0.4,0.3-0.8,0.8-0.8C57.7,4,58,4.3,58,4.8v56
			C58,61.2,57.7,61.5,57.3,61.5"/>
		<path class="st1" d="M42.3,25.7c-0.4,0-0.8-0.3-0.8-0.8V4.8c0-0.4,0.3-0.8,0.8-0.8C42.7,4,43,4.3,43,4.8V25
			C43,25.4,42.7,25.7,42.3,25.7"/>
		<path class="st1" d="M47.3,30.5c-0.4,0-0.8-0.3-0.8-0.8v-25c0-0.4,0.3-0.8,0.8-0.8C47.7,4,48,4.3,48,4.8v25
			C48,30.1,47.7,30.5,47.3,30.5"/>
		<path class="st1" d="M47.3,61.5c-0.4,0-0.8-0.3-0.8-0.8v-7c0-0.4,0.3-0.8,0.8-0.8c0.4,0,0.8,0.3,0.8,0.8v7
			C48,61.2,47.7,61.5,47.3,61.5"/>
		<path class="st1" d="M37.3,24.2c-0.4,0-0.8-0.3-0.8-0.8V4.8c0-0.4,0.3-0.8,0.8-0.8C37.7,4,38,4.3,38,4.8v18.7
			C38,23.9,37.7,24.2,37.3,24.2"/>
		<path class="st4" d="M43.6,30.8L43.6,30.8c-6.2-6.2-16.4-6.2-22.6,0c-6.2,6.2-6.2,16.4,0,22.6l11.3,11.3l11.3-11.3
			C49.8,47.2,49.8,37.1,43.6,30.8"/>
		<g class="st2">
			<g>
				<defs>
					<rect id="SVGID_9_" x="19.5" y="26.1" width="28.7" height="38.6"/>
				</defs>
				<clipPath id="SVGID_10_">
					<use xlink:href="#SVGID_9_"  style="overflow:visible;"/>
				</clipPath>
				<path class="st6" d="M43.6,30.8c-6.2-6.2-16.4-6.2-22.6,0c-0.5,0.5-1,1.1-1.4,1.6c6.3-4.8,15.3-4.3,21,1.4
					c6.2,6.2,6.2,16.4,0,22.6l-8.3,8.3l11.3-11.3C49.8,47.2,49.8,37.1,43.6,30.8"/>
			</g>
		</g>
		<path class="st1" d="M32.3,65.5c-0.2,0-0.4-0.1-0.5-0.2L20.4,54c-3.2-3.2-4.9-7.4-4.9-11.8s1.7-8.7,4.9-11.8
			c3.2-3.2,7.4-4.9,11.8-4.9s8.7,1.7,11.8,4.9c6.5,6.5,6.5,17.2,0,23.7L32.8,65.3C32.6,65.4,32.4,65.5,32.3,65.5 M32.3,26.9
			c-4.1,0-7.9,1.6-10.8,4.5c-2.9,2.9-4.5,6.7-4.5,10.8s1.6,7.9,4.5,10.8l10.8,10.8L43,52.9C49,47,49,37.3,43,31.3
			C40.2,28.5,36.3,26.9,32.3,26.9"/>
		<path class="st4" d="M40.9,42.1c0,4.8-3.9,8.6-8.6,8.6s-8.6-3.9-8.6-8.6c0-4.8,3.9-8.6,8.6-8.6S40.9,37.4,40.9,42.1"/>
		<path class="st1" d="M4.2,4.5c-0.2,0-0.4-0.1-0.5-0.2l-3-3C0.4,1,0.4,0.5,0.7,0.2s0.8-0.3,1.1,0l3,3c0.3,0.3,0.3,0.8,0,1.1
			C4.6,4.4,4.4,4.5,4.2,4.5"/>
		<path class="st1" d="M1.2,4.5c-0.2,0-0.4-0.1-0.5-0.2C0.4,4,0.4,3.5,0.7,3.2l3-3c0.3-0.3,0.8-0.3,1.1,0c0.3,0.3,0.3,0.8,0,1.1
			l-3,3C1.6,4.4,1.4,4.5,1.2,4.5"/>
		<path class="st1" d="M24.3,6.5c-0.2,0-0.4-0.1-0.5-0.2l-3-3c-0.3-0.3-0.3-0.8,0-1.1s0.8-0.3,1.1,0l3,3c0.3,0.3,0.3,0.8,0,1.1
			C24.6,6.4,24.4,6.5,24.3,6.5"/>
		<path class="st1" d="M21.3,6.5c-0.2,0-0.4-0.1-0.5-0.2c-0.3-0.3-0.3-0.8,0-1.1l3-3c0.3-0.3,0.8-0.3,1.1,0c0.3,0.3,0.3,0.8,0,1.1
			l-3,3C21.6,6.4,21.4,6.5,21.3,6.5"/>
		<path class="st1" d="M14.2,10.5c-0.2,0-0.4-0.1-0.5-0.2l-3-3c-0.3-0.3-0.3-0.8,0-1.1c0.3-0.3,0.8-0.3,1.1,0l3,3
			c0.3,0.3,0.3,0.8,0,1.1C14.6,10.4,14.4,10.5,14.2,10.5"/>
		<path class="st1" d="M11.2,10.5c-0.2,0-0.4-0.1-0.5-0.2c-0.3-0.3-0.3-0.8,0-1.1l3-3c0.3-0.3,0.8-0.3,1.1,0s0.3,0.8,0,1.1l-3,3
			C11.6,10.4,11.4,10.5,11.2,10.5"/>
		<path class="st1" d="M39.2,44.5h-14c-0.4,0-0.8-0.3-0.8-0.8s0.3-0.8,0.8-0.8h14c0.4,0,0.8,0.3,0.8,0.8S39.7,44.5,39.2,44.5"/>
		<path class="st1" d="M31.5,51V37c0-0.4,0.3-0.8,0.8-0.8c0.4,0,0.8,0.3,0.8,0.8v14c0,0.4-0.3,0.8-0.8,0.8
			C31.8,51.8,31.5,51.4,31.5,51"/>
	</g>
</g>
</svg>
