<?xml version="1.0" encoding="utf-8"?>
<!-- Generator: Adobe Illustrator 22.1.0, SVG Export Plug-In . SVG Version: 6.00 Build 0)  -->
<svg version="1.1" id="Layer_1" xmlns="http://www.w3.org/2000/svg" xmlns:xlink="http://www.w3.org/1999/xlink" x="0px" y="0px"
	 viewBox="0 0 65.5 65.5" style="enable-background:new 0 0 65.5 65.5;" xml:space="preserve">
<style type="text/css">
	.st0{clip-path:url(#SVGID_2_);}
	.st1{clip-path:url(#SVGID_4_);fill:#FFFFFF;}
	.st2{opacity:0.5;clip-path:url(#SVGID_4_);}
	.st3{clip-path:url(#SVGID_6_);fill:#3254FE;}
	.st4{clip-path:url(#SVGID_4_);fill:#012760;}
	.st5{clip-path:url(#SVGID_8_);fill:#3254FE;}
	.st6{clip-path:url(#SVGID_10_);fill:#3254FE;}
	.st7{clip-path:url(#SVGID_12_);fill:#3254FE;}
	.st8{clip-path:url(#SVGID_14_);fill:#3254FE;}
	.st9{clip-path:url(#SVGID_16_);fill:#3254FE;}
</style>
<g>
	<defs>
		<rect id="SVGID_1_" width="65.5" height="65.5"/>
	</defs>
	<clipPath id="SVGID_2_">
		<use xlink:href="#SVGID_1_"  style="overflow:visible;"/>
	</clipPath>
	<g class="st0">
		<defs>
			<rect id="SVGID_3_" width="65.5" height="65.5"/>
		</defs>
		<clipPath id="SVGID_4_">
			<use xlink:href="#SVGID_3_"  style="overflow:visible;"/>
		</clipPath>
		<path class="st1" d="M64.8,32.8c0-17.7-14.3-32-32-32C22,0.8,12.5,6.1,6.7,14.2l56.1,29.6C64,40.4,64.8,36.7,64.8,32.8"/>
		<g class="st2">
			<g>
				<defs>
					<rect id="SVGID_5_" x="6.7" y="0.8" width="58.1" height="33"/>
				</defs>
				<clipPath id="SVGID_6_">
					<use xlink:href="#SVGID_5_"  style="overflow:visible;"/>
				</clipPath>
				<path class="st3" d="M64.7,33.7c0-0.3,0-0.6,0-1c0-17.7-14.3-32-32-32C22,0.8,12.5,6.1,6.7,14.2l6.2,3.3
					c5.6-4.8,12.9-7.8,20.9-7.8C48.6,9.8,61.2,19.9,64.7,33.7"/>
			</g>
		</g>
		<path class="st4" d="M62.8,44.6c-0.1,0-0.2,0-0.4-0.1L6.3,14.9c-0.2-0.1-0.3-0.3-0.4-0.5c-0.1-0.2,0-0.4,0.1-0.6
			C12.2,5.2,22.2,0,32.7,0c18.1,0,32.7,14.7,32.7,32.8c0,3.9-0.7,7.8-2,11.4c-0.1,0.2-0.2,0.4-0.4,0.4
			C62.9,44.6,62.8,44.6,62.8,44.6 M7.8,14l54.6,28.8c1.1-3.2,1.7-6.6,1.7-10.1C64,15.5,50,1.5,32.7,1.5C22.9,1.5,13.7,6.2,7.8,14"/>
		<path class="st1" d="M32.8,64.8c13.8,0,25.5-8.7,30-20.9L16,60C20.9,63,26.6,64.8,32.8,64.8"/>
		<g class="st2">
			<g>
				<defs>
					<rect id="SVGID_7_" x="16" y="43.9" width="46.7" height="20.9"/>
				</defs>
				<clipPath id="SVGID_8_">
					<use xlink:href="#SVGID_7_"  style="overflow:visible;"/>
				</clipPath>
				<path class="st5" d="M35.4,58.5c-3.5,0-7-0.6-10.1-1.7L16,60c4.9,3,10.6,4.7,16.7,4.7c13.8,0,25.5-8.7,30-20.9l-0.6,0.2
					C56.4,52.8,46.6,58.5,35.4,58.5"/>
			</g>
		</g>
		<path class="st4" d="M32.7,65.5c-6,0-12-1.7-17.1-4.8c-0.2-0.2-0.4-0.4-0.4-0.7c0-0.3,0.2-0.5,0.5-0.6l46.7-16.2
			c0.3-0.1,0.6,0,0.8,0.2c0.2,0.2,0.3,0.5,0.2,0.8C58.7,56.9,46.4,65.5,32.7,65.5 M17.8,60.2c4.6,2.5,9.7,3.8,14.9,3.8
			c12.5,0,23.8-7.5,28.7-18.9L17.8,60.2z"/>
		<path class="st1" d="M6.7,14.2c-3.7,5.2-5.9,11.6-5.9,18.5C0.8,44.3,6.9,54.4,16,60l46.7-16.2v0L6.7,14.2z"/>
		<g class="st2">
			<g>
				<defs>
					<rect id="SVGID_9_" x="4.4" y="14.2" width="58.3" height="45.8"/>
				</defs>
				<clipPath id="SVGID_10_">
					<use xlink:href="#SVGID_9_"  style="overflow:visible;"/>
				</clipPath>
				<path class="st6" d="M6.7,14.2c-0.8,1.2-1.6,2.4-2.2,3.6l46.3,24.5c0.4,0.2,0.3,0.8-0.1,0.9c-6.4,2.2-39,13.5-39,13.5
					C13,58,14.5,59.1,16,60l46.7-16.2v0L6.7,14.2z"/>
			</g>
		</g>
		<path class="st4" d="M16,60.8c-0.1,0-0.3,0-0.4-0.1C5.9,54.7,0,44.2,0,32.7c0-6.8,2.1-13.4,6-18.9c0.2-0.3,0.6-0.4,1-0.2
			l56.1,29.6c0.2,0.1,0.4,0.4,0.4,0.7c0,0.2-0.1,0.4-0.2,0.5c-0.1,0.1-0.2,0.1-0.3,0.2L16.3,60.8C16.2,60.8,16.1,60.8,16,60.8
			 M6.9,15.2c-3.5,5.2-5.4,11.2-5.4,17.5c0,10.8,5.5,20.7,14.6,26.5l44.7-15.5L6.9,15.2z"/>
		<path class="st1" d="M27.7,36.7c0,0.7-0.2,1.5-0.7,2.1l-3.4,4.2l-7.8-0.9c-1.7-0.2-3.2,1.2-3,3c0.1,1.3,1.2,2.3,2.5,2.5l8.3,0.9
			c1.3,0.1,2.6-0.4,3.5-1.4l5.6-6.5l6.1,6L35.9,55c-0.4,1.3,0.1,2.8,1.3,3.4c0.5,0.2,1,0.3,1.4,0.3c1.1-0.1,2.1-0.8,2.5-1.9l3.1-9.4
			c0.5-1.4,0.1-3-1-4.1l-5.2-5.2c-0.5-0.5-0.8-1.2-0.9-2l-0.1-1l-9.4,0.5L27.7,36.7z"/>
		<g class="st2">
			<g>
				<defs>
					<rect id="SVGID_11_" x="34.4" y="35.2" width="10" height="23.5"/>
				</defs>
				<clipPath id="SVGID_12_">
					<use xlink:href="#SVGID_11_"  style="overflow:visible;"/>
				</clipPath>
				<path class="st7" d="M43.2,43.4l-5.2-5.2c-0.5-0.5-0.8-1.2-0.9-2l-0.1-1l-2.6,0.1l0.1,1.5c0,0.7,0.4,1.4,0.9,2l6.1,6.1
					c0.5,0.5,0.7,1.3,0.5,2l-3.5,10.6c-0.1,0.5-0.4,0.8-0.7,1.1c0.3,0.1,0.6,0.1,0.9,0.1c1.1-0.1,2.1-0.8,2.5-1.9l3.1-9.4
					C44.6,46,44.2,44.5,43.2,43.4"/>
			</g>
		</g>
		<path class="st4" d="M38.5,59.5c-0.6,0-1.1-0.1-1.6-0.4c-1.5-0.8-2.2-2.6-1.6-4.3l2.6-8l-5.2-5.1l-5.1,5.9c-1,1.2-2.6,1.8-4.1,1.6
			l-8.3-0.9c-1.7-0.2-3.1-1.5-3.2-3.2C11.9,44,12.3,43,13,42.3c0.8-0.7,1.8-1.1,2.8-1l7.4,0.8l3.1-3.8c0.4-0.4,0.5-1,0.5-1.5l-0.1-1
			c0-0.4,0.3-0.8,0.7-0.8l9.4-0.5c0.2,0,0.4,0.1,0.5,0.2c0.1,0.1,0.2,0.3,0.2,0.5l0.1,1c0,0.6,0.3,1.1,0.7,1.5l5.2,5.2
			c1.3,1.3,1.7,3.1,1.2,4.8l-3.1,9.4c-0.5,1.4-1.7,2.3-3.1,2.4C38.6,59.5,38.5,59.5,38.5,59.5 M32.6,39.8c0.2,0,0.4,0.1,0.5,0.2
			l6.1,6c0.2,0.2,0.3,0.5,0.2,0.8l-2.8,8.5c-0.3,1,0.1,2.1,0.9,2.5c0.3,0.2,0.7,0.3,1.1,0.2c0.8,0,1.5-0.6,1.8-1.4l3.1-9.4
			c0.4-1.2,0.1-2.4-0.8-3.3l-5.2-5.2c-0.7-0.7-1-1.5-1.1-2.5l0-0.2l-7.9,0.4l0,0.2v0c0,0.9-0.2,1.8-0.8,2.6l-3.4,4.2
			c-0.2,0.2-0.4,0.3-0.7,0.3l-7.8-0.9c-0.6-0.1-1.2,0.1-1.6,0.5c-0.4,0.4-0.7,1-0.6,1.6c0.1,0.9,0.9,1.7,1.9,1.8l8.3,0.9
			c1.1,0.1,2.1-0.3,2.8-1.1l5.6-6.5C32.2,39.9,32.4,39.9,32.6,39.8C32.6,39.8,32.6,39.8,32.6,39.8"/>
		<path class="st1" d="M52.4,19.4c-0.7-1-2.1-1.3-3.2-0.7l-5.7,3.1c-0.7,0.4-1.5,0.4-2.2,0l-4.7-2.3c-3.2-1.6-7-1.9-10.2-0.3
			c-1.3,0.7-4.5,2.7-6.1,3.8c-0.7,0.4-1.2,1-1.5,1.8l-2.6,6.2c-0.4,1.1,0,2.4,1,3c0.4,0.2,0.8,0.3,1.3,0.3c0.9,0,1.7-0.6,2.1-1.5
			l2.2-5.3c0.2-0.4,0.4-0.7,0.8-0.9l3.4-2.1l0.6,11.1l9.4-0.5l-0.6-10.4l4.4,2c1.2,0.5,2.5,0.5,3.6-0.1l7.2-3.9
			C52.8,22.2,53.2,20.6,52.4,19.4"/>
		<g class="st2">
			<g>
				<defs>
					<rect id="SVGID_13_" x="33.2" y="19.9" width="19.6" height="15.5"/>
				</defs>
				<clipPath id="SVGID_14_">
					<use xlink:href="#SVGID_13_"  style="overflow:visible;"/>
				</clipPath>
				<path class="st8" d="M52.6,19.9l-8.3,4.5c-0.8,0.5-1.8,0.5-2.7,0.1l-4.9-2.3c-1.7-0.8-3.7,0.5-3.6,2.4l0.6,10.7l3.3-0.2
					l-0.6-10.4l4.4,2c1.2,0.5,2.5,0.5,3.6-0.1l7.2-3.9C52.6,22.3,53,21,52.6,19.9"/>
			</g>
		</g>
		<path class="st4" d="M27.6,36.5c-0.2,0-0.4-0.1-0.5-0.2c-0.1-0.1-0.2-0.3-0.2-0.5l-0.5-9.9L24,27.3c-0.2,0.1-0.4,0.3-0.5,0.6
			l-2.2,5.3c-0.4,1.1-1.5,1.9-2.7,2c-0.6,0-1.1-0.1-1.7-0.4c-1.3-0.7-1.9-2.4-1.4-3.9l2.7-6.3c0.4-0.9,1-1.6,1.8-2.1
			c1.7-1.1,4.8-3.1,6.1-3.8c3.1-1.6,7.2-1.5,10.8,0.3l4.7,2.3c0.5,0.2,1.1,0.2,1.6,0l5.7-3.1c1.4-0.8,3.3-0.4,4.2,0.9l0,0
			c0.5,0.7,0.7,1.6,0.5,2.5c-0.2,0.9-0.8,1.6-1.5,2l-7.2,3.9c-1.3,0.7-2.9,0.8-4.3,0.1L37.3,26l0.5,9.2c0,0.4-0.3,0.8-0.7,0.8
			L27.6,36.5C27.7,36.5,27.6,36.5,27.6,36.5 M27,23.8c0.1,0,0.2,0,0.4,0.1c0.2,0.1,0.4,0.4,0.4,0.6l0.6,10.4l7.9-0.4l-0.5-9.7
			c0-0.3,0.1-0.5,0.3-0.7c0.2-0.1,0.5-0.2,0.7-0.1l4.4,2c0.9,0.4,2,0.4,2.9-0.1l7.2-3.9c0.4-0.2,0.7-0.6,0.8-1
			c0.1-0.4,0-0.9-0.2-1.3c-0.5-0.7-1.4-0.9-2.2-0.4l-5.7,3.1c-0.9,0.5-2,0.5-2.9,0.1l-4.7-2.3c-3.2-1.6-6.8-1.7-9.5-0.3
			c-1.3,0.7-4.3,2.6-6,3.8c-0.5,0.3-0.9,0.8-1.2,1.4l-2.6,6.2c-0.3,0.8,0,1.7,0.7,2c0.3,0.1,0.6,0.2,0.9,0.2c0.6,0,1.2-0.4,1.4-1
			l2.3-5.4c0.2-0.5,0.6-1,1.1-1.3l3.4-2.1C26.8,23.9,26.9,23.8,27,23.8"/>
		<path class="st1" d="M31.6,15c2.3-0.1,4-2.1,3.9-4.4c-0.1-2.3-2.1-4-4.4-3.9c-2.3,0.1-4,2.1-3.9,4.4C27.3,13.4,29.3,15.2,31.6,15"
			/>
		<g class="st2">
			<g>
				<defs>
					<rect id="SVGID_15_" x="27.6" y="7.2" width="7.9" height="7.9"/>
				</defs>
				<clipPath id="SVGID_16_">
					<use xlink:href="#SVGID_15_"  style="overflow:visible;"/>
				</clipPath>
				<path class="st9" d="M33.1,7.2c0.2,0.5,0.4,1,0.4,1.5c0.1,2.3-1.6,4.2-3.9,4.4c-0.7,0-1.4-0.1-2-0.4c0.7,1.5,2.2,2.5,4,2.4
					c2.3-0.1,4-2.1,3.9-4.4C35.4,9.1,34.4,7.8,33.1,7.2"/>
			</g>
		</g>
		<path class="st4" d="M31.3,15.8c-2.6,0-4.7-2-4.9-4.6c-0.1-1.3,0.4-2.6,1.2-3.5c0.9-1,2.1-1.5,3.4-1.6c2.7-0.1,5,1.9,5.2,4.6
			c0.1,2.7-1.9,5-4.6,5.2C31.5,15.8,31.4,15.8,31.3,15.8 M31.6,15L31.6,15L31.6,15z M31.3,7.5c-0.1,0-0.1,0-0.2,0
			c-0.9,0-1.7,0.4-2.3,1.1c-0.6,0.7-0.9,1.5-0.9,2.5c0.1,1.9,1.7,3.3,3.6,3.2c1.9-0.1,3.3-1.7,3.2-3.6C34.6,8.9,33.1,7.5,31.3,7.5"
			/>
		<path class="st4" d="M16.7,1.5h-16C0.3,1.5,0,1.2,0,0.8C0,0.3,0.3,0,0.8,0h16c0.4,0,0.8,0.3,0.8,0.8C17.5,1.2,17.2,1.5,16.7,1.5"
			/>
		<path class="st4" d="M9.7,6.5h-7C2.3,6.5,2,6.2,2,5.8C2,5.3,2.3,5,2.8,5h7c0.4,0,0.8,0.3,0.8,0.8C10.5,6.2,10.2,6.5,9.7,6.5"/>
		<path class="st4" d="M4.7,11.5h-4c-0.4,0-0.8-0.3-0.8-0.8C0,10.3,0.3,10,0.8,10h4c0.4,0,0.8,0.3,0.8,0.8
			C5.5,11.2,5.2,11.5,4.7,11.5"/>
		<path class="st4" d="M16.7,65.5h-16c-0.4,0-0.7-0.3-0.7-0.8S0.3,64,0.8,64h16c0.4,0,0.8,0.3,0.8,0.8S17.2,65.5,16.7,65.5"/>
		<path class="st4" d="M9.7,60.5h-7c-0.4,0-0.8-0.3-0.8-0.8S2.3,59,2.8,59h7c0.4,0,0.8,0.3,0.8,0.8S10.2,60.5,9.7,60.5"/>
		<path class="st4" d="M4.7,55.5h-4c-0.4,0-0.8-0.3-0.8-0.8S0.3,54,0.8,54h4c0.4,0,0.8,0.3,0.8,0.8S5.2,55.5,4.7,55.5"/>
		<path class="st4" d="M64.8,1.5h-16c-0.4,0-0.8-0.3-0.8-0.8C48,0.3,48.3,0,48.8,0h16c0.4,0,0.8,0.3,0.8,0.8
			C65.5,1.2,65.2,1.5,64.8,1.5"/>
		<path class="st4" d="M59.7,6.5h-4c-0.4,0-0.8-0.3-0.8-0.8C55,5.3,55.3,5,55.8,5h4c0.4,0,0.8,0.3,0.8,0.8
			C60.5,6.2,60.2,6.5,59.7,6.5"/>
		<path class="st4" d="M64.8,65.5h-16c-0.4,0-0.8-0.3-0.8-0.8s0.3-0.8,0.8-0.8h16c0.4,0,0.8,0.3,0.8,0.8S65.2,65.5,64.8,65.5"/>
		<path class="st4" d="M59.7,60.5h-4c-0.4,0-0.8-0.3-0.8-0.8s0.3-0.8,0.8-0.8h4c0.4,0,0.8,0.3,0.8,0.8S60.2,60.5,59.7,60.5"/>
	</g>
</g>
</svg>
