<?xml version="1.0" encoding="utf-8"?>
<!-- Generator: Adobe Illustrator 22.1.0, SVG Export Plug-In . SVG Version: 6.00 Build 0)  -->
<svg version="1.1" id="Layer_1" xmlns="http://www.w3.org/2000/svg" xmlns:xlink="http://www.w3.org/1999/xlink" x="0px" y="0px"
	 viewBox="0 0 65.5 65.5" style="enable-background:new 0 0 65.5 65.5;" xml:space="preserve">
<style type="text/css">
	.st0{clip-path:url(#SVGID_2_);}
	.st1{clip-path:url(#SVGID_4_);fill:#FFFFFF;}
	.st2{opacity:0.5;clip-path:url(#SVGID_4_);}
	.st3{clip-path:url(#SVGID_6_);fill:#3254FE;}
	.st4{clip-path:url(#SVGID_4_);fill:#012760;}
	.st5{clip-path:url(#SVGID_8_);fill:#3254FE;}
	.st6{clip-path:url(#SVGID_10_);fill:#3254FE;}
	.st7{clip-path:url(#SVGID_12_);fill:#3254FE;}
</style>
<g>
	<defs>
		<rect id="SVGID_1_" width="65.5" height="65.5"/>
	</defs>
	<clipPath id="SVGID_2_">
		<use xlink:href="#SVGID_1_"  style="overflow:visible;"/>
	</clipPath>
	<g class="st0">
		<defs>
			<rect id="SVGID_3_" width="65.5" height="65.5"/>
		</defs>
		<clipPath id="SVGID_4_">
			<use xlink:href="#SVGID_3_"  style="overflow:visible;"/>
		</clipPath>
		<path class="st1" d="M64.8,32.7c0,17.7-14.3,32-32,32s-32-14.3-32-32s14.3-32,32-32S64.8,15.1,64.8,32.7"/>
		<g class="st2">
			<g>
				<defs>
					<rect id="SVGID_5_" x="4.4" y="0.7" width="60.3" height="53.9"/>
				</defs>
				<clipPath id="SVGID_6_">
					<use xlink:href="#SVGID_5_"  style="overflow:visible;"/>
				</clipPath>
				<path class="st3" d="M27.7,7.8c17.7,0,32,14.3,32,32c0,5.4-1.3,10.5-3.7,14.9c5.4-5.7,8.7-13.4,8.7-21.9c0-17.7-14.3-32-32-32
					c-12.3,0-23,6.9-28.3,17.1C10.3,11.6,18.6,7.8,27.7,7.8"/>
			</g>
		</g>
		<path class="st4" d="M32.8,65.5C14.7,65.5,0,50.8,0,32.8S14.7,0,32.8,0s32.8,14.7,32.8,32.8S50.8,65.5,32.8,65.5 M32.8,1.5
			c-17.2,0-31.3,14-31.3,31.3C1.5,50,15.5,64,32.8,64C50,64,64,50,64,32.8C64,15.5,50,1.5,32.8,1.5"/>
		<g class="st2">
			<g>
				<defs>
					<rect id="SVGID_7_" x="8.8" y="45.7" width="47.8" height="19.1"/>
				</defs>
				<clipPath id="SVGID_8_">
					<use xlink:href="#SVGID_7_"  style="overflow:visible;"/>
				</clipPath>
				<path class="st5" d="M32.8,64.7c9.5,0,18.1-4.2,23.9-10.7c-0.5-3.4-3.1-6.2-6.6-6.8l-6.7-1.2c-0.4-0.1-0.9-0.2-1.3-0.4H23.3
					c-0.4,0.2-0.8,0.3-1.3,0.4l-6.7,1.2c-3.5,0.6-6.1,3.4-6.6,6.8C14.7,60.6,23.2,64.7,32.8,64.7"/>
			</g>
		</g>
		<path class="st1" d="M34.3,59.8c7.8-1.4,15.2-5,18.6-11.6c-0.9-0.6-1.6-0.8-2.7-1l-6.7-1.2c-0.4-0.1-0.9-0.2-1.3-0.4H23.3
			c-0.4,0.2-0.8,0.3-1.3,0.4l-6.7,1.2c-3.2,0.5-5.6,2.9-6.4,5.9c0.1,0.1,0.2,0.1,0.3,0.2C16.1,58.8,25,61.5,34.3,59.8"/>
		<path class="st4" d="M32.7,65.5c-9.3,0-18.3-4-24.5-11c-0.1-0.2-0.2-0.4-0.2-0.6c0.5-3.8,3.4-6.8,7.2-7.4l6.7-1.2
			c0.4-0.1,0.7-0.2,1.1-0.3c0.1,0,0.2-0.1,0.3-0.1h18.9c0.1,0,0.2,0,0.3,0.1c0.3,0.2,0.7,0.3,1.1,0.3l6.7,1.2
			c3.8,0.7,6.6,3.6,7.2,7.4c0,0.2,0,0.4-0.2,0.6C51,61.5,42.1,65.5,32.7,65.5 M9.6,53.8C15.6,60.3,24,64,32.7,64s17.2-3.7,23.1-10.2
			c-0.6-3-2.9-5.3-5.9-5.8l-6.7-1.1c-0.4-0.1-0.9-0.2-1.3-0.4H23.5c-0.4,0.2-0.8,0.3-1.3,0.4L15.5,48C12.5,48.5,10.2,50.8,9.6,53.8"
			/>
		<path class="st1" d="M27,39.4l-0.7,2.7c-0.4,1.6-1.5,2.9-3,3.6l9.4,5.1l9.4-5.1c-1.5-0.7-2.6-2-3-3.6l-0.7-2.7H27z"/>
		<g class="st2">
			<g>
				<defs>
					<rect id="SVGID_9_" x="33.6" y="39.4" width="8.6" height="9"/>
				</defs>
				<clipPath id="SVGID_10_">
					<use xlink:href="#SVGID_9_"  style="overflow:visible;"/>
				</clipPath>
				<path class="st6" d="M37,48.5l5.2-2.8c-1.5-0.7-2.6-2-3-3.6l-0.7-2.7h-4.9l1.2,4.9C35.3,46.2,37,48.5,37,48.5"/>
			</g>
		</g>
		<path class="st4" d="M32.8,51.5c-0.1,0-0.2,0-0.4-0.1L23,46.3c-0.3-0.1-0.4-0.4-0.4-0.7c0-0.3,0.2-0.5,0.4-0.7
			c1.3-0.6,2.2-1.7,2.6-3.1l0.7-2.7c0.1-0.3,0.4-0.6,0.7-0.6h11.5c0.3,0,0.6,0.2,0.7,0.6l0.7,2.7c0.3,1.4,1.3,2.5,2.6,3.1
			c0.3,0.1,0.4,0.4,0.4,0.7c0,0.3-0.1,0.6-0.4,0.7l-9.4,5.1C33,51.5,32.9,51.5,32.8,51.5 M24.8,45.6l7.9,4.2l7.9-4.2
			c-1.1-0.8-1.9-2-2.2-3.4l-0.5-2.1H27.6l-0.5,2.1C26.7,43.6,25.9,44.8,24.8,45.6"/>
		<path class="st1" d="M44.1,28.5c0,7.7-5.1,13.9-11.4,13.9c-6.3,0-11.4-6.2-11.4-13.9s5.1-11.7,11.4-11.7
			C39,16.7,44.1,20.8,44.1,28.5"/>
		<g class="st2">
			<g>
				<defs>
					<rect id="SVGID_11_" x="29.8" y="16.8" width="14.4" height="25.6"/>
				</defs>
				<clipPath id="SVGID_12_">
					<use xlink:href="#SVGID_11_"  style="overflow:visible;"/>
				</clipPath>
				<path class="st7" d="M32.8,16.8c-1,0-2,0.1-3,0.3c4.8,1.1,8.4,5,8.4,11.4s-3.6,11.8-8.4,13.4c1,0.3,2,0.5,3,0.5
					c6.3,0,11.4-6.2,11.4-13.9S39,16.8,32.8,16.8"/>
			</g>
		</g>
		<path class="st4" d="M32.8,43.1c-6.7,0-12.1-6.6-12.1-14.6C20.6,21,25.5,16,32.8,16s12.1,5,12.1,12.5
			C44.9,36.5,39.4,43.1,32.8,43.1 M32.8,17.5c-6.5,0-10.6,4.3-10.6,11c0,7.2,4.8,13.1,10.6,13.1s10.6-5.9,10.6-13.1
			C43.4,21.8,39.2,17.5,32.8,17.5"/>
		<path class="st1" d="M5.8,7.8c0,1.1-0.9,2-2,2c-1.1,0-2-0.9-2-2c0-1.1,0.9-2,2-2C4.9,5.8,5.8,6.6,5.8,7.8"/>
		<path class="st4" d="M3.8,10.5C2.2,10.5,1,9.3,1,7.8C1,6.2,2.2,5,3.8,5s2.8,1.2,2.8,2.8C6.5,9.3,5.3,10.5,3.8,10.5 M3.8,6.5
			c-0.7,0-1.3,0.6-1.3,1.3C2.5,8.4,3.1,9,3.8,9S5,8.4,5,7.8C5,7.1,4.4,6.5,3.8,6.5"/>
		<path class="st1" d="M57.7,2.7c0,1.1-0.9,2-2,2c-1.1,0-2-0.9-2-2c0-1.1,0.9-2,2-2C56.9,0.7,57.7,1.6,57.7,2.7"/>
		<path class="st4" d="M55.7,5.5c-1.5,0-2.8-1.2-2.8-2.8C53,1.2,54.2,0,55.7,0c1.5,0,2.8,1.2,2.8,2.8C58.5,4.3,57.3,5.5,55.7,5.5
			 M55.7,1.5c-0.7,0-1.3,0.6-1.3,1.3c0,0.7,0.6,1.3,1.3,1.3C56.4,4,57,3.4,57,2.8C57,2.1,56.4,1.5,55.7,1.5"/>
		<path class="st1" d="M64.8,7.8c0,1.1-0.9,2-2,2c-1.1,0-2-0.9-2-2c0-1.1,0.9-2,2-2C63.9,5.8,64.8,6.6,64.8,7.8"/>
		<path class="st4" d="M62.8,10.5c-1.5,0-2.8-1.2-2.8-2.8C60,6.2,61.2,5,62.8,5c1.5,0,2.8,1.2,2.8,2.8C65.5,9.3,64.3,10.5,62.8,10.5
			 M62.8,6.5c-0.7,0-1.3,0.6-1.3,1.3c0,0.7,0.6,1.3,1.3,1.3C63.4,9,64,8.4,64,7.8C64,7.1,63.4,6.5,62.8,6.5"/>
		<path class="st1" d="M4.8,56.7c0,1.1-0.9,2-2,2c-1.1,0-2-0.9-2-2s0.9-2,2-2C3.9,54.7,4.8,55.6,4.8,56.7"/>
		<path class="st4" d="M2.8,59.5c-1.5,0-2.8-1.2-2.8-2.8S1.2,54,2.8,54s2.8,1.2,2.8,2.8S4.3,59.5,2.8,59.5 M2.8,55.5
			c-0.7,0-1.3,0.6-1.3,1.3S2.1,58,2.8,58S4,57.4,4,56.7S3.4,55.5,2.8,55.5"/>
		<path class="st1" d="M12.8,62.7c0,1.1-0.9,2-2,2c-1.1,0-2-0.9-2-2c0-1.1,0.9-2,2-2C11.9,60.7,12.8,61.6,12.8,62.7"/>
		<path class="st4" d="M10.8,65.5c-1.5,0-2.8-1.2-2.8-2.8S9.2,60,10.8,60s2.8,1.2,2.8,2.8S12.3,65.5,10.8,65.5 M10.8,61.5
			c-0.7,0-1.3,0.6-1.3,1.3s0.6,1.3,1.3,1.3c0.7,0,1.3-0.6,1.3-1.3S11.4,61.5,10.8,61.5"/>
		<path class="st1" d="M63.8,57.7c0,1.1-0.9,2-2,2c-1.1,0-2-0.9-2-2c0-1.1,0.9-2,2-2C62.9,55.7,63.8,56.6,63.8,57.7"/>
		<path class="st4" d="M61.8,60.5c-1.5,0-2.8-1.2-2.8-2.8s1.2-2.8,2.8-2.8c1.5,0,2.8,1.2,2.8,2.8S63.3,60.5,61.8,60.5 M61.8,56.5
			c-0.7,0-1.3,0.6-1.3,1.3s0.6,1.3,1.3,1.3c0.7,0,1.3-0.6,1.3-1.3S62.4,56.5,61.8,56.5"/>
		<polygon class="st1" points="23.3,45.7 25.4,53.7 32.8,50.7 		"/>
		<path class="st4" d="M25.4,54.5c-0.1,0-0.2,0-0.3-0.1c-0.2-0.1-0.3-0.3-0.4-0.5l-2-8.1c-0.1-0.3,0-0.6,0.3-0.8
			c0.2-0.2,0.6-0.2,0.8-0.1l9.4,5.1c0.3,0.1,0.4,0.4,0.4,0.7c0,0.3-0.2,0.5-0.5,0.7l-7.4,3C25.5,54.5,25.5,54.5,25.4,54.5
			 M24.5,47.1l1.4,5.6l5.1-2.1L24.5,47.1z"/>
		<polygon class="st1" points="42.2,45.7 40.2,53.7 32.8,50.7 		"/>
		<path class="st4" d="M40.2,54.5c-0.1,0-0.2,0-0.3-0.1l-7.4-3c-0.3-0.1-0.5-0.4-0.5-0.7c0-0.3,0.1-0.6,0.4-0.7l9.4-5.1
			c0.3-0.1,0.6-0.1,0.8,0.1c0.2,0.2,0.3,0.5,0.3,0.8l-2,8.1c-0.1,0.2-0.2,0.4-0.4,0.5C40.4,54.5,40.3,54.5,40.2,54.5 M34.5,50.7
			l5.1,2.1l1.4-5.6L34.5,50.7z"/>
		<path class="st1" d="M32.8,13.5c-6.6,0-12,5.4-12,12h24C44.8,18.9,39.4,13.5,32.8,13.5"/>
		<path class="st4" d="M44.7,26.3h-24c-0.4,0-0.8-0.3-0.8-0.8c0-7,5.7-12.8,12.8-12.8s12.8,5.7,12.8,12.8
			C45.5,25.9,45.2,26.3,44.7,26.3 M21.5,24.8H44c-0.4-5.9-5.3-10.5-11.2-10.5S21.9,18.9,21.5,24.8"/>
		<polygon class="st1" points="34.5,25.5 31,25.5 29.8,12.5 35.8,12.5 		"/>
		<path class="st4" d="M34.5,26.3H31c-0.4,0-0.7-0.3-0.7-0.7l-1.2-13c0-0.2,0-0.4,0.2-0.6c0.1-0.2,0.3-0.2,0.6-0.2h6
			c0.2,0,0.4,0.1,0.6,0.2c0.1,0.2,0.2,0.4,0.2,0.6l-1.2,13C35.2,26,34.9,26.3,34.5,26.3 M31.7,24.8h2.1l1.1-11.5h-4.3L31.7,24.8z"/>
		<path class="st4" d="M45.8,26.3h-26c-0.4,0-0.8-0.3-0.8-0.8c0-0.4,0.3-0.8,0.8-0.8h26c0.4,0,0.8,0.3,0.8,0.8
			C46.5,25.9,46.2,26.3,45.8,26.3"/>
		<polygon class="st1" points="29,52.3 32.8,50.7 36.5,52.3 34.8,56.3 30.8,56.3 		"/>
		<path class="st4" d="M34.8,57h-4c-0.3,0-0.6-0.2-0.7-0.4l-1.8-4c-0.1-0.2-0.1-0.4,0-0.6c0.1-0.2,0.2-0.3,0.4-0.4l3.8-1.5
			c0.2-0.1,0.4-0.1,0.6,0l3.8,1.5c0.2,0.1,0.3,0.2,0.4,0.4s0.1,0.4,0,0.6l-1.8,4C35.3,56.9,35,57,34.8,57 M31.2,55.5h3l1.3-2.8
			l-2.8-1.1L30,52.7L31.2,55.5z"/>
		<path class="st1" d="M30.8,56.3l-1.5,8.3c1.2,0.1,2.3,0.2,3.5,0.2c1.2,0,2.4-0.1,3.5-0.2l-1.5-8.3H30.8z"/>
		<path class="st4" d="M32.7,65.5c-1.2,0-2.4-0.1-3.6-0.2c-0.2,0-0.4-0.1-0.5-0.3c-0.1-0.2-0.2-0.4-0.1-0.6l1.5-8.3
			c0.1-0.4,0.4-0.6,0.7-0.6h4c0.4,0,0.7,0.3,0.7,0.6l1.5,8.3c0,0.2,0,0.4-0.1,0.6c-0.1,0.2-0.3,0.3-0.5,0.3
			C35.1,65.4,33.9,65.5,32.7,65.5 M30.1,63.9c1.8,0.2,3.5,0.2,5.3,0L34.1,57h-2.8L30.1,63.9z"/>
		<path class="st4" d="M50.1,34.5h-1.4c-0.4,0-0.8-0.3-0.8-0.8c0-0.4,0.3-0.8,0.8-0.8h1.4c0.4,0,0.8,0.3,0.8,0.8
			C50.8,34.2,50.5,34.5,50.1,34.5"/>
		<path class="st4" d="M54.7,34.5h-1.4c-0.4,0-0.8-0.3-0.8-0.8c0-0.4,0.3-0.8,0.8-0.8h1.4c0.4,0,0.8,0.3,0.8,0.8
			C55.4,34.2,55.1,34.5,54.7,34.5"/>
		<path class="st4" d="M51.7,37.5c-0.4,0-0.8-0.3-0.8-0.8v-1.4c0-0.4,0.3-0.8,0.8-0.8c0.4,0,0.8,0.3,0.8,0.8v1.4
			C52.4,37.2,52.1,37.5,51.7,37.5"/>
		<path class="st4" d="M51.7,32.9c-0.4,0-0.8-0.3-0.8-0.8v-1.4c0-0.4,0.3-0.8,0.8-0.8c0.4,0,0.8,0.3,0.8,0.8v1.4
			C52.4,32.5,52.1,32.9,51.7,32.9"/>
		<path class="st4" d="M13,40.2h-1.4c-0.4,0-0.8-0.3-0.8-0.8s0.3-0.8,0.8-0.8H13c0.4,0,0.8,0.3,0.8,0.8S13.4,40.2,13,40.2"/>
		<path class="st4" d="M17.6,40.2h-1.4c-0.4,0-0.8-0.3-0.8-0.8s0.3-0.8,0.8-0.8h1.4c0.4,0,0.8,0.3,0.8,0.8S18,40.2,17.6,40.2"/>
		<path class="st4" d="M14.6,43.2c-0.4,0-0.8-0.3-0.8-0.8v-1.4c0-0.4,0.3-0.8,0.8-0.8c0.4,0,0.8,0.3,0.8,0.8v1.4
			C15.3,42.9,15,43.2,14.6,43.2"/>
		<path class="st4" d="M14.6,38.6c-0.4,0-0.8-0.3-0.8-0.8v-1.4c0-0.4,0.3-0.8,0.8-0.8c0.4,0,0.8,0.3,0.8,0.8v1.4
			C15.3,38.2,15,38.6,14.6,38.6"/>
		<path class="st4" d="M9.1,26.3H7.8c-0.4,0-0.8-0.3-0.8-0.8c0-0.4,0.3-0.8,0.8-0.8h1.4c0.4,0,0.8,0.3,0.8,0.8
			C9.9,25.9,9.5,26.3,9.1,26.3"/>
		<path class="st4" d="M13.8,26.3h-1.4c-0.4,0-0.8-0.3-0.8-0.8c0-0.4,0.3-0.8,0.8-0.8h1.4c0.4,0,0.8,0.3,0.8,0.8
			C14.5,25.9,14.2,26.3,13.8,26.3"/>
		<path class="st4" d="M10.8,29.3c-0.4,0-0.8-0.3-0.8-0.8v-1.4c0-0.4,0.3-0.8,0.8-0.8c0.4,0,0.8,0.3,0.8,0.8v1.4
			C11.5,28.9,11.2,29.3,10.8,29.3"/>
		<path class="st4" d="M10.8,24.7c-0.4,0-0.8-0.3-0.8-0.8v-1.4c0-0.4,0.3-0.8,0.8-0.8c0.4,0,0.8,0.3,0.8,0.8v1.4
			C11.5,24.3,11.2,24.7,10.8,24.7"/>
	</g>
</g>
</svg>
