<?xml version="1.0" encoding="utf-8"?>
<!-- Generator: Adobe Illustrator 22.1.0, SVG Export Plug-In . SVG Version: 6.00 Build 0)  -->
<svg version="1.1" id="Layer_1" xmlns="http://www.w3.org/2000/svg" xmlns:xlink="http://www.w3.org/1999/xlink" x="0px" y="0px"
	 viewBox="0 0 65.5 65.5" style="enable-background:new 0 0 65.5 65.5;" xml:space="preserve">
<style type="text/css">
	.st0{clip-path:url(#SVGID_2_);}
	.st1{clip-path:url(#SVGID_4_);fill:#FFFFFF;}
	.st2{opacity:0.5;clip-path:url(#SVGID_4_);}
	.st3{clip-path:url(#SVGID_6_);fill:#3254FE;}
	.st4{clip-path:url(#SVGID_4_);fill:#012760;}
	.st5{clip-path:url(#SVGID_8_);fill:#3254FE;}
	.st6{clip-path:url(#SVGID_10_);fill:#3254FE;}
	.st7{clip-path:url(#SVGID_12_);fill:#3254FE;}
	.st8{clip-path:url(#SVGID_14_);fill:#3254FE;}
</style>
<g>
	<defs>
		<rect id="SVGID_1_" width="65.5" height="65.5"/>
	</defs>
	<clipPath id="SVGID_2_">
		<use xlink:href="#SVGID_1_"  style="overflow:visible;"/>
	</clipPath>
	<g class="st0">
		<defs>
			<rect id="SVGID_3_" y="0" width="65.5" height="65.5"/>
		</defs>
		<clipPath id="SVGID_4_">
			<use xlink:href="#SVGID_3_"  style="overflow:visible;"/>
		</clipPath>
		<path class="st1" d="M64.8,32.8c0,17.7-14.3,32-32,32s-32-14.3-32-32c0-17.7,14.3-32,32-32S64.8,15.1,64.8,32.8"/>
		<g class="st2">
			<g>
				<defs>
					<rect id="SVGID_5_" x="24.5" y="0.8" width="40.3" height="63.9"/>
				</defs>
				<clipPath id="SVGID_6_">
					<use xlink:href="#SVGID_5_"  style="overflow:visible;"/>
				</clipPath>
				<path class="st3" d="M35,0.8c13.7,3.7,23.7,16.1,23.7,30.9c0,17.7-14.3,32-32,32c-0.8,0-1.5,0-2.3-0.1c2.6,0.7,5.4,1.1,8.3,1.1
					c17.7,0,32-14.3,32-32C64.8,15.9,51.6,2,35,0.8"/>
			</g>
		</g>
		<path class="st4" d="M32.8,65.5C14.7,65.5,0,50.8,0,32.8S14.7,0,32.8,0s32.8,14.7,32.8,32.8S50.8,65.5,32.8,65.5 M32.8,1.5
			c-17.2,0-31.3,14-31.3,31.3C1.5,50,15.5,64,32.8,64C50,64,64,50,64,32.8C64,15.5,50,1.5,32.8,1.5"/>
		<path class="st4" d="M42.5,31.2c-0.3,0-0.6-0.2-0.7-0.6c-1-4.2-4.7-7.1-9-7.1c-2.4,0-4.7,0.9-6.5,2.7c-0.3,0.3-0.8,0.3-1.1,0
			c-0.3-0.3-0.3-0.8,0-1.1c2-2,4.7-3.1,7.5-3.1c5,0,9.3,3.4,10.5,8.3c0.1,0.4-0.2,0.8-0.6,0.9C42.6,31.2,42.5,31.2,42.5,31.2"/>
		<path class="st4" d="M17.8,33.5c-0.4,0-0.8-0.3-0.8-0.8C17,24.1,24.1,17,32.8,17c7.3,0,13.6,5,15.3,12.1c0.1,0.4-0.2,0.8-0.6,0.9
			c-0.4,0.1-0.8-0.2-0.9-0.6c-1.5-6.4-7.2-10.9-13.9-10.9c-7.9,0-14.3,6.4-14.3,14.3C18.5,33.2,18.2,33.5,17.8,33.5"/>
		<path class="st4" d="M19.8,41c-0.3,0-0.5-0.1-0.7-0.4c-0.7-1.2-1.2-2.4-1.5-3.7c-0.1-0.4,0.1-0.8,0.5-0.9c0.4-0.1,0.8,0.1,0.9,0.5
			c0.3,1.2,0.8,2.3,1.4,3.3c0.2,0.4,0.1,0.8-0.3,1C20,41,19.9,41,19.8,41"/>
		<path class="st4" d="M55.3,46.5c-0.1,0-0.3,0-0.4-0.1l-3.5-2c-0.4-0.2-0.5-0.7-0.3-1c0.2-0.4,0.7-0.5,1-0.3l2.8,1.6
			c2-3.7,3-7.8,3-12C58,18.8,46.7,7.5,32.8,7.5S7.5,18.8,7.5,32.8c0,4.2,1,8.3,3,12l2.8-1.6c0.4-0.2,0.8-0.1,1,0.3
			c0.2,0.4,0.1,0.8-0.3,1l-3.5,2c-0.1,0-0.1,0.1-0.2,0.1c-0.3,0.1-0.7-0.1-0.8-0.4C7.2,42.1,6,37.5,6,32.8C6,18,18,6,32.8,6
			s26.8,12,26.8,26.8c0,4.7-1.2,9.3-3.6,13.4C55.8,46.4,55.5,46.5,55.3,46.5"/>
		<path class="st4" d="M10.8,33.5h-4c-0.4,0-0.8-0.3-0.8-0.8C6,32.3,6.3,32,6.8,32h4c0.4,0,0.8,0.3,0.8,0.8
			C11.5,33.2,11.2,33.5,10.8,33.5"/>
		<path class="st4" d="M58.8,33.5h-4c-0.4,0-0.8-0.3-0.8-0.8c0-0.4,0.3-0.8,0.8-0.8h4c0.4,0,0.8,0.3,0.8,0.8
			C59.5,33.2,59.2,33.5,58.8,33.5"/>
		<path class="st4" d="M32.8,11.5c-0.4,0-0.8-0.3-0.8-0.8v-4C32,6.3,32.3,6,32.8,6c0.4,0,0.8,0.3,0.8,0.8v4
			C33.5,11.2,33.2,11.5,32.8,11.5"/>
		<path class="st4" d="M51.8,22.5c-0.3,0-0.5-0.1-0.7-0.4c-0.2-0.4-0.1-0.8,0.3-1l3.5-2c0.4-0.2,0.8-0.1,1,0.3
			c0.2,0.4,0.1,0.8-0.3,1l-3.5,2C52.1,22.5,51.9,22.5,51.8,22.5"/>
		<path class="st4" d="M21.8,14.5c-0.3,0-0.5-0.1-0.7-0.4l-2-3.5c-0.2-0.4-0.1-0.8,0.3-1s0.8-0.1,1,0.3l2,3.5c0.2,0.4,0.1,0.8-0.3,1
			C22,14.4,21.9,14.5,21.8,14.5"/>
		<path class="st4" d="M43.7,14.5c-0.1,0-0.3,0-0.4-0.1c-0.4-0.2-0.5-0.7-0.3-1l2-3.5c0.2-0.4,0.7-0.5,1-0.3c0.4,0.2,0.5,0.7,0.3,1
			l-2,3.5C44.3,14.3,44,14.5,43.7,14.5"/>
		<path class="st4" d="M13.7,22.5c-0.1,0-0.3,0-0.4-0.1l-3.5-2c-0.4-0.2-0.5-0.7-0.3-1c0.2-0.4,0.7-0.5,1-0.3l3.5,2
			c0.4,0.2,0.5,0.7,0.3,1C14.2,22.4,14,22.5,13.7,22.5"/>
		<path class="st4" d="M26.3,35c-0.3,0-0.6-0.2-0.7-0.6c-0.1-0.4,0.2-0.8,0.6-0.9l25.5-6.1c0.4-0.1,0.8,0.2,0.9,0.6
			c0.1,0.4-0.2,0.8-0.6,0.9L26.5,35C26.4,35,26.3,35,26.3,35"/>
		<g class="st2">
			<g>
				<defs>
					<rect id="SVGID_7_" x="29.8" y="29.8" width="6" height="6"/>
				</defs>
				<clipPath id="SVGID_8_">
					<use xlink:href="#SVGID_7_"  style="overflow:visible;"/>
				</clipPath>
				<path class="st5" d="M35.8,32.8c0,1.7-1.3,3-3,3c-1.7,0-3-1.3-3-3s1.3-3,3-3C34.4,29.8,35.8,31.1,35.8,32.8"/>
			</g>
		</g>
		<path class="st4" d="M32.8,36.5c-2.1,0-3.8-1.7-3.8-3.8c0-2.1,1.7-3.8,3.8-3.8c2.1,0,3.8,1.7,3.8,3.8
			C36.5,34.8,34.8,36.5,32.8,36.5 M32.8,30.5c-1.2,0-2.3,1-2.3,2.3c0,1.2,1,2.3,2.3,2.3c1.2,0,2.3-1,2.3-2.3
			C35,31.5,34,30.5,32.8,30.5"/>
		<g class="st2">
			<g>
				<defs>
					<rect id="SVGID_9_" x="20.8" y="46.8" width="8" height="8"/>
				</defs>
				<clipPath id="SVGID_10_">
					<use xlink:href="#SVGID_9_"  style="overflow:visible;"/>
				</clipPath>
				<path class="st6" d="M28.8,54.8h-6c-1.1,0-2-0.9-2-2v-4c0-1.1,0.9-2,2-2h6V54.8z"/>
			</g>
		</g>
		<path class="st1" d="M24.8,51.8h-4v-3c0-1.1,0.9-2,2-2h3v4C25.8,51.3,25.3,51.8,24.8,51.8"/>
		<path class="st4" d="M28.8,55.5h-6c-1.5,0-2.8-1.2-2.8-2.8v-4c0-1.5,1.2-2.8,2.8-2.8h6c0.4,0,0.8,0.3,0.8,0.8v8
			C29.5,55.2,29.2,55.5,28.8,55.5 M22.8,47.5c-0.7,0-1.3,0.6-1.3,1.3v4c0,0.7,0.6,1.3,1.3,1.3H28v-6.5H22.8z"/>
		<g class="st2">
			<g>
				<defs>
					<rect id="SVGID_11_" x="36.8" y="46.8" width="8" height="8"/>
				</defs>
				<clipPath id="SVGID_12_">
					<use xlink:href="#SVGID_11_"  style="overflow:visible;"/>
				</clipPath>
				<path class="st7" d="M42.8,54.8h-6v-8h6c1.1,0,2,0.9,2,2v4C44.8,53.9,43.9,54.8,42.8,54.8"/>
			</g>
		</g>
		<path class="st1" d="M40.8,51.8h-4v-5h5v4C41.8,51.3,41.3,51.8,40.8,51.8"/>
		<path class="st4" d="M42.8,55.5h-6c-0.4,0-0.8-0.3-0.8-0.8v-8c0-0.4,0.3-0.8,0.8-0.8h6c1.5,0,2.8,1.2,2.8,2.8v4
			C45.5,54.3,44.3,55.5,42.8,55.5 M37.5,54h5.3c0.7,0,1.3-0.6,1.3-1.3v-4c0-0.7-0.6-1.3-1.3-1.3h-5.3V54z"/>
		<g class="st2">
			<g>
				<defs>
					<rect id="SVGID_13_" x="28.8" y="46.8" width="8" height="8"/>
				</defs>
				<clipPath id="SVGID_14_">
					<use xlink:href="#SVGID_13_"  style="overflow:visible;"/>
				</clipPath>
				<rect x="28.8" y="46.8" class="st8" width="8" height="8"/>
			</g>
		</g>
		<path class="st1" d="M32.8,51.8h-4v-5h5v4C33.8,51.3,33.3,51.8,32.8,51.8"/>
		<polygon class="st4" points="25.5,52.8 24.5,52.8 24.5,49.7 23.5,49.9 23.5,49.2 25.4,48.5 25.5,48.5 		"/>
		<path class="st4" d="M34.3,52.8h-3v-0.6l1.4-1.4c0.3-0.4,0.5-0.7,0.5-0.9c0-0.2,0-0.3-0.1-0.4c-0.1-0.1-0.2-0.1-0.3-0.1
			c-0.2,0-0.3,0.1-0.4,0.2c-0.1,0.1-0.1,0.3-0.1,0.5h-1c0-0.3,0.1-0.5,0.2-0.7c0.1-0.2,0.3-0.4,0.5-0.5c0.2-0.1,0.5-0.2,0.8-0.2
			c0.5,0,0.8,0.1,1.1,0.3c0.2,0.2,0.4,0.5,0.4,0.9c0,0.2,0,0.3-0.1,0.5c-0.1,0.2-0.2,0.3-0.3,0.5s-0.3,0.4-0.6,0.7L32.6,52h1.7V52.8
			z"/>
		<path class="st4" d="M42.2,51.1c0,0.6-0.1,1-0.4,1.3c-0.3,0.3-0.6,0.5-1.1,0.5c-0.5,0-0.8-0.2-1.1-0.5c-0.3-0.3-0.4-0.8-0.4-1.3
			v-0.8c0-0.6,0.1-1,0.4-1.3c0.3-0.3,0.6-0.5,1.1-0.5s0.8,0.2,1.1,0.5c0.3,0.3,0.4,0.8,0.4,1.3V51.1z M41.2,50.2
			c0-0.3,0-0.5-0.1-0.7c-0.1-0.2-0.2-0.2-0.4-0.2c-0.2,0-0.3,0.1-0.4,0.2c-0.1,0.1-0.1,0.4-0.1,0.6v1.1c0,0.3,0,0.6,0.1,0.7
			c0.1,0.1,0.2,0.2,0.4,0.2c0.2,0,0.3-0.1,0.4-0.2c0.1-0.1,0.1-0.4,0.1-0.7V50.2z"/>
		<path class="st4" d="M36.8,55.5h-8c-0.4,0-0.8-0.3-0.8-0.8v-8c0-0.4,0.3-0.8,0.8-0.8h8c0.4,0,0.8,0.3,0.8,0.8v8
			C37.5,55.2,37.2,55.5,36.8,55.5 M29.5,54H36v-6.5h-6.5V54z"/>
		<path class="st4" d="M11.8,4.5c-0.2,0-0.4-0.1-0.5-0.2l-3-3C7.9,1,7.9,0.5,8.2,0.2c0.3-0.3,0.8-0.3,1.1,0l3,3
			c0.3,0.3,0.3,0.8,0,1.1C12.1,4.4,11.9,4.5,11.8,4.5"/>
		<path class="st4" d="M8.8,4.5c-0.2,0-0.4-0.1-0.5-0.2C7.9,4,7.9,3.5,8.2,3.2l3-3c0.3-0.3,0.8-0.3,1.1,0s0.3,0.8,0,1.1l-3,3
			C9.1,4.4,8.9,4.5,8.8,4.5"/>
		<path class="st4" d="M64.8,9.5c-0.2,0-0.4-0.1-0.5-0.2l-3-3c-0.3-0.3-0.3-0.8,0-1.1s0.8-0.3,1.1,0l3,3c0.3,0.3,0.3,0.8,0,1.1
			C65.1,9.4,64.9,9.5,64.8,9.5"/>
		<path class="st4" d="M61.8,9.5c-0.2,0-0.4-0.1-0.5-0.2c-0.3-0.3-0.3-0.8,0-1.1l3-3c0.3-0.3,0.8-0.3,1.1,0s0.3,0.8,0,1.1l-3,3
			C62.1,9.4,61.9,9.5,61.8,9.5"/>
		<path class="st4" d="M64.8,57.5c-0.2,0-0.4-0.1-0.5-0.2l-3-3c-0.3-0.3-0.3-0.8,0-1.1c0.3-0.3,0.8-0.3,1.1,0l3,3
			c0.3,0.3,0.3,0.8,0,1.1C65.1,57.4,64.9,57.5,64.8,57.5"/>
		<path class="st4" d="M61.8,57.5c-0.2,0-0.4-0.1-0.5-0.2c-0.3-0.3-0.3-0.8,0-1.1l3-3c0.3-0.3,0.8-0.3,1.1,0c0.3,0.3,0.3,0.8,0,1.1
			l-3,3C62.1,57.4,61.9,57.5,61.8,57.5"/>
		<path class="st4" d="M56.7,65.5c-0.2,0-0.4-0.1-0.5-0.2l-3-3c-0.3-0.3-0.3-0.8,0-1.1s0.8-0.3,1.1,0l3,3c0.3,0.3,0.3,0.8,0,1.1
			C57.1,65.4,56.9,65.5,56.7,65.5"/>
		<path class="st4" d="M53.7,65.5c-0.2,0-0.4-0.1-0.5-0.2c-0.3-0.3-0.3-0.8,0-1.1l3-3c0.3-0.3,0.8-0.3,1.1,0s0.3,0.8,0,1.1l-3,3
			C54.1,65.4,53.9,65.5,53.7,65.5"/>
		<path class="st4" d="M3.8,10.5c-0.2,0-0.4-0.1-0.5-0.2l-3-3c-0.3-0.3-0.3-0.8,0-1.1s0.8-0.3,1.1,0l3,3c0.3,0.3,0.3,0.8,0,1.1
			C4.1,10.4,3.9,10.5,3.8,10.5"/>
		<path class="st4" d="M0.8,10.5c-0.2,0-0.4-0.1-0.5-0.2c-0.3-0.3-0.3-0.8,0-1.1l3-3c0.3-0.3,0.8-0.3,1.1,0c0.3,0.3,0.3,0.8,0,1.1
			l-3,3C1.1,10.4,0.9,10.5,0.8,10.5"/>
		<path class="st4" d="M11.8,65.5c-0.2,0-0.4-0.1-0.5-0.2l-3-3c-0.3-0.3-0.3-0.8,0-1.1c0.3-0.3,0.8-0.3,1.1,0l3,3
			c0.3,0.3,0.3,0.8,0,1.1C12.1,65.4,11.9,65.5,11.8,65.5"/>
		<path class="st4" d="M8.8,65.5c-0.2,0-0.4-0.1-0.5-0.2c-0.3-0.3-0.3-0.8,0-1.1l3-3c0.3-0.3,0.8-0.3,1.1,0s0.3,0.8,0,1.1l-3,3
			C9.1,65.4,8.9,65.5,8.8,65.5"/>
	</g>
</g>
</svg>
