<?xml version="1.0" encoding="utf-8"?>
<!-- Generator: Adobe Illustrator 22.1.0, SVG Export Plug-In . SVG Version: 6.00 Build 0)  -->
<svg version="1.1" id="Layer_1" xmlns="http://www.w3.org/2000/svg" xmlns:xlink="http://www.w3.org/1999/xlink" x="0px" y="0px"
	 viewBox="0 0 65.5 65.5" style="enable-background:new 0 0 65.5 65.5;" xml:space="preserve">
<style type="text/css">
	.st0{clip-path:url(#SVGID_2_);}
	.st1{opacity:0.5;clip-path:url(#SVGID_4_);}
	.st2{clip-path:url(#SVGID_6_);fill:#3254FE;}
	.st3{clip-path:url(#SVGID_4_);fill:#FFFFFF;}
	.st4{clip-path:url(#SVGID_4_);fill:#012760;}
	.st5{clip-path:url(#SVGID_8_);fill:#3254FE;}
	.st6{clip-path:url(#SVGID_10_);fill:#3254FE;}
	.st7{clip-path:url(#SVGID_12_);fill:#3254FE;}
	.st8{clip-path:url(#SVGID_14_);fill:#3254FE;}
	.st9{clip-path:url(#SVGID_16_);fill:#3254FE;}
</style>
<g>
	<defs>
		<rect id="SVGID_1_" width="65.5" height="65.5"/>
	</defs>
	<clipPath id="SVGID_2_">
		<use xlink:href="#SVGID_1_"  style="overflow:visible;"/>
	</clipPath>
	<g class="st0">
		<defs>
			<rect id="SVGID_3_" y="0" width="65.5" height="65.5"/>
		</defs>
		<clipPath id="SVGID_4_">
			<use xlink:href="#SVGID_3_"  style="overflow:visible;"/>
		</clipPath>
		<g class="st1">
			<g>
				<defs>
					<rect id="SVGID_5_" x="8.8" y="13.8" width="56" height="51"/>
				</defs>
				<clipPath id="SVGID_6_">
					<use xlink:href="#SVGID_5_"  style="overflow:visible;"/>
				</clipPath>
				<path class="st2" d="M62.8,64.8h-54l2-2v-49h49c2.8,0,5,2.2,5,5v44C64.8,63.9,63.9,64.8,62.8,64.8"/>
			</g>
		</g>
		<path class="st3" d="M57.8,59.8h-47v-46h44c2.8,0,5,2.2,5,5v39C59.8,58.9,58.9,59.8,57.8,59.8"/>
		<path class="st4" d="M62.8,65.5h-54c-0.3,0-0.6-0.2-0.7-0.5c-0.1-0.3-0.1-0.6,0.2-0.8L10,64V13.8c0-0.4,0.3-0.8,0.8-0.8h49
			c3.2,0,5.8,2.6,5.8,5.8v44C65.5,64.3,64.3,65.5,62.8,65.5 M10.6,64h52.2c0.7,0,1.3-0.6,1.3-1.3v-44c0-2.3-1.9-4.3-4.3-4.3H11.5
			v48.3c0,0.2-0.1,0.4-0.2,0.5L10.6,64z"/>
		<g class="st1">
			<g>
				<defs>
					<rect id="SVGID_7_" x="5.8" y="13.8" width="59" height="24"/>
				</defs>
				<clipPath id="SVGID_8_">
					<use xlink:href="#SVGID_7_"  style="overflow:visible;"/>
				</clipPath>
				<path class="st5" d="M62.8,37.8h-50c-1.1,0-2-0.9-2-2v-17l-5-5h54c2.8,0,5,2.2,5,5v17C64.8,36.9,63.9,37.8,62.8,37.8"/>
			</g>
		</g>
		<path class="st3" d="M57.8,32.8h-45c-1.1,0-2-0.9-2-2v-12l-5-5h49c2.8,0,5,2.2,5,5v12C59.8,31.9,58.9,32.8,57.8,32.8"/>
		<path class="st4" d="M62.7,38.5h-50c-1.5,0-2.8-1.2-2.8-2.8l0.3-19l-3-2.3c-0.2-0.2-2.4-0.8-2.3-1C5.2,13.2,5.4,13,5.7,13h54
			c3.2,0,5.7,2.6,5.7,5.8v17C65.5,37.3,64.3,38.5,62.7,38.5 M7.6,14.5l3.7,3.7c0.1,0.1,0.2,0.3,0.2,0.5v17c0,0.7,0.6,1.3,1.3,1.3h50
			c0.7,0,1.3-0.6,1.3-1.3v-17c0-2.3-1.9-4.3-4.3-4.3H7.6z"/>
		<g class="st1">
			<g>
				<defs>
					<rect id="SVGID_9_" x="0.8" y="13.8" width="10" height="51"/>
				</defs>
				<clipPath id="SVGID_10_">
					<use xlink:href="#SVGID_9_"  style="overflow:visible;"/>
				</clipPath>
				<path class="st6" d="M8.8,64.8h-6c-1.1,0-2-0.9-2-2v-44c0-2.8,2.2-5,5-5h0c2.8,0,5,2.2,5,5v44C10.8,63.9,9.9,64.8,8.8,64.8"/>
			</g>
		</g>
		<path class="st3" d="M4.8,64.8h-2c-1.1,0-2-0.9-2-2v-45c0-0.6,0.4-1,1-1h2c1.7,0,3,1.3,3,3v43C6.8,63.9,5.9,64.8,4.8,64.8"/>
		<path class="st4" d="M8.8,65.5h-6c-1.5,0-2.8-1.2-2.8-2.8v-44C0,15.6,2.6,13,5.7,13c3.2,0,5.8,2.6,5.8,5.8v44
			C11.5,64.3,10.3,65.5,8.8,65.5 M5.8,14.5c-2.3,0-4.3,1.9-4.3,4.3v44c0,0.7,0.6,1.3,1.3,1.3h6c0.7,0,1.3-0.6,1.3-1.3v-44
			C10,16.4,8.1,14.5,5.8,14.5"/>
		<g class="st1">
			<g>
				<defs>
					<rect id="SVGID_11_" x="20.8" y="0.8" width="28" height="8"/>
				</defs>
				<clipPath id="SVGID_12_">
					<use xlink:href="#SVGID_11_"  style="overflow:visible;"/>
				</clipPath>
				<path class="st7" d="M45.8,0.8h-22c-1.7,0-3,1.3-3,3v5c0-1.7,1.3-3,3-3h22c1.7,0,3,1.3,3,3v-5C48.8,2.1,47.4,0.8,45.8,0.8"/>
			</g>
		</g>
		<path class="st3" d="M36.7,0.8h-13c-1.7,0-3,1.3-3,3v5c0-1.7,1.3-3,3-3h16v-2C39.7,2.1,38.4,0.8,36.7,0.8"/>
		<path class="st4" d="M48.8,9.5c-0.4,0-0.8-0.3-0.8-0.8c0-1.2-1-2.3-2.3-2.3h-22c-1.2,0-2.3,1-2.3,2.3c0,0.4-0.3,0.8-0.8,0.8
			c-0.4,0-0.8-0.3-0.8-0.8v-5C20,1.7,21.7,0,23.8,0h22c2.1,0,3.8,1.7,3.8,3.8v5C49.5,9.2,49.2,9.5,48.8,9.5 M23.8,5h22
			c0.8,0,1.6,0.3,2.3,0.8v-2c0-1.2-1-2.3-2.3-2.3h-22c-1.2,0-2.3,1-2.3,2.3v2C22.1,5.3,22.9,5,23.8,5"/>
		<path class="st4" d="M48.8,14.5h-28c-0.4,0-0.8-0.3-0.8-0.8v-5C20,6.7,21.7,5,23.8,5h22c2.1,0,3.8,1.7,3.8,3.8v5
			C49.5,14.2,49.2,14.5,48.8,14.5 M21.5,13H48V8.8c0-1.2-1-2.3-2.3-2.3h-22c-1.2,0-2.3,1-2.3,2.3V13z"/>
		<g class="st1">
			<g>
				<defs>
					<rect id="SVGID_13_" x="20.7" y="32.8" width="10" height="11"/>
				</defs>
				<clipPath id="SVGID_14_">
					<use xlink:href="#SVGID_13_"  style="overflow:visible;"/>
				</clipPath>
				<path class="st8" d="M25.7,43.8L25.7,43.8c-2.8,0-5-2.2-5-5v-4c0-1.1,0.9-2,2-2h6c1.1,0,2,0.9,2,2v4
					C30.7,41.5,28.5,43.8,25.7,43.8"/>
			</g>
		</g>
		<path class="st3" d="M25.7,39.8h-4c-0.6,0-1-0.4-1-1v-4c0-1.1,0.9-2,2-2h5v5C27.7,38.9,26.9,39.8,25.7,39.8"/>
		<path class="st4" d="M25.7,44.5c-3.2,0-5.8-2.6-5.8-5.8v-4c0-1.5,1.2-2.8,2.8-2.8h6c1.5,0,2.8,1.2,2.8,2.8v4
			C31.5,41.9,28.9,44.5,25.7,44.5 M22.7,33.5c-0.7,0-1.3,0.6-1.3,1.3v4c0,2.3,1.9,4.3,4.3,4.3s4.3-1.9,4.3-4.3v-4
			c0-0.7-0.6-1.3-1.3-1.3H22.7z"/>
		<path class="st4" d="M26.7,37.8c0-0.6-0.4-1-1-1c-0.6,0-1,0.4-1,1s0.4,1,1,1C26.3,38.8,26.7,38.3,26.7,37.8"/>
		<g class="st1">
			<g>
				<defs>
					<rect id="SVGID_15_" x="44.8" y="32.8" width="10" height="11"/>
				</defs>
				<clipPath id="SVGID_16_">
					<use xlink:href="#SVGID_15_"  style="overflow:visible;"/>
				</clipPath>
				<path class="st9" d="M49.8,43.8L49.8,43.8c-2.8,0-5-2.2-5-5v-4c0-1.1,0.9-2,2-2h6c1.1,0,2,0.9,2,2v4
					C54.8,41.5,52.5,43.8,49.8,43.8"/>
			</g>
		</g>
		<path class="st3" d="M49.8,39.8h-4c-0.6,0-1-0.4-1-1v-4c0-1.1,0.9-2,2-2h5v5C51.8,38.9,50.9,39.8,49.8,39.8"/>
		<path class="st4" d="M49.8,44.5c-3.2,0-5.8-2.6-5.8-5.8v-4c0-1.5,1.2-2.8,2.8-2.8h6c1.5,0,2.8,1.2,2.8,2.8v4
			C55.5,41.9,52.9,44.5,49.8,44.5 M46.8,33.5c-0.7,0-1.3,0.6-1.3,1.3v4c0,2.3,1.9,4.3,4.3,4.3c2.3,0,4.3-1.9,4.3-4.3v-4
			c0-0.7-0.6-1.3-1.3-1.3H46.8z"/>
		<path class="st4" d="M50.8,37.8c0-0.6-0.4-1-1-1c-0.6,0-1,0.4-1,1s0.4,1,1,1C50.3,38.8,50.8,38.3,50.8,37.8"/>
		<path class="st4" d="M31.5,60.5H18.8c-0.4,0-0.8-0.3-0.8-0.8s0.3-0.8,0.8-0.8h12.8c0.4,0,0.7,0.3,0.7,0.8S32,60.5,31.5,60.5"/>
		<path class="st4" d="M37.8,60.5h-2.2c-0.4,0-0.8-0.3-0.8-0.8s0.3-0.8,0.8-0.8h2.2c0.4,0,0.8,0.3,0.8,0.8S38.2,60.5,37.8,60.5"/>
		<path class="st4" d="M45.5,19.5H30.8c-0.4,0-0.8-0.3-0.8-0.8c0-0.4,0.3-0.8,0.8-0.8h14.8c0.4,0,0.8,0.3,0.8,0.8
			C46.3,19.2,46,19.5,45.5,19.5"/>
		<path class="st4" d="M51.8,19.5h-2.2c-0.4,0-0.8-0.3-0.8-0.8c0-0.4,0.3-0.8,0.8-0.8h2.2c0.4,0,0.8,0.3,0.8,0.8
			C52.5,19.2,52.2,19.5,51.8,19.5"/>
		<path class="st4" d="M56.8,4.5c-0.2,0-0.4-0.1-0.5-0.2l-3-3c-0.3-0.3-0.3-0.8,0-1.1s0.8-0.3,1.1,0l3,3c0.3,0.3,0.3,0.8,0,1.1
			C57.1,4.4,56.9,4.5,56.8,4.5"/>
		<path class="st4" d="M53.8,4.5c-0.2,0-0.4-0.1-0.5-0.2c-0.3-0.3-0.3-0.8,0-1.1l3-3c0.3-0.3,0.8-0.3,1.1,0s0.3,0.8,0,1.1l-3,3
			C54.1,4.4,53.9,4.5,53.8,4.5"/>
		<path class="st4" d="M64.8,10.5c-0.2,0-0.4-0.1-0.5-0.2l-3-3c-0.3-0.3-0.3-0.8,0-1.1s0.8-0.3,1.1,0l3,3c0.3,0.3,0.3,0.8,0,1.1
			C65.1,10.4,64.9,10.5,64.8,10.5"/>
		<path class="st4" d="M61.8,10.5c-0.2,0-0.4-0.1-0.5-0.2c-0.3-0.3-0.3-0.8,0-1.1l3-3c0.3-0.3,0.8-0.3,1.1,0s0.3,0.8,0,1.1l-3,3
			C62.1,10.4,61.9,10.5,61.8,10.5"/>
		<path class="st4" d="M6.7,4.5c-0.2,0-0.4-0.1-0.5-0.2l-3-3C2.9,1,2.9,0.5,3.2,0.2s0.8-0.3,1.1,0l3,3c0.3,0.3,0.3,0.8,0,1.1
			C7.1,4.4,6.9,4.5,6.7,4.5"/>
		<path class="st4" d="M3.7,4.5c-0.2,0-0.4-0.1-0.5-0.2C2.9,4,2.9,3.5,3.2,3.2l3-3c0.3-0.3,0.8-0.3,1.1,0c0.3,0.3,0.3,0.8,0,1.1
			l-3,3C4.1,4.4,3.9,4.5,3.7,4.5"/>
		<path class="st4" d="M15.7,10.5c-0.2,0-0.4-0.1-0.5-0.2l-3-3c-0.3-0.3-0.3-0.8,0-1.1c0.3-0.3,0.8-0.3,1.1,0l3,3
			c0.3,0.3,0.3,0.8,0,1.1C16.1,10.4,15.9,10.5,15.7,10.5"/>
		<path class="st4" d="M12.7,10.5c-0.2,0-0.4-0.1-0.5-0.2c-0.3-0.3-0.3-0.8,0-1.1l3-3c0.3-0.3,0.8-0.3,1.1,0c0.3,0.3,0.3,0.8,0,1.1
			l-3,3C13.1,10.4,12.9,10.5,12.7,10.5"/>
	</g>
</g>
</svg>
