<?xml version="1.0" encoding="utf-8"?>
<!-- Generator: Adobe Illustrator 22.1.0, SVG Export Plug-In . SVG Version: 6.00 Build 0)  -->
<svg version="1.1" id="Layer_1" xmlns="http://www.w3.org/2000/svg" xmlns:xlink="http://www.w3.org/1999/xlink" x="0px" y="0px"
	 viewBox="0 0 65.5 65.5" style="enable-background:new 0 0 65.5 65.5;" xml:space="preserve">
<style type="text/css">
	.st0{clip-path:url(#SVGID_2_);}
	.st1{opacity:0.5;clip-path:url(#SVGID_4_);}
	.st2{clip-path:url(#SVGID_6_);fill:#3254FE;}
	.st3{clip-path:url(#SVGID_8_);fill:#3254FE;}
	.st4{clip-path:url(#SVGID_10_);fill:#3254FE;}
	.st5{clip-path:url(#SVGID_12_);fill:#3254FE;}
	.st6{clip-path:url(#SVGID_14_);fill:#3254FE;}
	.st7{clip-path:url(#SVGID_16_);fill:#3254FE;}
	.st8{clip-path:url(#SVGID_18_);fill:#3254FE;}
	.st9{clip-path:url(#SVGID_20_);fill:#3254FE;}
	.st10{clip-path:url(#SVGID_22_);fill:#3254FE;}
	.st11{clip-path:url(#SVGID_4_);fill:#012760;}
	.st12{clip-path:url(#SVGID_24_);fill:#3254FE;}
	.st13{clip-path:url(#SVGID_4_);fill:#FFFFFF;}
	.st14{clip-path:url(#SVGID_26_);fill:#3254FE;}
	.st15{clip-path:url(#SVGID_28_);fill:#3254FE;}
	.st16{clip-path:url(#SVGID_30_);fill:#3254FE;}
</style>
<g>
	<defs>
		<rect id="SVGID_1_" width="65.5" height="65.5"/>
	</defs>
	<clipPath id="SVGID_2_">
		<use xlink:href="#SVGID_1_"  style="overflow:visible;"/>
	</clipPath>
	<g class="st0">
		<defs>
			<rect id="SVGID_3_" y="0" width="65.5" height="65.5"/>
		</defs>
		<clipPath id="SVGID_4_">
			<use xlink:href="#SVGID_3_"  style="overflow:visible;"/>
		</clipPath>
		<g class="st1">
			<g>
				<defs>
					<rect id="SVGID_5_" x="48.3" y="0.8" width="5.4" height="5.4"/>
				</defs>
				<clipPath id="SVGID_6_">
					<use xlink:href="#SVGID_5_"  style="overflow:visible;"/>
				</clipPath>
				<rect x="48.3" y="0.8" class="st2" width="5.5" height="5.5"/>
			</g>
		</g>
		<g class="st1">
			<g>
				<defs>
					<rect id="SVGID_7_" x="22" y="6.5" width="5.4" height="5.4"/>
				</defs>
				<clipPath id="SVGID_8_">
					<use xlink:href="#SVGID_7_"  style="overflow:visible;"/>
				</clipPath>
				<rect x="22" y="6.5" class="st3" width="5.4" height="5.5"/>
			</g>
		</g>
		<g class="st1">
			<g>
				<defs>
					<rect id="SVGID_9_" x="49" y="6.4" width="5.4" height="5.4"/>
				</defs>
				<clipPath id="SVGID_10_">
					<use xlink:href="#SVGID_9_"  style="overflow:visible;"/>
				</clipPath>
				<rect x="49" y="6.4" class="st4" width="5.5" height="5.5"/>
			</g>
		</g>
		<g class="st1">
			<g>
				<defs>
					<rect id="SVGID_11_" x="23.5" y="12" width="5.4" height="5.4"/>
				</defs>
				<clipPath id="SVGID_12_">
					<use xlink:href="#SVGID_11_"  style="overflow:visible;"/>
				</clipPath>
				<rect x="23.5" y="12" class="st5" width="5.4" height="5.5"/>
			</g>
		</g>
		<g class="st1">
			<g>
				<defs>
					<rect id="SVGID_13_" x="48.2" y="11.3" width="5.4" height="5.4"/>
				</defs>
				<clipPath id="SVGID_14_">
					<use xlink:href="#SVGID_13_"  style="overflow:visible;"/>
				</clipPath>
				<rect x="48.2" y="11.3" class="st6" width="5.5" height="5.5"/>
			</g>
		</g>
		<g class="st1">
			<g>
				<defs>
					<rect id="SVGID_15_" x="24" y="18" width="5.4" height="5.4"/>
				</defs>
				<clipPath id="SVGID_16_">
					<use xlink:href="#SVGID_15_"  style="overflow:visible;"/>
				</clipPath>
				<rect x="24" y="18" class="st7" width="5.4" height="5.5"/>
			</g>
		</g>
		<g class="st1">
			<g>
				<defs>
					<rect id="SVGID_17_" x="24.8" y="23.2" width="5.4" height="5.4"/>
				</defs>
				<clipPath id="SVGID_18_">
					<use xlink:href="#SVGID_17_"  style="overflow:visible;"/>
				</clipPath>
				<rect x="24.8" y="23.2" class="st8" width="5.5" height="5.5"/>
			</g>
		</g>
		<g class="st1">
			<g>
				<defs>
					<rect id="SVGID_19_" x="47.5" y="17.6" width="5.4" height="5.4"/>
				</defs>
				<clipPath id="SVGID_20_">
					<use xlink:href="#SVGID_19_"  style="overflow:visible;"/>
				</clipPath>
				<rect x="47.5" y="17.6" class="st9" width="5.5" height="5.5"/>
			</g>
		</g>
		<g class="st1">
			<g>
				<defs>
					<rect id="SVGID_21_" x="48.2" y="22.6" width="5.4" height="5.4"/>
				</defs>
				<clipPath id="SVGID_22_">
					<use xlink:href="#SVGID_21_"  style="overflow:visible;"/>
				</clipPath>
				<rect x="48.2" y="22.6" class="st10" width="5.5" height="5.5"/>
			</g>
		</g>
		<path class="st11" d="M8.8,42.5h-4c-0.4,0-0.8-0.3-0.8-0.8S4.3,41,4.8,41h4c0.4,0,0.8,0.3,0.8,0.8S9.2,42.5,8.8,42.5"/>
		<path class="st11" d="M6.8,44.5c-0.4,0-0.8-0.3-0.8-0.8v-4C6,39.3,6.3,39,6.8,39c0.4,0,0.8,0.3,0.8,0.8v4
			C7.5,44.2,7.2,44.5,6.8,44.5"/>
		<path class="st11" d="M4.8,17.5h-4c-0.4,0-0.8-0.3-0.8-0.8C0,16.3,0.3,16,0.8,16h4c0.4,0,0.8,0.3,0.8,0.8
			C5.5,17.2,5.2,17.5,4.8,17.5"/>
		<path class="st11" d="M2.8,19.5c-0.4,0-0.8-0.3-0.8-0.8v-4C2,14.3,2.3,14,2.8,14s0.8,0.3,0.8,0.8v4C3.5,19.2,3.2,19.5,2.8,19.5"/>
		<path class="st11" d="M62.8,21.5h-4c-0.4,0-0.8-0.3-0.8-0.8c0-0.4,0.3-0.8,0.8-0.8h4c0.4,0,0.8,0.3,0.8,0.8
			C63.5,21.2,63.2,21.5,62.8,21.5"/>
		<path class="st11" d="M60.8,23.5c-0.4,0-0.8-0.3-0.8-0.8v-4c0-0.4,0.3-0.8,0.8-0.8c0.4,0,0.8,0.3,0.8,0.8v4
			C61.5,23.2,61.2,23.5,60.8,23.5"/>
		<path class="st11" d="M44.1,59.3h-4c-0.4,0-0.8-0.3-0.8-0.8s0.3-0.8,0.8-0.8h4c0.4,0,0.8,0.3,0.8,0.8S44.5,59.3,44.1,59.3"/>
		<path class="st11" d="M42.1,61.3c-0.4,0-0.8-0.3-0.8-0.8v-4c0-0.4,0.3-0.8,0.8-0.8c0.4,0,0.8,0.3,0.8,0.8v4
			C42.9,60.9,42.5,61.3,42.1,61.3"/>
		<path class="st11" d="M53,43.1h-4c-0.4,0-0.8-0.3-0.8-0.8s0.3-0.8,0.8-0.8h4c0.4,0,0.8,0.3,0.8,0.8S53.4,43.1,53,43.1"/>
		<path class="st11" d="M51,45.1c-0.4,0-0.8-0.3-0.8-0.8v-4c0-0.4,0.3-0.8,0.8-0.8c0.4,0,0.8,0.3,0.8,0.8v4
			C51.7,44.8,51.4,45.1,51,45.1"/>
		<g class="st1">
			<g>
				<defs>
					<rect id="SVGID_23_" x="0.8" y="28.8" width="64" height="5"/>
				</defs>
				<clipPath id="SVGID_24_">
					<use xlink:href="#SVGID_23_"  style="overflow:visible;"/>
				</clipPath>
				<path class="st12" d="M59.8,33.8h-54c0-2.8-2.2-5-5-5h64C62,28.8,59.8,31,59.8,33.8"/>
			</g>
		</g>
		<path class="st13" d="M51.8,33.8h-46c0-2.8-2.2-5-5-5h56C54,28.8,51.8,31,51.8,33.8"/>
		<path class="st11" d="M59.8,34.5h-54c-0.4,0-0.8-0.3-0.8-0.8c0-2.3-1.9-4.3-4.3-4.3c-0.4,0-0.8-0.3-0.8-0.8C0,28.3,0.3,28,0.8,28
			h64c0.4,0,0.8,0.3,0.8,0.8c0,0.4-0.3,0.8-0.8,0.8c-2.3,0-4.2,1.9-4.2,4.3C60.5,34.2,60.2,34.5,59.8,34.5 M6.5,33H59
			c0.2-1.4,0.9-2.6,1.8-3.5H4.6C5.6,30.4,6.3,31.6,6.5,33"/>
		<path class="st13" d="M19.5,33.8c0,0,0.9,8.1,3.4,9.9c2.6,1.9,9.6-1,13.7-9.9h4.5c-1.5,12.5-21.1,28-21.1,28l-9.4-9.4
			c0,0-0.6-4.6,3.4-9.2c2.4-2.9-0.4-9.4-0.4-9.4H19.5z"/>
		<g class="st1">
			<g>
				<defs>
					<rect id="SVGID_25_" x="18.7" y="33.8" width="22.4" height="28"/>
				</defs>
				<clipPath id="SVGID_26_">
					<use xlink:href="#SVGID_25_"  style="overflow:visible;"/>
				</clipPath>
				<path class="st14" d="M38.1,33.8c-1.3,10.3-14.7,22.6-19.4,26.7l1.4,1.4c0,0,19.5-15.5,21.1-28H38.1z"/>
			</g>
		</g>
		<g class="st1">
			<g>
				<defs>
					<rect id="SVGID_27_" x="16.5" y="33.8" width="7" height="10.5"/>
				</defs>
				<clipPath id="SVGID_28_">
					<use xlink:href="#SVGID_27_"  style="overflow:visible;"/>
				</clipPath>
				<path class="st15" d="M20,43.7c0.8,0.6,2.1,0.7,3.6,0.3c-0.2-0.1-0.4-0.2-0.6-0.3c-2.6-1.9-3.4-9.9-3.4-9.9h-3
					C16.5,33.8,17.4,41.8,20,43.7"/>
			</g>
		</g>
		<path class="st11" d="M20.1,62.5c-0.2,0-0.4-0.1-0.5-0.2l-9.4-9.4c-0.1-0.1-0.2-0.3-0.2-0.4c0-0.2-0.6-5,3.5-9.8
			c1.7-2.1,0.2-6.9-0.5-8.6c-0.1-0.2-0.1-0.5,0.1-0.7c0.1-0.2,0.4-0.3,0.6-0.3h5.9c0.4,0,0.7,0.3,0.7,0.7c0.2,2.2,1.2,8,3.1,9.4
			c0.6,0.4,1.7,0.5,2.9,0.2c2.9-0.8,6.9-3.7,9.7-9.9c0.1-0.3,0.4-0.4,0.7-0.4h4.5c0.2,0,0.4,0.1,0.6,0.3c0.1,0.2,0.2,0.4,0.2,0.6
			c-1.6,12.7-20.5,27.9-21.3,28.5C20.4,62.5,20.2,62.5,20.1,62.5 M11.4,52l8.7,8.8c3-2.5,18.1-15.5,20.1-26.3h-3.1
			c-3,6.3-7.4,9.4-10.5,10.2c-1.7,0.4-3.1,0.3-4.1-0.4c-2.4-1.7-3.4-7.7-3.7-9.8h-4.2c0.7,2.1,2,6.6-0.1,9.1
			C11.4,47.3,11.3,51.1,11.4,52"/>
		<path class="st13" d="M36.6,33.8h-6c0,0-1.4,5.9-7,10.3C26.7,45,32.9,41.9,36.6,33.8"/>
		<g class="st1">
			<g>
				<defs>
					<rect id="SVGID_29_" x="23.8" y="33.8" width="12.9" height="10.5"/>
				</defs>
				<clipPath id="SVGID_30_">
					<use xlink:href="#SVGID_29_"  style="overflow:visible;"/>
				</clipPath>
				<path class="st16" d="M34.2,33.8c-2.9,6.3-7.3,9.6-10.5,10.3c3,0.9,9.2-2.2,12.9-10.3H34.2z"/>
			</g>
		</g>
		<path class="st11" d="M24.8,45c-0.5,0-1-0.1-1.4-0.2c-0.3-0.1-0.5-0.3-0.5-0.6c0-0.3,0.1-0.5,0.3-0.7c5.3-4.2,6.7-9.8,6.7-9.9
			c0.1-0.3,0.4-0.6,0.7-0.6h6c0.3,0,0.5,0.1,0.6,0.3c0.1,0.2,0.2,0.5,0.1,0.7C33.9,41.6,28.4,45,24.8,45 M31.2,34.5
			c-0.5,1.5-2,5.4-5.7,8.9c2.8-0.3,7-3.2,9.9-8.9H31.2z"/>
		<path class="st11" d="M18.4,65.5c-0.2,0-0.4-0.1-0.5-0.2c-0.3-0.3-0.3-0.8,0-1.1l1.8-1.8L9.4,52.2l-8.1,8.1
			c-0.3,0.3-0.8,0.3-1.1,0c-0.3-0.3-0.3-0.8,0-1.1l8.6-8.6c0.3-0.3,0.8-0.3,1.1,0l11.3,11.3c0.1,0.1,0.2,0.3,0.2,0.5
			c0,0.2-0.1,0.4-0.2,0.5l-2.3,2.3C18.8,65.4,18.6,65.5,18.4,65.5"/>
		<path class="st11" d="M10,65.4c-0.2,0-0.4-0.1-0.5-0.2l-7.1-7.1c-0.3-0.3-0.3-0.8,0-1.1c0.3-0.3,0.8-0.3,1.1,0l7.1,7.1
			c0.3,0.3,0.3,0.8,0,1.1C10.4,65.3,10.2,65.4,10,65.4"/>
		<path class="st11" d="M8.2,57.4c0,0.6,0.4,1,1,1s1-0.4,1-1c0-0.6-0.4-1-1-1S8.2,56.9,8.2,57.4"/>
		<path class="st13" d="M25,23.2H13.5c-0.6,0-1,0.4-1,1v3.6c0,0.6,0.4,1,1,1H25c0.6,0,1-0.4,1-1v-3.6C26,23.6,25.6,23.2,25,23.2"/>
		<path class="st11" d="M29.5,29.5h-16c-1,0-1.8-0.8-1.8-1.8v-3.6c0-1,0.8-1.8,1.8-1.8h16c1,0,1.8,0.8,1.8,1.8v3.6
			C31.3,28.7,30.5,29.5,29.5,29.5 M13.5,23.9c-0.1,0-0.3,0.1-0.3,0.3v3.6c0,0.1,0.1,0.3,0.3,0.3h16c0.1,0,0.3-0.1,0.3-0.3v-3.6
			c0-0.1-0.1-0.3-0.3-0.3H13.5z"/>
		<path class="st11" d="M19,29.5c-0.4,0-0.8-0.3-0.8-0.8v-5.6c0-0.4,0.3-0.8,0.8-0.8c0.4,0,0.8,0.3,0.8,0.8v5.6
			C19.8,29.2,19.4,29.5,19,29.5"/>
		<path class="st11" d="M26,29.5c-0.4,0-0.8-0.3-0.8-0.8v-5.6c0-0.4,0.3-0.8,0.8-0.8c0.4,0,0.8,0.3,0.8,0.8v5.6
			C26.8,29.2,26.4,29.5,26,29.5"/>
		<path class="st13" d="M24.5,17.6h-12c-0.6,0-1,0.4-1,1v3.6c0,0.6,0.4,1,1,1h12c0.6,0,1-0.4,1-1v-3.6C25.5,18,25.1,17.6,24.5,17.6"
			/>
		<path class="st11" d="M28.5,23.9h-16c-1,0-1.8-0.8-1.8-1.8v-3.6c0-1,0.8-1.8,1.8-1.8h16c1,0,1.8,0.8,1.8,1.8v3.6
			C30.3,23.1,29.5,23.9,28.5,23.9 M12.5,18.3c-0.1,0-0.3,0.1-0.3,0.3v3.6c0,0.1,0.1,0.3,0.3,0.3h16c0.1,0,0.3-0.1,0.3-0.3v-3.6
			c0-0.1-0.1-0.3-0.3-0.3H12.5z"/>
		<path class="st11" d="M18,23.9c-0.4,0-0.8-0.3-0.8-0.8v-5.6c0-0.4,0.3-0.8,0.8-0.8c0.4,0,0.8,0.3,0.8,0.8v5.6
			C18.8,23.6,18.4,23.9,18,23.9"/>
		<path class="st11" d="M25,23.9c-0.4,0-0.8-0.3-0.8-0.8v-5.6c0-0.4,0.3-0.8,0.8-0.8c0.4,0,0.8,0.3,0.8,0.8v5.6
			C25.8,23.6,25.4,23.9,25,23.9"/>
		<path class="st13" d="M23,12H12.5c-0.6,0-1,0.4-1,1v3.6c0,0.6,0.4,1,1,1H23c0.6,0,1-0.4,1-1V13C24,12.4,23.6,12,23,12"/>
		<path class="st11" d="M28.5,18.3h-16c-1,0-1.8-0.8-1.8-1.8V13c0-1,0.8-1.8,1.8-1.8h16c1,0,1.8,0.8,1.8,1.8v3.6
			C30.3,17.5,29.5,18.3,28.5,18.3 M12.5,12.7c-0.1,0-0.3,0.1-0.3,0.3v3.6c0,0.1,0.1,0.3,0.3,0.3h16c0.1,0,0.3-0.1,0.3-0.3V13
			c0-0.1-0.1-0.3-0.3-0.3H12.5z"/>
		<path class="st11" d="M17,18.3c-0.4,0-0.8-0.3-0.8-0.8V12c0-0.4,0.3-0.8,0.8-0.8c0.4,0,0.8,0.3,0.8,0.8v5.6
			C17.8,18,17.4,18.3,17,18.3"/>
		<path class="st11" d="M24,18.3c-0.4,0-0.8-0.3-0.8-0.8V12c0-0.4,0.3-0.8,0.8-0.8c0.4,0,0.8,0.3,0.8,0.8v5.6
			C24.8,18,24.4,18.3,24,18.3"/>
		<path class="st13" d="M45.8,23.2H37c-0.6,0-1,0.4-1,1v3.6c0,0.6,0.4,1,1,1h8.8c0.6,0,1-0.4,1-1v-3.6
			C46.8,23.6,46.3,23.2,45.8,23.2"/>
		<path class="st11" d="M53,29.5H37c-1,0-1.8-0.8-1.8-1.8v-3.6c0-1,0.8-1.8,1.8-1.8h16c1,0,1.8,0.8,1.8,1.8v3.6
			C54.8,28.7,54,29.5,53,29.5 M37,23.9c-0.1,0-0.3,0.1-0.3,0.3v3.6c0,0.1,0.1,0.3,0.3,0.3h16c0.1,0,0.3-0.1,0.3-0.3v-3.6
			c0-0.1-0.1-0.3-0.3-0.3H37z"/>
		<path class="st13" d="M47.3,17.5H36c-0.6,0-1,0.4-1,1v3.6c0,0.6,0.4,1,1,1h11.3c0.6,0,1-0.4,1-1v-3.6C48.3,18,47.8,17.5,47.3,17.5
			"/>
		<path class="st11" d="M52,23.9H36c-1,0-1.8-0.8-1.8-1.8v-3.6c0-1,0.8-1.8,1.8-1.8h16c1,0,1.8,0.8,1.8,1.8v3.6
			C53.8,23.1,53,23.9,52,23.9 M36,18.3c-0.1,0-0.3,0.1-0.3,0.3v3.6c0,0.1,0.1,0.3,0.3,0.3h16c0.1,0,0.3-0.1,0.3-0.3v-3.6
			c0-0.1-0.1-0.3-0.3-0.3H36z"/>
		<path class="st13" d="M47.8,12H37c-0.6,0-1,0.4-1,1v3.6c0,0.6,0.4,1,1,1h10.8c0.6,0,1-0.4,1-1V13C48.8,12.4,48.3,12,47.8,12"/>
		<path class="st11" d="M53,18.3H37c-1,0-1.8-0.8-1.8-1.8V13c0-1,0.8-1.8,1.8-1.8h16c1,0,1.8,0.8,1.8,1.8v3.6
			C54.8,17.5,54,18.3,53,18.3 M37,12.7c-0.1,0-0.3,0.1-0.3,0.3v3.6c0,0.1,0.1,0.3,0.3,0.3h16c0.1,0,0.3-0.1,0.3-0.3V13
			c0-0.1-0.1-0.3-0.3-0.3H37z"/>
		<path class="st13" d="M48.3,6.4H38c-0.6,0-1,0.4-1,1v3.6c0,0.6,0.4,1,1,1h10.3c0.6,0,1-0.4,1-1V7.4C49.3,6.8,48.8,6.4,48.3,6.4"/>
		<path class="st11" d="M54,12.7H38c-1,0-1.8-0.8-1.8-1.8V7.3c0-1,0.8-1.8,1.8-1.8h16c1,0,1.8,0.8,1.8,1.8v3.6
			C55.8,11.9,55,12.7,54,12.7 M38,7.1c-0.1,0-0.3,0.1-0.3,0.3v3.6c0,0.1,0.1,0.3,0.3,0.3h16c0.1,0,0.3-0.1,0.3-0.3V7.3
			c0-0.1-0.1-0.3-0.3-0.3H38z"/>
		<path class="st13" d="M46.8,0.8H37c-0.6,0-1,0.4-1,1v3.6c0,0.6,0.4,1,1,1h9.8c0.6,0,1-0.4,1-1V1.8C47.8,1.2,47.3,0.8,46.8,0.8"/>
		<path class="st11" d="M53,7.1H37c-1,0-1.8-0.8-1.8-1.8V1.8C35.3,0.8,36,0,37,0h16c1,0,1.8,0.8,1.8,1.8v3.6C54.8,6.3,54,7.1,53,7.1
			 M37,1.5c-0.1,0-0.3,0.1-0.3,0.3v3.6c0,0.1,0.1,0.3,0.3,0.3h16c0.1,0,0.3-0.1,0.3-0.3V1.8c0-0.1-0.1-0.3-0.3-0.3H37z"/>
		<path class="st11" d="M40.5,29.5c-0.4,0-0.8-0.3-0.8-0.8v-5.6c0-0.4,0.3-0.8,0.8-0.8c0.4,0,0.8,0.3,0.8,0.8v5.6
			C41.3,29.2,40.9,29.5,40.5,29.5"/>
		<path class="st11" d="M47.5,29.5c-0.4,0-0.8-0.3-0.8-0.8v-5.6c0-0.4,0.3-0.8,0.8-0.8c0.4,0,0.8,0.3,0.8,0.8v5.6
			C48.3,29.2,47.9,29.5,47.5,29.5"/>
		<path class="st11" d="M41.5,23.9c-0.4,0-0.8-0.3-0.8-0.8v-5.6c0-0.4,0.3-0.8,0.8-0.8c0.4,0,0.8,0.3,0.8,0.8v5.6
			C42.3,23.6,41.9,23.9,41.5,23.9"/>
		<path class="st11" d="M48.5,23.9c-0.4,0-0.8-0.3-0.8-0.8v-5.6c0-0.4,0.3-0.8,0.8-0.8c0.4,0,0.8,0.3,0.8,0.8v5.6
			C49.3,23.6,48.9,23.9,48.5,23.9"/>
		<path class="st11" d="M41.5,18.3c-0.4,0-0.8-0.3-0.8-0.8v-5.6c0-0.4,0.3-0.8,0.8-0.8c0.4,0,0.8,0.3,0.8,0.8v5.6
			C42.3,18,41.9,18.3,41.5,18.3"/>
		<path class="st11" d="M48.5,18.3c-0.4,0-0.8-0.3-0.8-0.8v-5.6c0-0.4,0.3-0.8,0.8-0.8c0.4,0,0.8,0.3,0.8,0.8v5.6
			C49.3,18,48.9,18.3,48.5,18.3"/>
		<path class="st11" d="M42.5,12.7c-0.4,0-0.8-0.3-0.8-0.8V6.3c0-0.4,0.3-0.8,0.8-0.8c0.4,0,0.8,0.3,0.8,0.8v5.6
			C43.3,12.4,42.9,12.7,42.5,12.7"/>
		<path class="st11" d="M49.5,12.7c-0.4,0-0.8-0.3-0.8-0.8V6.3c0-0.4,0.3-0.8,0.8-0.8c0.4,0,0.8,0.3,0.8,0.8v5.6
			C50.3,12.4,49.9,12.7,49.5,12.7"/>
		<path class="st11" d="M40.5,7.1c-0.4,0-0.8-0.3-0.8-0.8V0.7c0-0.4,0.3-0.8,0.8-0.8c0.4,0,0.8,0.3,0.8,0.8v5.6
			C41.3,6.8,40.9,7.1,40.5,7.1"/>
		<path class="st11" d="M47.5,7.1c-0.4,0-0.8-0.3-0.8-0.8V0.7c0-0.4,0.3-0.8,0.8-0.8c0.4,0,0.8,0.3,0.8,0.8v5.6
			C48.3,6.8,47.9,7.1,47.5,7.1"/>
		<path class="st13" d="M20.5,6.4h-9.6c-0.6,0-1,0.4-1,1v3.6c0,0.6,0.4,1,1,1h9.6c0.6,0,1-0.4,1-1V7.4C21.5,6.8,21.1,6.4,20.5,6.4"
			/>
		<path class="st11" d="M26.9,12.7h-16c-1,0-1.8-0.8-1.8-1.8V7.3c0-1,0.8-1.8,1.8-1.8h16c1,0,1.8,0.8,1.8,1.8v3.6
			C28.6,11.9,27.8,12.7,26.9,12.7 M10.9,7.1c-0.1,0-0.3,0.1-0.3,0.3v3.6c0,0.1,0.1,0.3,0.3,0.3h16c0.1,0,0.3-0.1,0.3-0.3V7.3
			c0-0.1-0.1-0.3-0.3-0.3H10.9z"/>
		<path class="st11" d="M14.4,12.7c-0.4,0-0.8-0.3-0.8-0.8V6.3c0-0.4,0.3-0.8,0.8-0.8c0.4,0,0.8,0.3,0.8,0.8v5.6
			C15.1,12.4,14.8,12.7,14.4,12.7"/>
		<path class="st11" d="M21.4,12.7c-0.4,0-0.8-0.3-0.8-0.8V6.3c0-0.4,0.3-0.8,0.8-0.8c0.4,0,0.8,0.3,0.8,0.8v5.6
			C22.1,12.4,21.8,12.7,21.4,12.7"/>
	</g>
</g>
</svg>
