<?xml version="1.0" encoding="utf-8"?>
<!-- Generator: Adobe Illustrator 22.1.0, SVG Export Plug-In . SVG Version: 6.00 Build 0)  -->
<svg version="1.1" id="Layer_1" xmlns="http://www.w3.org/2000/svg" xmlns:xlink="http://www.w3.org/1999/xlink" x="0px" y="0px"
	 viewBox="0 0 65.5 65.5" style="enable-background:new 0 0 65.5 65.5;" xml:space="preserve">
<style type="text/css">
	.st0{clip-path:url(#SVGID_2_);}
	.st1{opacity:0.5;clip-path:url(#SVGID_4_);}
	.st2{clip-path:url(#SVGID_6_);fill:#3254FE;}
	.st3{clip-path:url(#SVGID_4_);fill:#FFFFFF;}
	.st4{clip-path:url(#SVGID_4_);fill:#012760;}
	.st5{clip-path:url(#SVGID_8_);fill:#3254FE;}
	.st6{clip-path:url(#SVGID_10_);fill:#3254FE;}
	.st7{clip-path:url(#SVGID_12_);fill:#3254FE;}
</style>
<g>
	<defs>
		<rect id="SVGID_1_" width="65.5" height="65.5"/>
	</defs>
	<clipPath id="SVGID_2_">
		<use xlink:href="#SVGID_1_"  style="overflow:visible;"/>
	</clipPath>
	<g class="st0">
		<defs>
			<rect id="SVGID_3_" width="65.5" height="65.5"/>
		</defs>
		<clipPath id="SVGID_4_">
			<use xlink:href="#SVGID_3_"  style="overflow:visible;"/>
		</clipPath>
		<g class="st1">
			<g>
				<defs>
					<rect id="SVGID_5_" x="4.1" y="8.7" width="56" height="56"/>
				</defs>
				<clipPath id="SVGID_6_">
					<use xlink:href="#SVGID_5_"  style="overflow:visible;"/>
				</clipPath>
				<path class="st2" d="M59.5,13.6l-4.2-4.2c-0.9-0.9-2.4-0.9-3.3,0L4.8,56.6c-0.9,0.9-0.9,2.4,0,3.3L9,64.1c0.9,0.9,2.4,0.9,3.3,0
					l47.2-47.2C60.4,16,60.4,14.5,59.5,13.6"/>
			</g>
		</g>
		<path class="st3" d="M56.5,10.6l-1.2-1.2c-0.9-0.9-2.4-0.9-3.3,0L4.8,56.6c-0.9,0.9-0.9,2.4,0,3.3L6,61.1c0.9,0.9,2.4,0.9,3.3,0
			l47.2-47.2C57.4,13,57.4,11.5,56.5,10.6"/>
		<path class="st4" d="M10.6,65.5c-0.8,0-1.6-0.3-2.2-0.9l-4.2-4.2c-1.2-1.2-1.2-3.2,0-4.4L51.5,8.9c1.2-1.2,3.2-1.2,4.4,0L60,13
			c1.2,1.2,1.2,3.2,0,4.4L12.8,64.6C12.2,65.2,11.4,65.5,10.6,65.5 M53.7,9.5c-0.4,0-0.8,0.2-1.1,0.5L5.4,57.1
			c-0.6,0.6-0.6,1.6,0,2.3l4.2,4.2c0.6,0.6,1.6,0.6,2.3,0L59,16.3c0.6-0.6,0.6-1.6,0-2.3l-4.2-4.2C54.5,9.6,54.1,9.5,53.7,9.5"/>
		<g class="st1">
			<g>
				<defs>
					<rect id="SVGID_7_" x="31.3" y="0.7" width="30.1" height="36.8"/>
				</defs>
				<clipPath id="SVGID_8_">
					<use xlink:href="#SVGID_7_"  style="overflow:visible;"/>
				</clipPath>
				<polygon class="st5" points="61.3,22.7 39.3,0.7 31.3,8.8 60.1,37.6 				"/>
			</g>
		</g>
		<path class="st3" d="M58,19.4L39.3,0.7l-5.6,5.6l22.5,22.5c0.3,0.3,0.8,0.1,0.9-0.3L58,19.4z"/>
		<path class="st4" d="M60.1,38.3c-0.2,0-0.4-0.1-0.5-0.2L30.8,9.3c-0.1-0.1-0.2-0.3-0.2-0.5c0-0.2,0.1-0.4,0.2-0.5l8.1-8.1
			c0.3-0.3,0.8-0.3,1.1,0l22,22c0.2,0.2,0.2,0.4,0.2,0.6l-1.3,14.8c0,0.3-0.2,0.5-0.5,0.6C60.3,38.3,60.2,38.3,60.1,38.3 M32.4,8.8
			l27.1,27.1L60.6,23L39.3,1.8L32.4,8.8z"/>
		<g class="st1">
			<g>
				<defs>
					<rect id="SVGID_9_" x="0.7" y="8.5" width="9.3" height="13.2"/>
				</defs>
				<clipPath id="SVGID_10_">
					<use xlink:href="#SVGID_9_"  style="overflow:visible;"/>
				</clipPath>
				<path class="st6" d="M1.4,8.5c-1.5,4.1-0.6,8.8,2.7,12C4.6,21,5,21.4,5.5,21.8l4.6-4.6L1.4,8.5z"/>
			</g>
		</g>
		<path class="st4" d="M5.5,22.5c-0.2,0-0.3,0-0.4-0.1c-0.5-0.4-1-0.8-1.5-1.3c-3.3-3.3-4.5-8.4-2.9-12.8C0.8,8,1,7.9,1.3,7.8
			c0.2-0.1,0.5,0,0.7,0.2l8.7,8.7c0.3,0.3,0.3,0.8,0,1.1L6,22.3C5.9,22.4,5.7,22.5,5.5,22.5 M1.8,10C0.9,13.6,2,17.4,4.6,20
			c0.3,0.3,0.5,0.5,0.8,0.7L9,17.2L1.8,10z"/>
		<path class="st3" d="M63.1,54.8L23.5,15.2l0,0c0.9-3.8-0.1-7.9-3-10.9c-3.3-3.3-8-4.1-12-2.7l8.7,8.7L1.9,25.4
			c3.1,3.1,8.2,3.1,11.3,0l2-2l39.6,39.6c2.3,2.3,5.9,2.3,8.2,0C65.3,60.7,65.3,57,63.1,54.8"/>
		<g class="st1">
			<g>
				<defs>
					<rect id="SVGID_11_" x="1.9" y="18.7" width="62.6" height="45.8"/>
				</defs>
				<clipPath id="SVGID_12_">
					<use xlink:href="#SVGID_11_"  style="overflow:visible;"/>
				</clipPath>
				<path class="st7" d="M56.9,59.9L16,19c-0.4-0.4-1-0.4-1.4,0l-4.3,4.3C8,25.6,4.8,26.2,2,25.3l-0.1,0.1c3.1,3.1,8.2,3.1,11.3,0
					l2-2l39.4,39.4c2.1,2.1,5.6,2.5,8,0.6c1-0.8,1.6-1.8,1.9-2.9C62.2,62.1,59,62,56.9,59.9"/>
			</g>
		</g>
		<path class="st4" d="M59,65.4c-1.7,0-3.3-0.6-4.6-1.9L15.3,24.4l-1.5,1.5c-3.4,3.4-9,3.4-12.4,0c-0.3-0.3-0.3-0.8,0-1.1L16,10.2
			L7.9,2.1C7.7,1.9,7.6,1.6,7.7,1.4c0.1-0.3,0.2-0.5,0.5-0.5c4.5-1.6,9.5-0.5,12.8,2.9c3,3,4.2,7.1,3.3,11.2l39.3,39.3
			c1.2,1.2,1.9,2.9,1.9,4.6s-0.7,3.4-1.9,4.6C62.3,64.7,60.6,65.4,59,65.4 M15.3,22.6c0.2,0,0.4,0.1,0.5,0.2l39.6,39.6
			c2,2,5.1,2,7.1,0c0.9-0.9,1.5-2.2,1.5-3.5c0-1.3-0.5-2.6-1.5-3.5L22.9,15.7c-0.2-0.2-0.3-0.6-0.1-0.8c0.8-3.7-0.2-7.4-2.9-10.1
			c-2.6-2.6-6.5-3.7-10.1-2.9l7.8,7.8c0.1,0.1,0.2,0.3,0.2,0.5c0,0.2-0.1,0.4-0.2,0.5L3,25.3C4.3,26.4,5.9,27,7.6,27
			c1.9,0,3.8-0.8,5.1-2.1l2-2C14.9,22.6,15.1,22.6,15.3,22.6"/>
		<path class="st4" d="M7.1,36.5H5.7c-0.4,0-0.8-0.3-0.8-0.8S5.3,35,5.7,35h1.4c0.4,0,0.8,0.3,0.8,0.8S7.5,36.5,7.1,36.5"/>
		<path class="st4" d="M11.7,36.5h-1.4c-0.4,0-0.8-0.3-0.8-0.8S9.9,35,10.4,35h1.4c0.4,0,0.8,0.3,0.8,0.8S12.2,36.5,11.7,36.5"/>
		<path class="st4" d="M8.7,39.5c-0.4,0-0.8-0.3-0.8-0.8v-1.4c0-0.4,0.3-0.8,0.8-0.8c0.4,0,0.8,0.3,0.8,0.8v1.4
			C9.5,39.2,9.2,39.5,8.7,39.5"/>
		<path class="st4" d="M8.7,34.9c-0.4,0-0.8-0.3-0.8-0.8v-1.4C8,32.3,8.3,32,8.7,32c0.4,0,0.8,0.3,0.8,0.8v1.4
			C9.5,34.5,9.2,34.9,8.7,34.9"/>
		<path class="st4" d="M60.1,44.5h-1.4c-0.4,0-0.8-0.3-0.8-0.8s0.3-0.8,0.8-0.8h1.4c0.4,0,0.8,0.3,0.8,0.8S60.5,44.5,60.1,44.5"/>
		<path class="st4" d="M64.7,44.5h-1.4c-0.4,0-0.8-0.3-0.8-0.8S63,43,63.4,43h1.4c0.4,0,0.8,0.3,0.8,0.8S65.2,44.5,64.7,44.5"/>
		<path class="st4" d="M61.7,47.5c-0.4,0-0.8-0.3-0.8-0.8v-1.4c0-0.4,0.3-0.8,0.8-0.8c0.4,0,0.8,0.3,0.8,0.8v1.4
			C62.5,47.2,62.2,47.5,61.7,47.5"/>
		<path class="st4" d="M61.7,42.9c-0.4,0-0.8-0.3-0.8-0.8v-1.4c0-0.4,0.3-0.8,0.8-0.8c0.4,0,0.8,0.3,0.8,0.8v1.4
			C62.5,42.5,62.2,42.9,61.7,42.9"/>
		<path class="st4" d="M35.1,55.5h-1.4c-0.4,0-0.8-0.3-0.8-0.8s0.3-0.8,0.8-0.8h1.4c0.4,0,0.8,0.3,0.8,0.8S35.5,55.5,35.1,55.5"/>
		<path class="st4" d="M39.7,55.5h-1.4c-0.4,0-0.8-0.3-0.8-0.8s0.3-0.8,0.8-0.8h1.4c0.4,0,0.8,0.3,0.8,0.8S40.2,55.5,39.7,55.5"/>
		<path class="st4" d="M36.7,58.5c-0.4,0-0.8-0.3-0.8-0.8v-1.4c0-0.4,0.3-0.8,0.8-0.8c0.4,0,0.8,0.3,0.8,0.8v1.4
			C37.5,58.2,37.2,58.5,36.7,58.5"/>
		<path class="st4" d="M36.7,53.9c-0.4,0-0.8-0.3-0.8-0.8v-1.4c0-0.4,0.3-0.8,0.8-0.8c0.4,0,0.8,0.3,0.8,0.8v1.4
			C37.5,53.5,37.2,53.9,36.7,53.9"/>
		<path class="st4" d="M24.1,62.5h-1.4c-0.4,0-0.8-0.3-0.8-0.8s0.3-0.8,0.8-0.8h1.4c0.4,0,0.8,0.3,0.8,0.8S24.5,62.5,24.1,62.5"/>
		<path class="st4" d="M28.7,62.5h-1.4c-0.4,0-0.8-0.3-0.8-0.8s0.3-0.8,0.8-0.8h1.4c0.4,0,0.8,0.3,0.8,0.8S29.2,62.5,28.7,62.5"/>
		<path class="st4" d="M25.7,65.5c-0.4,0-0.8-0.3-0.8-0.8v-1.4c0-0.4,0.3-0.8,0.8-0.8c0.4,0,0.8,0.3,0.8,0.8v1.4
			C26.5,65.2,26.2,65.5,25.7,65.5"/>
		<path class="st4" d="M25.7,60.9c-0.4,0-0.8-0.3-0.8-0.8v-1.4c0-0.4,0.3-0.8,0.8-0.8c0.4,0,0.8,0.3,0.8,0.8v1.4
			C26.5,60.5,26.2,60.9,25.7,60.9"/>
	</g>
</g>
</svg>
