<?xml version="1.0" encoding="utf-8"?>
<!-- Generator: Adobe Illustrator 22.1.0, SVG Export Plug-In . SVG Version: 6.00 Build 0)  -->
<svg version="1.1" id="Layer_1" xmlns="http://www.w3.org/2000/svg" xmlns:xlink="http://www.w3.org/1999/xlink" x="0px" y="0px"
	 viewBox="0 0 65.5 65.5" style="enable-background:new 0 0 65.5 65.5;" xml:space="preserve">
<style type="text/css">
	.st0{clip-path:url(#SVGID_2_);}
	.st1{opacity:0.5;clip-path:url(#SVGID_4_);}
	.st2{clip-path:url(#SVGID_6_);fill:#3254FE;}
	.st3{clip-path:url(#SVGID_4_);fill:#FFFFFF;}
	.st4{clip-path:url(#SVGID_4_);fill:#012760;}
	.st5{clip-path:url(#SVGID_8_);fill:#3254FE;}
	.st6{clip-path:url(#SVGID_10_);fill:#3254FE;}
	.st7{clip-path:url(#SVGID_12_);fill:#3254FE;}
	.st8{clip-path:url(#SVGID_14_);fill:#3254FE;}
	.st9{clip-path:url(#SVGID_16_);fill:#3254FE;}
</style>
<g>
	<defs>
		<rect id="SVGID_1_" width="65.5" height="65.5"/>
	</defs>
	<clipPath id="SVGID_2_">
		<use xlink:href="#SVGID_1_"  style="overflow:visible;"/>
	</clipPath>
	<g class="st0">
		<defs>
			<rect id="SVGID_3_" width="65.5" height="65.5"/>
		</defs>
		<clipPath id="SVGID_4_">
			<use xlink:href="#SVGID_3_"  style="overflow:visible;"/>
		</clipPath>
		<g class="st1">
			<g>
				<defs>
					<rect id="SVGID_5_" x="7.8" y="0.8" width="50" height="64"/>
				</defs>
				<clipPath id="SVGID_6_">
					<use xlink:href="#SVGID_5_"  style="overflow:visible;"/>
				</clipPath>
				<path class="st2" d="M53.8,0.8h-42c-2.2,0-4,1.8-4,4v56c0,2.2,1.8,4,4,4h42c2.2,0,4-1.8,4-4v-56C57.8,2.5,56,0.8,53.8,0.8"/>
			</g>
		</g>
		<path class="st3" d="M52.8,56.8h-45v4h44c0.6,0,1-0.4,1-1V56.8z"/>
		<path class="st3" d="M52.8,0.8h-41c-2.2,0-4,1.8-4,4h44c0.6,0,1-0.4,1-1V0.8z"/>
		<path class="st4" d="M53.8,65.5h-42c-2.6,0-4.8-2.1-4.8-4.8v-56C7,2.1,9.1,0,11.8,0h42c2.6,0,4.8,2.1,4.8,4.8v56
			C58.5,63.4,56.4,65.5,53.8,65.5 M11.8,1.5C10,1.5,8.5,3,8.5,4.8v56c0,1.8,1.5,3.3,3.3,3.3h42c1.8,0,3.3-1.5,3.3-3.3v-56
			c0-1.8-1.5-3.3-3.3-3.3H11.8z"/>
		<g class="st1">
			<g>
				<defs>
					<rect id="SVGID_7_" x="7.8" y="8.8" width="50" height="48"/>
				</defs>
				<clipPath id="SVGID_8_">
					<use xlink:href="#SVGID_7_"  style="overflow:visible;"/>
				</clipPath>
				<path class="st5" d="M55.8,8.8h-46c-1.1,0-2,0.9-2,2v44c0,1.1,0.9,2,2,2h46c1.1,0,2-0.9,2-2v-44C57.8,9.6,56.9,8.8,55.8,8.8"/>
			</g>
		</g>
		<path class="st3" d="M51.8,8.8h-42c-1.1,0-2,0.9-2,2v41h43c0.6,0,1-0.4,1-1V8.8z"/>
		<path class="st4" d="M55.8,57.5h-46c-1.5,0-2.8-1.2-2.8-2.8v-44C7,9.2,8.2,8,9.8,8h46c1.5,0,2.8,1.2,2.8,2.8v44
			C58.5,56.3,57.3,57.5,55.8,57.5 M9.8,9.5c-0.7,0-1.3,0.6-1.3,1.3v44c0,0.7,0.6,1.3,1.3,1.3h46c0.7,0,1.3-0.6,1.3-1.3v-44
			c0-0.7-0.6-1.3-1.3-1.3H9.8z"/>
		<path class="st4" d="M37.8,5.5h-10c-0.4,0-0.8-0.3-0.8-0.8C27,4.3,27.3,4,27.8,4h10c0.4,0,0.8,0.3,0.8,0.8
			C38.5,5.2,38.2,5.5,37.8,5.5"/>
		<path class="st4" d="M34.8,61.5h-4c-0.4,0-0.8-0.3-0.8-0.8s0.3-0.8,0.8-0.8h4c0.4,0,0.8,0.3,0.8,0.8S35.2,61.5,34.8,61.5"/>
		<path class="st4" d="M23.8,61.5h-4c-0.4,0-0.8-0.3-0.8-0.8s0.3-0.8,0.8-0.8h4c0.4,0,0.8,0.3,0.8,0.8S24.2,61.5,23.8,61.5"/>
		<path class="st4" d="M45.8,61.5h-4c-0.4,0-0.8-0.3-0.8-0.8s0.3-0.8,0.8-0.8h4c0.4,0,0.8,0.3,0.8,0.8S46.2,61.5,45.8,61.5"/>
		<path class="st4" d="M42.8,4.8c0,0.6-0.4,1-1,1c-0.6,0-1-0.4-1-1c0-0.6,0.4-1,1-1C42.3,3.8,42.8,4.2,42.8,4.8"/>
		<path class="st3" d="M51.2,43.5c-0.8,0.1-1.6,0.2-2.4,0.2c-0.8,0-1.6-0.1-2.4-0.2l-0.8-5.1c-0.5-0.2-0.9-0.3-1.3-0.5l-4.2,3
			c-1.3-1-2.5-2.1-3.4-3.4l3-4.2c-0.2-0.4-0.4-0.9-0.5-1.3L34,31.2c-0.1-0.8-0.2-1.6-0.2-2.4c0-0.8,0.1-1.6,0.2-2.4l5.1-0.8
			c0.2-0.5,0.3-0.9,0.5-1.3l-3-4.2c1-1.3,2.1-2.5,3.4-3.4l4.2,3c0.4-0.2,0.9-0.4,1.3-0.5l0.8-5.1c0.8-0.1,1.6-0.2,2.4-0.2
			c0.8,0,1.6,0.1,2.4,0.2l0.8,5.1c0.5,0.1,0.9,0.3,1.3,0.5l4.2-3c1.3,1,2.5,2.1,3.4,3.4l-3,4.2c0.2,0.4,0.4,0.9,0.5,1.3l5.1,0.8
			c0.1,0.8,0.2,1.6,0.2,2.4c0,0.8-0.1,1.6-0.2,2.4L58.5,32c-0.2,0.5-0.3,0.9-0.5,1.3l3,4.2c-1,1.3-2.1,2.5-3.4,3.4l-4.2-3
			c-0.4,0.2-0.9,0.4-1.3,0.5L51.2,43.5z"/>
		<g class="st1">
			<g>
				<defs>
					<rect id="SVGID_9_" x="45.1" y="25.1" width="18.6" height="18.6"/>
				</defs>
				<clipPath id="SVGID_10_">
					<use xlink:href="#SVGID_9_"  style="overflow:visible;"/>
				</clipPath>
				<path class="st6" d="M51.2,43.5c-0.8,0.1-1.6,0.2-2.4,0.2c-0.8,0-1.6-0.1-2.4-0.2l-0.8-5.1c-0.1,0-0.3-0.1-0.4-0.2
					C52,37.5,57.5,32,58.3,25.1c0,0.1,0.1,0.3,0.2,0.4l5.1,0.8c0.1,0.8,0.2,1.6,0.2,2.4c0,0.8-0.1,1.6-0.2,2.4L58.5,32
					c-0.2,0.5-0.3,0.9-0.5,1.3l3,4.2c-1,1.3-2.1,2.5-3.4,3.4l-4.2-3c-0.4,0.2-0.9,0.4-1.3,0.5L51.2,43.5z"/>
			</g>
		</g>
		<path class="st4" d="M48.8,44.5c-0.8,0-1.7-0.1-2.6-0.2c-0.3-0.1-0.6-0.3-0.6-0.6L44.8,39c-0.2-0.1-0.4-0.2-0.6-0.2l-3.8,2.8
			c-0.3,0.2-0.6,0.2-0.9,0c-1.4-1-2.6-2.2-3.6-3.6c-0.2-0.3-0.2-0.6,0-0.9l2.8-3.8c-0.1-0.2-0.2-0.4-0.2-0.6l-4.7-0.7
			c-0.3-0.1-0.6-0.3-0.6-0.6c-0.1-0.8-0.2-1.7-0.2-2.6c0-0.9,0.1-1.7,0.2-2.6c0.1-0.3,0.3-0.6,0.6-0.6l4.7-0.7
			c0.1-0.2,0.1-0.4,0.2-0.6L36,20.4c-0.2-0.3-0.2-0.6,0-0.9c1-1.4,2.2-2.6,3.6-3.6c0.3-0.2,0.6-0.2,0.9,0l3.8,2.8
			c0.2-0.1,0.4-0.2,0.6-0.2l0.7-4.7c0.1-0.3,0.3-0.6,0.6-0.6c1.7-0.3,3.4-0.3,5.1,0c0.3,0.1,0.6,0.3,0.6,0.6l0.7,4.7
			c0.2,0.1,0.4,0.2,0.6,0.2l3.8-2.8c0.3-0.2,0.6-0.2,0.9,0c1.4,1,2.6,2.2,3.6,3.6c0.2,0.3,0.2,0.6,0,0.9l-2.8,3.8
			c0.1,0.2,0.2,0.4,0.2,0.6l4.7,0.7c0.3,0.1,0.6,0.3,0.6,0.6c0.1,0.8,0.2,1.7,0.2,2.6c0,0.9-0.1,1.7-0.2,2.6
			c-0.1,0.3-0.3,0.6-0.6,0.6L59,32.7c-0.1,0.2-0.2,0.4-0.2,0.6l2.8,3.8c0.2,0.3,0.2,0.6,0,0.9c-1,1.4-2.2,2.6-3.6,3.6
			c-0.3,0.2-0.6,0.2-0.9,0l-3.8-2.8c-0.2,0.1-0.4,0.2-0.6,0.2l-0.7,4.7c-0.1,0.3-0.3,0.6-0.6,0.6C50.4,44.4,49.6,44.5,48.8,44.5
			 M51.2,43.5L51.2,43.5L51.2,43.5z M47,42.9c1.2,0.2,2.4,0.2,3.6,0l0.7-4.6c0-0.3,0.2-0.5,0.5-0.6c0.4-0.1,0.8-0.3,1.2-0.5
			c0.3-0.1,0.5-0.1,0.8,0.1l3.7,2.7c0.9-0.7,1.8-1.6,2.5-2.5l-2.7-3.7c-0.2-0.2-0.2-0.5-0.1-0.8c0.2-0.4,0.4-0.8,0.5-1.2
			c0.1-0.3,0.3-0.5,0.6-0.5l4.6-0.7c0.1-0.6,0.1-1.2,0.1-1.8c0-0.6,0-1.2-0.1-1.8l-4.6-0.7c-0.3,0-0.5-0.2-0.6-0.5
			c-0.1-0.4-0.3-0.8-0.5-1.2c-0.1-0.3-0.1-0.6,0.1-0.8L60,20c-0.7-0.9-1.6-1.8-2.5-2.5l-3.7,2.7c-0.2,0.2-0.5,0.2-0.8,0.1
			c-0.4-0.2-0.8-0.4-1.2-0.5c-0.3-0.1-0.5-0.3-0.5-0.6l-0.7-4.6c-1.2-0.2-2.4-0.2-3.6,0l-0.7,4.6c0,0.3-0.2,0.5-0.5,0.6
			c-0.4,0.1-0.8,0.3-1.2,0.5c-0.3,0.1-0.5,0.1-0.8-0.1L40,17.5c-0.9,0.7-1.8,1.6-2.5,2.5l2.7,3.7c0.2,0.2,0.2,0.5,0.1,0.8
			c-0.2,0.4-0.4,0.8-0.5,1.2c-0.1,0.3-0.3,0.5-0.6,0.5L34.6,27c-0.1,0.6-0.1,1.2-0.1,1.8c0,0.6,0,1.2,0.1,1.8l4.6,0.7
			c0.3,0,0.5,0.2,0.6,0.5c0.1,0.4,0.3,0.8,0.5,1.2c0.1,0.3,0.1,0.5-0.1,0.8l-2.7,3.7c0.7,0.9,1.6,1.8,2.5,2.5l3.7-2.7
			c0.2-0.2,0.5-0.2,0.8-0.1c0.4,0.2,0.8,0.4,1.2,0.5c0.3,0.1,0.5,0.3,0.5,0.6L47,42.9z"/>
		<g class="st1">
			<g>
				<defs>
					<rect id="SVGID_11_" x="44.7" y="24.7" width="8.1" height="8.1"/>
				</defs>
				<clipPath id="SVGID_12_">
					<use xlink:href="#SVGID_11_"  style="overflow:visible;"/>
				</clipPath>
				<path class="st7" d="M48.8,32.8c2.2,0,4.1-1.8,4.1-4.1c0-2.2-1.8-4.1-4.1-4.1c-2.2,0-4.1,1.8-4.1,4.1
					C44.7,31,46.5,32.8,48.8,32.8"/>
			</g>
		</g>
		<path class="st4" d="M48.8,33.6c-2.7,0-4.8-2.2-4.8-4.8c0-2.7,2.2-4.8,4.8-4.8c2.7,0,4.8,2.2,4.8,4.8
			C53.6,31.4,51.4,33.6,48.8,33.6 M48.8,25.4c-1.8,0-3.3,1.5-3.3,3.3c0,1.8,1.5,3.3,3.3,3.3c1.8,0,3.3-1.5,3.3-3.3
			C52.1,26.9,50.6,25.4,48.8,25.4"/>
		<path class="st3" d="M19.2,51.5c-0.8,0.1-1.6,0.2-2.4,0.2c-0.8,0-1.6-0.1-2.4-0.2l-0.8-5.1c-0.5-0.2-0.9-0.3-1.3-0.5l-4.2,3
			c-1.3-1-2.5-2.1-3.4-3.4l3-4.2c-0.2-0.4-0.4-0.9-0.5-1.3L2,39.2c-0.1-0.8-0.2-1.6-0.2-2.4v0c0-0.8,0.1-1.6,0.2-2.4l5.1-0.8
			c0.1-0.5,0.3-0.9,0.5-1.3l-3-4.2c1-1.3,2.1-2.5,3.4-3.4l4.2,3c0.4-0.2,0.9-0.4,1.3-0.5l0.8-5.1c0.8-0.1,1.6-0.2,2.4-0.2
			c0.8,0,1.6,0.1,2.4,0.2l0.8,5.1c0.5,0.1,0.9,0.3,1.3,0.5l4.2-3c1.3,1,2.5,2.1,3.4,3.4l-3,4.2c0.2,0.4,0.4,0.9,0.5,1.3l5.1,0.8
			c0.1,0.8,0.2,1.6,0.2,2.4v0c0,0.8-0.1,1.6-0.2,2.4L26.5,40c-0.2,0.5-0.3,0.9-0.5,1.3l3,4.2c-1,1.3-2.1,2.5-3.4,3.4l-4.2-3
			c-0.4,0.2-0.9,0.4-1.3,0.5L19.2,51.5z"/>
		<g class="st1">
			<g>
				<defs>
					<rect id="SVGID_13_" x="13.1" y="33.1" width="18.6" height="18.6"/>
				</defs>
				<clipPath id="SVGID_14_">
					<use xlink:href="#SVGID_13_"  style="overflow:visible;"/>
				</clipPath>
				<path class="st8" d="M19.2,51.5c-0.8,0.1-1.6,0.2-2.4,0.2c-0.8,0-1.6-0.1-2.4-0.2l-0.8-5.1c-0.1,0-0.3-0.1-0.4-0.2
					C20,45.5,25.5,40,26.3,33.1c0.1,0.1,0.1,0.3,0.2,0.4l5.1,0.8c0.1,0.8,0.2,1.6,0.2,2.4v0c0,0.8-0.1,1.6-0.2,2.4L26.5,40
					c-0.2,0.5-0.3,0.9-0.5,1.3l3,4.2c-1,1.3-2.1,2.5-3.4,3.4l-4.2-3c-0.4,0.2-0.9,0.4-1.3,0.5L19.2,51.5z"/>
			</g>
		</g>
		<path class="st4" d="M16.8,52.5c-0.8,0-1.7-0.1-2.6-0.2c-0.3-0.1-0.6-0.3-0.6-0.6L12.8,47c-0.2-0.1-0.4-0.1-0.6-0.2l-3.8,2.8
			c-0.3,0.2-0.6,0.2-0.9,0c-1.4-1-2.6-2.2-3.6-3.6c-0.2-0.3-0.2-0.6,0-0.9l2.8-3.8c-0.1-0.2-0.2-0.4-0.2-0.6l-4.7-0.7
			c-0.3-0.1-0.6-0.3-0.6-0.6C1.1,38.5,1,37.6,1,36.7c0-0.9,0.1-1.7,0.2-2.6c0.1-0.3,0.3-0.6,0.6-0.6l4.7-0.7
			c0.1-0.2,0.1-0.4,0.2-0.6L4,28.4c-0.2-0.3-0.2-0.6,0-0.9C5,26.2,6.2,25,7.6,24c0.3-0.2,0.6-0.2,0.9,0l3.8,2.8
			c0.2-0.1,0.4-0.2,0.6-0.2l0.7-4.7c0.1-0.3,0.3-0.6,0.6-0.6c1.7-0.3,3.4-0.3,5.1,0c0.3,0.1,0.6,0.3,0.6,0.6l0.7,4.7
			c0.2,0.1,0.4,0.2,0.6,0.2l3.8-2.8c0.3-0.2,0.6-0.2,0.9,0c1.4,1,2.6,2.2,3.6,3.6c0.2,0.3,0.2,0.6,0,0.9l-2.8,3.8
			c0.1,0.2,0.2,0.4,0.2,0.6l4.7,0.7c0.3,0.1,0.6,0.3,0.6,0.6c0.1,0.8,0.2,1.7,0.2,2.6c0,0.9-0.1,1.7-0.2,2.6
			c-0.1,0.3-0.3,0.6-0.6,0.6L27,40.7c-0.1,0.2-0.2,0.4-0.2,0.6l2.8,3.8c0.2,0.3,0.2,0.6,0,0.9c-1,1.4-2.2,2.6-3.6,3.6
			c-0.3,0.2-0.6,0.2-0.9,0l-3.8-2.8c-0.2,0.1-0.4,0.2-0.6,0.2l-0.7,4.7c-0.1,0.3-0.3,0.6-0.6,0.6C18.5,52.4,17.6,52.5,16.8,52.5
			 M19.2,51.5L19.2,51.5L19.2,51.5z M15,50.9c1.2,0.2,2.4,0.2,3.6,0l0.7-4.6c0-0.3,0.2-0.5,0.5-0.6c0.4-0.1,0.8-0.3,1.2-0.5
			c0.3-0.1,0.5-0.1,0.8,0.1l3.7,2.7c0.9-0.7,1.8-1.6,2.5-2.5l-2.7-3.7c-0.2-0.2-0.2-0.5-0.1-0.8c0.2-0.4,0.4-0.8,0.5-1.2
			c0.1-0.3,0.3-0.5,0.6-0.5l4.6-0.7c0.1-0.6,0.1-1.2,0.1-1.8c0-0.6,0-1.2-0.1-1.8l-4.6-0.7c-0.3,0-0.5-0.2-0.6-0.5
			c-0.1-0.4-0.3-0.8-0.5-1.2c-0.1-0.3-0.1-0.6,0.1-0.8L28,28c-0.7-0.9-1.6-1.8-2.5-2.5l-3.7,2.7c-0.2,0.2-0.5,0.2-0.8,0.1
			c-0.4-0.2-0.8-0.4-1.2-0.5c-0.3-0.1-0.5-0.3-0.5-0.6l-0.7-4.6c-1.2-0.1-2.4-0.2-3.6,0l-0.7,4.6c0,0.3-0.2,0.5-0.5,0.6
			c-0.4,0.1-0.8,0.3-1.2,0.5c-0.3,0.1-0.6,0.1-0.8-0.1L8,25.5c-0.9,0.7-1.8,1.6-2.5,2.5l2.7,3.7c0.2,0.2,0.2,0.5,0.1,0.8
			c-0.2,0.4-0.4,0.8-0.5,1.2c-0.1,0.3-0.3,0.5-0.6,0.5L2.6,35c-0.1,0.6-0.1,1.2-0.1,1.8c0,0.6,0,1.2,0.1,1.8l4.6,0.7
			c0.3,0,0.5,0.2,0.6,0.5c0.1,0.4,0.3,0.8,0.5,1.2c0.1,0.3,0.1,0.5-0.1,0.8l-2.7,3.7C6.2,46.4,7.1,47.3,8,48l3.7-2.7
			c0.2-0.2,0.5-0.2,0.8-0.1c0.4,0.2,0.8,0.4,1.2,0.5c0.3,0.1,0.5,0.3,0.5,0.6L15,50.9z"/>
		<g class="st1">
			<g>
				<defs>
					<rect id="SVGID_15_" x="12.7" y="32.7" width="8.1" height="8.1"/>
				</defs>
				<clipPath id="SVGID_16_">
					<use xlink:href="#SVGID_15_"  style="overflow:visible;"/>
				</clipPath>
				<path class="st9" d="M16.8,40.8c2.2,0,4.1-1.8,4.1-4.1c0-2.2-1.8-4.1-4.1-4.1s-4.1,1.8-4.1,4.1C12.7,39,14.5,40.8,16.8,40.8"/>
			</g>
		</g>
		<path class="st4" d="M16.8,41.6c-2.7,0-4.8-2.2-4.8-4.8c0-2.7,2.2-4.8,4.8-4.8s4.8,2.2,4.8,4.8C21.6,39.4,19.4,41.6,16.8,41.6
			 M16.8,33.4c-1.8,0-3.3,1.5-3.3,3.3c0,1.8,1.5,3.3,3.3,3.3s3.3-1.5,3.3-3.3C20.1,34.9,18.6,33.4,16.8,33.4"/>
		<path class="st4" d="M0.8,16.3c-0.4,0-0.8-0.3-0.8-0.8V4.8C0,4.3,0.3,4,0.8,4s0.8,0.3,0.8,0.8v10.8C1.5,15.9,1.2,16.3,0.8,16.3"/>
		<path class="st4" d="M0.8,22.5c-0.4,0-0.8-0.3-0.8-0.8v-2.2c0-0.4,0.3-0.8,0.8-0.8s0.8,0.3,0.8,0.8v2.2
			C1.5,22.2,1.2,22.5,0.8,22.5"/>
		<path class="st4" d="M64.8,61.5c-0.4,0-0.8-0.3-0.8-0.8V46c0-0.4,0.3-0.8,0.8-0.8c0.4,0,0.8,0.3,0.8,0.8v14.8
			C65.5,61.2,65.2,61.5,64.8,61.5"/>
		<path class="st4" d="M64.8,42.7c-0.4,0-0.8-0.3-0.8-0.8v-2.2c0-0.4,0.3-0.8,0.8-0.8c0.4,0,0.8,0.3,0.8,0.8V42
			C65.5,42.4,65.2,42.7,64.8,42.7"/>
	</g>
</g>
</svg>
