<?xml version="1.0" encoding="utf-8"?>
<!-- Generator: Adobe Illustrator 22.1.0, SVG Export Plug-In . SVG Version: 6.00 Build 0)  -->
<svg version="1.1" id="Layer_1" xmlns="http://www.w3.org/2000/svg" xmlns:xlink="http://www.w3.org/1999/xlink" x="0px" y="0px"
	 viewBox="0 0 65.5 65.5" style="enable-background:new 0 0 65.5 65.5;" xml:space="preserve">
<style type="text/css">
	.st0{clip-path:url(#SVGID_2_);}
	.st1{clip-path:url(#SVGID_4_);fill:#012760;}
	.st2{clip-path:url(#SVGID_4_);fill:#FFFFFF;}
	.st3{opacity:0.5;clip-path:url(#SVGID_4_);}
	.st4{clip-path:url(#SVGID_6_);fill:#3254FE;}
	.st5{clip-path:url(#SVGID_8_);fill:#3254FE;}
	.st6{clip-path:url(#SVGID_10_);fill:#3254FE;}
	.st7{clip-path:url(#SVGID_12_);fill:#3254FE;}
	.st8{clip-path:url(#SVGID_14_);fill:#3254FE;}
	.st9{clip-path:url(#SVGID_16_);fill:#3254FE;}
	.st10{clip-path:url(#SVGID_18_);fill:#3254FE;}
</style>
<g>
	<defs>
		<rect id="SVGID_1_" width="65.5" height="65.5"/>
	</defs>
	<clipPath id="SVGID_2_">
		<use xlink:href="#SVGID_1_"  style="overflow:visible;"/>
	</clipPath>
	<g class="st0">
		<defs>
			<rect id="SVGID_3_" y="0" width="65.5" height="65.5"/>
		</defs>
		<clipPath id="SVGID_4_">
			<use xlink:href="#SVGID_3_"  style="overflow:visible;"/>
		</clipPath>
		<path class="st1" d="M8,39.7c-0.2,0-0.4-0.1-0.6-0.3c-0.8-1-1.6-2-2.3-3.1c-0.2-0.3-0.1-0.8,0.2-1c0.3-0.2,0.8-0.1,1,0.2
			c0.7,1,1.4,2,2.2,3c0.3,0.3,0.2,0.8-0.1,1.1C8.3,39.7,8.1,39.7,8,39.7"/>
		<path class="st1" d="M3.5,32.5c-0.3,0-0.6-0.2-0.7-0.4c-2.5-5.6-3.4-11.7-2.5-17.8c0.1-0.4,0.4-0.7,0.8-0.6
			c0.4,0.1,0.7,0.4,0.6,0.8c-0.8,5.8,0,11.7,2.4,17c0.2,0.4,0,0.8-0.4,1C3.7,32.5,3.6,32.5,3.5,32.5"/>
		<path class="st1" d="M63.9,12.2c-0.3,0-0.6-0.2-0.7-0.6c-0.8-3.6-2.3-7-4.3-10c-0.2-0.3-0.1-0.8,0.2-1c0.3-0.2,0.8-0.1,1,0.2
			c2.1,3.2,3.6,6.8,4.5,10.5c0.1,0.4-0.2,0.8-0.6,0.9C64,12.2,64,12.2,63.9,12.2"/>
		<path class="st1" d="M59.7,36.7c-0.1,0-0.3,0-0.4-0.1c-0.3-0.2-0.5-0.7-0.2-1c3.6-5.6,5.3-12.2,4.8-18.9c0-0.4,0.3-0.8,0.7-0.8
			c0.4,0,0.8,0.3,0.8,0.7c0.5,7-1.3,13.9-5,19.8C60.2,36.6,60,36.7,59.7,36.7"/>
		<path class="st1" d="M11.1,32c-0.3,0-0.5-0.1-0.7-0.4C6.6,25,5.9,17,8.6,9.8c0.1-0.4,0.6-0.6,1-0.4c0.4,0.1,0.6,0.6,0.4,1
			c-2.5,6.8-1.9,14.3,1.7,20.6c0.2,0.4,0.1,0.8-0.3,1C11.3,32,11.2,32,11.1,32"/>
		<path class="st1" d="M11.7,6c-0.1,0-0.3,0-0.4-0.1c-0.3-0.2-0.4-0.7-0.2-1c1-1.5,2.2-3,3.5-4.3c0.3-0.3,0.8-0.3,1.1,0
			c0.3,0.3,0.3,0.8,0,1.1c-1.2,1.2-2.3,2.6-3.3,4.1C12.2,5.9,11.9,6,11.7,6"/>
		<path class="st1" d="M55.6,29.6c-0.1,0-0.2,0-0.3-0.1c-0.4-0.2-0.6-0.6-0.4-1c2.7-6.2,2.7-13.2,0-19.4c-0.2-0.4,0-0.8,0.4-1
			c0.4-0.2,0.8,0,1,0.4c2.8,6.6,2.8,14.1,0,20.6C56.2,29.4,55.9,29.6,55.6,29.6"/>
		<path class="st1" d="M50.4,37.2c-0.2,0-0.4-0.1-0.5-0.2c-0.3-0.3-0.3-0.8,0-1.1c0.9-0.9,1.8-2,2.6-3.1c0.2-0.3,0.7-0.4,1-0.2
			c0.3,0.2,0.4,0.7,0.2,1C52.9,34.9,52,36,51,37C50.8,37.1,50.6,37.2,50.4,37.2"/>
		<path class="st2" d="M50.8,18.8c0-10.3-8.6-18.5-19-18c-9.2,0.5-16.7,8.2-17,17.4c-0.2,5.3,2,10.2,5.5,13.6c2,1.9,3,4.6,3,7.3v1.7
			h18.9v-1.9c0-2.7,1.2-5.3,3.2-7.2C48.7,28.3,50.8,23.8,50.8,18.8"/>
		<g class="st3">
			<g>
				<defs>
					<rect id="SVGID_5_" x="30.7" y="0.8" width="20" height="40"/>
				</defs>
				<clipPath id="SVGID_6_">
					<use xlink:href="#SVGID_5_"  style="overflow:visible;"/>
				</clipPath>
				<path class="st4" d="M31.8,0.8c-0.3,0-0.7,0.1-1,0.1c9,1,16,8.6,16,17.9c0,5-2.1,9.6-5.4,12.8c-2,1.9-3.2,4.5-3.2,7.2v1.9h4
					v-1.9c0-2.7,1.2-5.3,3.2-7.2c3.3-3.3,5.4-7.8,5.4-12.8C50.8,8.5,42.2,0.2,31.8,0.8"/>
			</g>
		</g>
		<path class="st1" d="M42.2,41.5H23.3c-0.4,0-0.8-0.3-0.8-0.8V39c0-2.6-1-5-2.8-6.7c-3.8-3.7-5.9-8.8-5.8-14.1
			C14.3,8.5,22.1,0.5,31.7,0c5.2-0.3,10.2,1.5,13.9,5.1c3.8,3.6,5.9,8.4,5.9,13.6c0,5.1-2,9.8-5.6,13.4c-1.9,1.8-2.9,4.2-2.9,6.7
			v1.9C42.9,41.2,42.6,41.5,42.2,41.5 M24.1,40h17.4v-1.2c0-2.9,1.2-5.6,3.4-7.7c3.3-3.3,5.2-7.6,5.2-12.3c0-4.8-1.9-9.2-5.4-12.5
			c-3.5-3.3-8-5-12.8-4.7C23,2,15.8,9.3,15.5,18.2c-0.2,4.9,1.8,9.6,5.3,13c2.1,2,3.3,4.8,3.3,7.8V40z"/>
		<g class="st3">
			<g>
				<defs>
					<rect id="SVGID_7_" x="24.8" y="40.8" width="16" height="8"/>
				</defs>
				<clipPath id="SVGID_8_">
					<use xlink:href="#SVGID_7_"  style="overflow:visible;"/>
				</clipPath>
				<path class="st5" d="M38.8,48.8h-12c-1.1,0-2-0.9-2-2v-6h16v6C40.8,47.9,39.9,48.8,38.8,48.8"/>
			</g>
		</g>
		<path class="st2" d="M35.8,44.8h-11v-4h12v3C36.8,44.3,36.3,44.8,35.8,44.8"/>
		<path class="st1" d="M38.8,49.5h-12c-1.5,0-2.8-1.2-2.8-2.8v-6c0-0.4,0.3-0.8,0.8-0.8h16c0.4,0,0.8,0.3,0.8,0.8v6
			C41.5,48.3,40.3,49.5,38.8,49.5 M25.5,41.5v5.3c0,0.7,0.6,1.3,1.3,1.3h12c0.7,0,1.3-0.6,1.3-1.3v-5.3H25.5z"/>
		<path class="st2" d="M61.1,49.8L61.1,49.8c-0.3,1.6-1.4,3-2.9,3.6l-12.5,4.8c-2.5,1-5.3-0.4-6.1-3c-0.5-1.9,0.5-3.9,2.4-4.5
			l2.5-0.8c7-1.5,11.1-4.1,13.7-4.1C60.6,45.7,61.6,47.8,61.1,49.8"/>
		<g class="st3">
			<g>
				<defs>
					<rect id="SVGID_9_" x="39.5" y="46" width="21.8" height="12.5"/>
				</defs>
				<clipPath id="SVGID_10_">
					<use xlink:href="#SVGID_9_"  style="overflow:visible;"/>
				</clipPath>
				<path class="st6" d="M59.6,46c-0.4,0.6-1,1.2-1.6,1.5L46.2,54c-2.2,1.2-4.9,0.4-6.2-1.7c-0.5,0.8-0.7,1.9-0.4,2.9
					c0.7,2.6,3.5,4,6.1,3l12.5-4.8c1.6-0.6,2.7-2,2.9-3.6C61.5,48.2,61,46.6,59.6,46"/>
			</g>
		</g>
		<path class="st1" d="M44,59.2c-0.8,0-1.6-0.2-2.4-0.6c-1.3-0.7-2.3-1.9-2.7-3.3c-0.6-2.3,0.6-4.7,2.9-5.4l2.5-0.8
			c3.7-0.8,6.5-1.9,8.8-2.7c2.1-0.8,3.8-1.4,5.2-1.4c1.2,0,2.3,0.4,2.9,1.3c0.7,0.9,1,2.3,0.7,3.6c-0.3,1.9-1.6,3.5-3.4,4.2
			l-12.5,4.8C45.3,59.1,44.7,59.2,44,59.2 M58.3,46.5L58.3,46.5c-1.1,0-2.7,0.6-4.7,1.4c-2.3,0.9-5.2,2-8.9,2.8l-2.4,0.8
			c-1.5,0.5-2.3,2-1.9,3.6c0.3,1,1,1.9,2,2.4c1,0.5,2.1,0.5,3.1,0.2l12.5-4.8c1.3-0.5,2.2-1.7,2.4-3c0,0,0,0,0-0.1
			c0.2-0.9,0.1-1.8-0.4-2.4C59.6,46.7,59,46.5,58.3,46.5"/>
		<path class="st2" d="M63.9,49.7c-1.9-1.6-7.3,3.3-21.2,5.9c1.8-0.7,2.5-1.7,2.6-2.7c0.3-4.6-3.7-4.4-3.7-4.4
			c-20.5,0.2-4.9-4.6-32.8-4.8v18c0,0,30.7,10.4,54-7.5C62.7,54.3,66.4,51.8,63.9,49.7"/>
		<g class="st3">
			<g>
				<defs>
					<rect id="SVGID_11_" x="8.8" y="49.4" width="56" height="15.4"/>
				</defs>
				<clipPath id="SVGID_12_">
					<use xlink:href="#SVGID_11_"  style="overflow:visible;"/>
				</clipPath>
				<path class="st7" d="M63.9,49.7c-0.6-0.5-1.4-0.4-2.7,0.1c-0.6,0.9-1.4,1.5-1.4,1.5C41.1,66.7,16.8,63.2,8.8,61.5v0.3
					c0,0,30.7,10.4,54-7.5C62.7,54.3,66.4,51.8,63.9,49.7"/>
			</g>
		</g>
		<path class="st1" d="M29.5,65.5c-11.9,0-20.8-3-21-3C8.2,62.3,8,62.1,8,61.7v-18c0-0.2,0.1-0.4,0.2-0.5C8.4,43.1,8.5,43,8.8,43
			c15.1,0.1,17.7,1.6,20,2.9c1.9,1.1,3.5,2,12.8,1.9c0,0,1.9-0.1,3.2,1.3c0.9,0.9,1.3,2.3,1.2,3.9c0,0.4-0.1,0.8-0.4,1.3
			c5.7-1.3,9.7-3,12.5-4.1c3.2-1.3,5-2.1,6.3-1c1,0.8,1.2,1.7,1.2,2.3c-0.1,1.8-2.1,3.3-2.4,3.4C52.3,63.2,39.8,65.5,29.5,65.5
			 M9.5,61.2c4.1,1.2,31.7,8.7,52.8-7.5c0.5-0.3,1.7-1.3,1.7-2.3c0-0.1,0-0.6-0.6-1.1c-0.6-0.5-2.3,0.3-4.7,1.3
			c-3.3,1.4-8.4,3.4-15.8,4.9c-0.4,0.1-0.8-0.2-0.9-0.5c-0.1-0.4,0.1-0.8,0.5-0.9c1.3-0.5,2-1.2,2.1-2.1c0.1-1.3-0.2-2.2-0.8-2.8
			c-0.8-0.8-2.1-0.8-2.1-0.8C31.8,49.4,30,48.4,28,47.2c-2.1-1.2-4.4-2.6-18.5-2.7V61.2z"/>
		<path class="st1" d="M35.7,57.2c-2.5,0-5.4-0.2-8.7-0.7c-0.4-0.1-0.7-0.4-0.6-0.8c0.1-0.4,0.4-0.7,0.8-0.6
			c8.5,1.1,13,0.5,15.3-0.2c0.4-0.1,0.8,0.1,0.9,0.5c0.1,0.4-0.1,0.8-0.5,0.9C41,56.9,38.6,57.2,35.7,57.2"/>
		<g class="st3">
			<g>
				<defs>
					<rect id="SVGID_13_" x="0.8" y="43.8" width="8" height="18"/>
				</defs>
				<clipPath id="SVGID_14_">
					<use xlink:href="#SVGID_13_"  style="overflow:visible;"/>
				</clipPath>
				<rect x="0.8" y="43.8" class="st8" width="8" height="18"/>
			</g>
		</g>
		<path class="st2" d="M4.8,58.8h-4v-15h5v14C5.8,58.3,5.3,58.8,4.8,58.8"/>
		<path class="st1" d="M8.8,62.5h-8c-0.4,0-0.8-0.3-0.8-0.8v-18C0,43.3,0.3,43,0.8,43h8c0.4,0,0.8,0.3,0.8,0.8v18
			C9.5,62.2,9.2,62.5,8.8,62.5 M1.5,61H8V44.5H1.5V61z"/>
		<path class="st1" d="M5.8,57.8c0,0.6-0.4,1-1,1s-1-0.4-1-1c0-0.6,0.4-1,1-1S5.8,57.2,5.8,57.8"/>
		<path class="st2" d="M34.7,30.6c-0.6,0.1-1.3,0.2-1.9,0.2c-0.7,0-1.3-0.1-1.9-0.2l-0.6-4.1c-0.4-0.1-0.7-0.3-1-0.4l-3.3,2.4
			c-1.1-0.8-2-1.7-2.8-2.8l2.4-3.3c-0.2-0.3-0.3-0.7-0.4-1.1l-4.1-0.7c-0.1-0.6-0.2-1.3-0.2-1.9v0c0-0.7,0.1-1.3,0.2-1.9l4.1-0.7
			c0.1-0.4,0.3-0.7,0.4-1L23,11.8c0.8-1.1,1.7-2,2.8-2.8l3.3,2.4c0.3-0.2,0.7-0.3,1-0.4l0.6-4.1c0.6-0.1,1.3-0.2,1.9-0.2
			c0.7,0,1.3,0.1,1.9,0.2l0.6,4.1c0.4,0.1,0.7,0.3,1,0.4L39.7,9c1.1,0.8,2,1.7,2.8,2.8l-2.4,3.3c0.2,0.3,0.3,0.7,0.4,1l4.1,0.7
			c0.1,0.6,0.2,1.3,0.2,1.9v0c0,0.7-0.1,1.3-0.2,1.9l-4.1,0.7c-0.1,0.4-0.3,0.7-0.4,1.1l2.4,3.3c-0.8,1.1-1.7,2-2.8,2.8l-3.3-2.4
			c-0.3,0.2-0.7,0.3-1,0.4L34.7,30.6z"/>
		<g class="st3">
			<g>
				<defs>
					<rect id="SVGID_15_" x="29.9" y="15.8" width="14.9" height="14.9"/>
				</defs>
				<clipPath id="SVGID_16_">
					<use xlink:href="#SVGID_15_"  style="overflow:visible;"/>
				</clipPath>
				<path class="st9" d="M34.7,30.6c-0.6,0.1-1.3,0.2-1.9,0.2c-0.7,0-1.3-0.1-1.9-0.2l-0.6-4.1c-0.1,0-0.2-0.1-0.3-0.1
					c5.5-0.6,9.9-5,10.5-10.5c0,0.1,0.1,0.2,0.1,0.3l4.1,0.7c0.1,0.6,0.2,1.3,0.2,1.9v0c0,0.7-0.1,1.3-0.2,1.9l-4.1,0.7
					c-0.1,0.4-0.3,0.7-0.4,1.1l2.4,3.3c-0.8,1.1-1.7,2-2.8,2.8l-3.3-2.4c-0.3,0.2-0.7,0.3-1,0.4L34.7,30.6z"/>
			</g>
		</g>
		<path class="st1" d="M32.8,31.5c-0.7,0-1.4-0.1-2.1-0.2c-0.3-0.1-0.6-0.3-0.6-0.6l-0.6-3.6c-0.1,0-0.2-0.1-0.3-0.1l-3,2.2
			c-0.3,0.2-0.6,0.2-0.9,0c-1.1-0.8-2.1-1.8-2.9-2.9c-0.2-0.3-0.2-0.6,0-0.9l2.2-3c0-0.1-0.1-0.2-0.1-0.3l-3.7-0.6
			c-0.3,0-0.6-0.3-0.6-0.6c-0.1-0.7-0.2-1.4-0.2-2.1c0-0.7,0.1-1.4,0.2-2.1c0.1-0.3,0.3-0.6,0.6-0.6l3.6-0.6c0-0.1,0.1-0.2,0.1-0.3
			l-2.2-3c-0.2-0.3-0.2-0.6,0-0.9c0.8-1.1,1.8-2.1,2.9-2.9c0.3-0.2,0.6-0.2,0.9,0l3,2.2c0.1,0,0.2-0.1,0.3-0.1l0.6-3.6
			c0.1-0.3,0.3-0.6,0.6-0.6c1.4-0.2,2.8-0.2,4.1,0c0.3,0.1,0.6,0.3,0.6,0.6l0.6,3.6c0.1,0,0.2,0.1,0.3,0.1l3-2.2
			c0.3-0.2,0.6-0.2,0.9,0c1.1,0.8,2.1,1.8,2.9,2.9c0.2,0.3,0.2,0.6,0,0.9l-2.2,3c0,0.1,0.1,0.2,0.1,0.3l3.6,0.6
			c0.3,0.1,0.6,0.3,0.6,0.6c0.1,0.7,0.2,1.4,0.2,2.1c0,0.7-0.1,1.4-0.2,2.1c-0.1,0.3-0.3,0.6-0.6,0.6L41.1,22c0,0.1-0.1,0.2-0.1,0.3
			l2.2,3c0.2,0.3,0.2,0.6,0,0.9c-0.8,1.1-1.8,2.1-2.9,2.9c-0.3,0.2-0.6,0.2-0.9,0l-3-2.2c-0.1,0-0.2,0.1-0.3,0.1l-0.6,3.6
			c0,0.3-0.3,0.6-0.6,0.6C34.1,31.4,33.4,31.5,32.8,31.5 M34.7,30.6L34.7,30.6L34.7,30.6z M31.5,29.9c0.9,0.1,1.7,0.1,2.6,0l0.6-3.5
			c0-0.3,0.2-0.5,0.5-0.6c0.3-0.1,0.6-0.2,1-0.4c0.3-0.1,0.6-0.1,0.8,0.1l2.9,2.1c0.7-0.5,1.3-1.1,1.8-1.8l-2.1-2.9
			c-0.2-0.2-0.2-0.5-0.1-0.8c0.2-0.3,0.3-0.6,0.4-1c0.1-0.3,0.3-0.5,0.6-0.5l3.5-0.6c0-0.4,0.1-0.9,0.1-1.3c0-0.4,0-0.9-0.1-1.3
			l-3.5-0.6c-0.3,0-0.5-0.2-0.6-0.5c-0.1-0.3-0.2-0.7-0.4-0.9c-0.1-0.3-0.1-0.6,0.1-0.8l2.1-2.9c-0.5-0.7-1.2-1.3-1.8-1.8L36.8,12
			c-0.2,0.2-0.5,0.2-0.8,0.1c-0.3-0.2-0.6-0.3-0.9-0.4c-0.3-0.1-0.5-0.3-0.5-0.6L34,7.6c-0.9-0.1-1.7-0.1-2.6,0l-0.6,3.5
			c0,0.3-0.2,0.5-0.5,0.6c-0.3,0.1-0.6,0.2-0.9,0.4c-0.3,0.1-0.6,0.1-0.8-0.1l-2.9-2.1c-0.7,0.5-1.3,1.1-1.8,1.8l2.1,2.9
			c0.2,0.2,0.2,0.5,0.1,0.8c-0.2,0.3-0.3,0.6-0.4,1c-0.1,0.3-0.3,0.5-0.6,0.5l-3.5,0.6c0,0.4-0.1,0.9-0.1,1.3c0,0.4,0,0.9,0.1,1.3
			l3.5,0.6c0.3,0,0.5,0.2,0.6,0.5c0.1,0.3,0.2,0.6,0.4,1c0.1,0.3,0.1,0.5-0.1,0.8l-2.1,2.9c0.5,0.7,1.2,1.3,1.8,1.8l2.9-2.1
			c0.2-0.2,0.5-0.2,0.8-0.1c0.3,0.2,0.6,0.3,1,0.4c0.3,0.1,0.5,0.3,0.5,0.6L31.5,29.9z"/>
		<g class="st3">
			<g>
				<defs>
					<rect id="SVGID_17_" x="29.5" y="15.5" width="6.5" height="6.5"/>
				</defs>
				<clipPath id="SVGID_18_">
					<use xlink:href="#SVGID_17_"  style="overflow:visible;"/>
				</clipPath>
				<path class="st10" d="M32.8,22c1.8,0,3.3-1.5,3.3-3.3c0-1.8-1.5-3.3-3.3-3.3c-1.8,0-3.3,1.5-3.3,3.3C29.5,20.5,31,22,32.8,22"/>
			</g>
		</g>
		<path class="st1" d="M32.8,22.8c-2.2,0-4-1.8-4-4c0-2.2,1.8-4,4-4c2.2,0,4,1.8,4,4C36.8,21,35,22.8,32.8,22.8 M32.8,16.3
			c-1.4,0-2.5,1.1-2.5,2.5c0,1.4,1.1,2.5,2.5,2.5c1.4,0,2.5-1.1,2.5-2.5C35.3,17.4,34.1,16.3,32.8,16.3"/>
	</g>
</g>
</svg>
